<?xml version="1.0" encoding="utf-8"?>
<!-- Generator: Adobe Illustrator 25.0.0, SVG Export Plug-In . SVG Version: 6.00 Build 0)  -->
<svg version="1.1" id="Layer_1" xmlns="http://www.w3.org/2000/svg" xmlns:xlink="http://www.w3.org/1999/xlink" x="0px" y="0px"
	 viewBox="0 0 4617 1680" style="enable-background:new 0 0 4617 1680;" xml:space="preserve">
<style type="text/css">
	.st0{font-family:'CMR17';}
	.st1{font-size:24.7871px;}
	.st2{fill:none;stroke:#000000;stroke-width:0.398;stroke-miterlimit:10;}
	.st3{fill-rule:evenodd;clip-rule:evenodd;fill:#FBD7BB;}
	.st4{fill:none;stroke:#FF7D7D;stroke-width:1.7136;stroke-miterlimit:10;}
	.st5{fill:none;stroke:#FF7D7D;stroke-width:1.6378;stroke-miterlimit:10;}
	.st6{fill:none;stroke:#FF7D7D;stroke-width:1.1402;stroke-miterlimit:10;}
	.st7{fill:none;stroke:#000000;stroke-width:1.7206;stroke-miterlimit:10;}
	.st8{fill:none;stroke:#000000;stroke-width:6.0586;stroke-miterlimit:10;}
	.st9{fill:none;stroke:#280B0B;stroke-width:1.1402;stroke-miterlimit:10;}
	.st10{fill:none;stroke:#000000;stroke-width:1.7136;stroke-miterlimit:10;}
	.st11{fill:none;stroke:#280B0B;stroke-width:1.2008;stroke-miterlimit:10;}
	.st12{fill:none;stroke:#000000;stroke-width:1.7752;stroke-miterlimit:10;}
	.st13{fill-rule:evenodd;clip-rule:evenodd;fill:#FFFFFF;stroke:#000000;stroke-width:1.7136;stroke-miterlimit:10;}
	.st14{fill:none;stroke:#280B0B;stroke-width:0.9065;stroke-miterlimit:10;}
	.st15{fill:none;stroke:#000000;stroke-width:1.71;stroke-miterlimit:10;}
	.st16{fill-rule:evenodd;clip-rule:evenodd;fill:#BFBFBF;}
	.st17{fill:none;stroke:#280B0B;stroke-width:1.2;stroke-miterlimit:10;}
	.st18{fill:none;stroke:#000000;stroke-width:1.789;stroke-miterlimit:10;}
	.st19{fill-rule:evenodd;clip-rule:evenodd;fill:#000001;}
	.st20{fill:none;stroke:#000001;stroke-width:1.1781;stroke-miterlimit:10;}
	.st21{fill-rule:evenodd;clip-rule:evenodd;fill:#FEE599;}
	.st22{fill:none;stroke:#000000;stroke-width:1.2097;stroke-miterlimit:10;}
	.st23{fill:none;stroke:#000000;stroke-width:0.9753;stroke-miterlimit:10;}
	.st24{fill:none;stroke:#000000;stroke-width:1.3032;stroke-miterlimit:10;}
	.st25{letter-spacing:7;}
	.st26{letter-spacing:-2;}
	.st27{font-size:20.6625px;}
	.st28{letter-spacing:6;}
</style>
<g>
	<text transform="matrix(1 0 0 1 2668.8062 1070.5419)" class="st0 st1">CB17</text>
	<line class="st2" x1="2661.99" y1="1070.34" x2="2668.81" y2="1070.34"/>
	<text transform="matrix(1 0 0 1 2634.3291 1070.5419)" class="st0 st1">F2</text>
</g>
<rect x="1784.8" y="493.61" class="st3" width="91.84" height="68.81"/>
<polyline class="st4" points="918.13,691.87 918.13,973.62 1530.41,973.62 1530.41,858.83 "/>
<polyline class="st5" points="877.63,1077.39 877.63,1315.67 1682.49,1315.67 1682.49,1134.75 "/>
<path class="st6" d="M1127.22,823.52c0-14.36-11.64-26-26-26c-14.35,0-25.99,11.64-25.99,26c0,14.36,11.64,25.99,25.99,25.99
	C1115.58,849.51,1127.22,837.88,1127.22,823.52z"/>
<path class="st6" d="M1127.22,850.08c0-14.35-11.64-25.99-26-25.99c-14.35,0-25.99,11.64-25.99,25.99c0,14.36,11.64,26,25.99,26
	C1115.58,876.08,1127.22,864.44,1127.22,850.08z"/>
<line class="st4" x1="1101.22" y1="699.17" x2="1101.22" y2="797.12"/>
<path class="st4" d="M2278.98,1259.84v245.25 M2278.34,1504.26c7.65,0,14.72,3.63,18.53,9.52c3.82,5.89,3.8,13.14-0.04,19.02
	c-3.84,5.87-10.92,9.47-18.57,9.45 M2278.96,1541.48v118.82 M2279.82,1660H266.75 M267.74,1012.78v647.02"/>
<path class="st4" d="M3123.34,1120.65v-91.23 M3307.11,1121.6v-91.24 M3123.31,1120.74h183.8"/>
<path class="st4" d="M2747.3,1211.93v-182.64 M3572.46,1212.66v-127.28 M2746.55,1212.03h826.76"/>
<path class="st4" d="M2578.16,1381.06v-117.03 M2577.58,1381.14H3833 M3832.91,1271.63v110.38"/>
<path class="st4" d="M1102.56,875.4l-0.57,80.94 M1102,955.51c7.05,0,13.56,3.59,17.08,9.4c3.52,5.81,3.5,12.97-0.04,18.77
	c-3.54,5.8-10.07,9.36-17.12,9.33 M1102.79,992.39v304.07 M1101.92,1295.76c7.05,0,13.56,3.58,17.08,9.39
	c3.51,5.82,3.5,12.97-0.04,18.77c-3.54,5.8-10.07,9.36-17.12,9.33 M1102.52,1332.27v193.01 M4301,1525.41H1101.5 M4300.12,1526.25
	V939.48"/>
<line class="st7" x1="2058.57" y1="78.02" x2="2058.73" y2="208.01"/>
<line class="st8" x1="2373.14" y1="207.93" x2="1724.31" y2="208.07"/>
<path class="st9" d="M1889.9,732.26c0-14.35-11.64-25.99-26-25.99c-14.35,0-25.99,11.64-25.99,25.99c0,14.36,11.64,26,25.99,26
	C1878.26,758.26,1889.9,746.62,1889.9,732.26z"/>
<path class="st9" d="M1889.9,758.83c0-14.36-11.64-26-26-26c-14.35,0-25.99,11.64-25.99,26c0,14.36,11.64,25.99,25.99,25.99
	C1878.26,784.82,1889.9,773.19,1889.9,758.83z"/>
<path class="st9" d="M1889.9,732.26c0-14.35-11.64-25.99-26-25.99c-14.35,0-25.99,11.64-25.99,25.99c0,14.36,11.64,26,25.99,26
	C1878.26,758.26,1889.9,746.62,1889.9,732.26z"/>
<path class="st9" d="M1889.9,758.83c0-14.36-11.64-26-26-26c-14.35,0-25.99,11.64-25.99,26c0,14.36,11.64,25.99,25.99,25.99
	C1878.26,784.82,1889.9,773.19,1889.9,758.83z"/>
<line class="st10" x1="2298.95" y1="284.4" x2="2298.95" y2="207.86"/>
<line class="st10" x1="1864.94" y1="856.09" x2="1864.94" y2="784.7"/>
<line class="st10" x1="2058.65" y1="458.54" x2="2058.65" y2="208.01"/>
<line class="st8" x1="1662.28" y1="458.37" x2="2615.74" y2="458.37"/>
<line class="st8" x1="3610.46" y1="457.74" x2="4457.26" y2="457.74"/>
<line class="st10" x1="2298.63" y1="283.41" x2="4003.8" y2="283.41"/>
<line class="st10" x1="4003.8" y1="454.71" x2="4003.8" y2="282.51"/>
<line class="st10" x1="1863.9" y1="705.7" x2="1863.9" y2="670.49"/>
<ellipse class="st11" cx="2058.65" cy="48.58" rx="28.52" ry="29.38"/>
<path class="st12" d="M2040.94,48.62c0,0,2.26-4.53,3.5-6.18c1.24-1.66,2.83-5.02,6.09-4.94c3.27,0.09,5.16,4.61,6.28,7.09
	c1.13,2.48,2.94,5.47,3.86,7.62c0.92,2.15,3.27,6.52,5.92,7.27c2.64,0.74,5.16-0.77,6.63-3.59c1.48-2.82,3.14-8.25,3.14-8.25"/>
<rect x="2043.42" y="224.28" class="st13" width="30.45" height="22.14"/>
<rect x="2043.42" y="224.28" class="st14" width="30.45" height="22.14"/>
<rect x="2283.72" y="224.28" class="st13" width="30.46" height="22.14"/>
<rect x="2283.72" y="224.28" class="st14" width="30.46" height="22.14"/>
<path class="st9" d="M180.78,822.9c0-14.36-11.64-26-25.99-26c-14.36,0-26,11.64-26,26c0,14.35,11.64,25.99,26,25.99
	C169.14,848.89,180.78,837.25,180.78,822.9z"/>
<path class="st9" d="M180.78,849.46c0-14.36-11.64-25.99-25.99-25.99c-14.36,0-26,11.63-26,25.99c0,14.36,11.64,26,26,26
	C169.14,875.46,180.78,863.82,180.78,849.46z"/>
<path class="st15" d="M619.68,264.46h1156.97 M1776.45,264.8v-56.66 M619.9,459.39V263.94"/>
<line class="st8" x1="580.71" y1="459.39" x2="935.75" y2="459.39"/>
<path class="st16" d="M569.66,1544.16c0-18.04-14.63-32.67-32.67-32.67c-18.04,0-32.67,14.63-32.67,32.67
	c0,18.05,14.63,32.68,32.67,32.68C555.03,1576.84,569.66,1562.21,569.66,1544.16z"/>
<path class="st17" d="M569.66,1544.16c0-18.04-14.63-32.67-32.67-32.67c-18.04,0-32.67,14.63-32.67,32.67
	c0,18.05,14.63,32.68,32.67,32.68C555.03,1576.84,569.66,1562.21,569.66,1544.16z"/>
<path class="st17" d="M564.06,1544.17c0-14.96-12.12-27.08-27.07-27.08s-27.07,12.12-27.07,27.08c0,14.95,12.12,27.07,27.07,27.07
	S564.06,1559.12,564.06,1544.17z"/>
<path class="st17" d="M560.81,1544.16c0-13.15-10.66-23.82-23.82-23.82c-13.16,0-23.83,10.67-23.83,23.82
	c0,13.16,10.67,23.83,23.83,23.83C550.15,1567.99,560.81,1557.32,560.81,1544.16z"/>
<path class="st3" d="M1269.24,846.64c0-16.22-12.77-29.38-28.52-29.38s-28.52,13.16-28.52,29.38c0,16.23,12.77,29.39,28.52,29.39
	S1269.24,862.87,1269.24,846.64z"/>
<path class="st18" d="M1269.24,846.64c0-16.22-12.77-29.38-28.52-29.38s-28.52,13.16-28.52,29.38c0,16.23,12.77,29.39,28.52,29.39
	S1269.24,862.87,1269.24,846.64z"/>
<line class="st8" x1="1483.01" y1="857.91" x2="1913.79" y2="857.91"/>
<line class="st10" x1="1593.81" y1="1186.15" x2="1593.81" y2="1108.28"/>
<path class="st19" d="M1595.36,1186.15l-1.54,4.19l-1.54-4.19C1593.19,1186.82,1594.43,1186.81,1595.36,1186.15z"/>
<path class="st20" d="M1595.36,1186.15l-1.54,4.19l-1.54-4.19C1593.19,1186.82,1594.43,1186.81,1595.36,1186.15z"/>
<path class="st9" d="M1619.81,1055.72c0-14.36-11.64-26-26-26c-14.35,0-25.99,11.64-25.99,26c0,14.36,11.64,26,25.99,26
	C1608.17,1081.72,1619.81,1070.08,1619.81,1055.72z"/>
<path class="st9" d="M1619.81,1082.29c0-14.36-11.64-26-26-26c-14.35,0-25.99,11.64-25.99,26c0,14.35,11.64,25.99,25.99,25.99
	C1608.17,1108.28,1619.81,1096.64,1619.81,1082.29z"/>
<path class="st9" d="M1619.81,1055.72c0-14.36-11.64-26-26-26c-14.35,0-25.99,11.64-25.99,26c0,14.36,11.64,26,25.99,26
	C1608.17,1081.72,1619.81,1070.08,1619.81,1055.72z"/>
<path class="st9" d="M1619.81,1082.29c0-14.36-11.64-26-26-26c-14.35,0-25.99,11.64-25.99,26c0,14.35,11.64,25.99,25.99,25.99
	C1608.17,1108.28,1619.81,1096.64,1619.81,1082.29z"/>
<line class="st10" x1="1593.81" y1="1029.8" x2="1593.81" y2="859.46"/>
<rect x="2281.65" y="615.85" class="st21" width="49.57" height="49.57"/>
<rect x="2281.65" y="615.85" class="st18" width="49.57" height="49.57"/>
<path class="st3" d="M2281.65,665.42l49.6-49.58L2281.65,665.42z"/>
<line class="st18" x1="2281.65" y1="665.42" x2="2331.25" y2="615.84"/>
<line class="st22" x1="2288.02" y1="630.76" x2="2303.79" y2="630.7"/>
<path class="st22" d="M2306.83,652.62c0,0,4.84,10.01,9.84,0c5.01-10,9.85,0.16,9.85,0.16"/>
<polygon class="st21" points="2277.75,589.24 2330.29,589.24 2344.55,516.29 2291.4,516.41 "/>
<polygon class="st18" points="2277.75,589.24 2330.29,589.24 2344.55,516.29 2291.4,516.41 "/>
<line class="st23" x1="2293.84" y1="588.95" x2="2308.47" y2="516.78"/>
<line class="st23" x1="2313.83" y1="589.04" x2="2328.46" y2="516.87"/>
<line class="st23" x1="2281.65" y1="565.44" x2="2335.29" y2="565.44"/>
<line class="st23" x1="2286.52" y1="541.06" x2="2340.16" y2="541.06"/>
<line class="st10" x1="2306.44" y1="615.85" x2="2306.46" y2="588.79"/>
<rect x="1578.41" y="875.8" class="st13" width="30.45" height="22.14"/>
<rect x="1578.41" y="875.8" class="st14" width="30.45" height="22.14"/>
<line class="st8" x1="1657.32" y1="1135.54" x2="2048.36" y2="1135.54"/>
<line class="st10" x1="2160.89" y1="855.54" x2="2160.89" y2="459.98"/>
<rect x="2145.66" y="484.43" class="st13" width="30.46" height="22.14"/>
<rect x="2145.66" y="484.43" class="st14" width="30.46" height="22.14"/>
<line class="st10" x1="758.23" y1="688.84" x2="758.23" y2="459.39"/>
<path class="st9" d="M2335.49,712.47c0-14.35-11.64-25.99-25.99-25.99c-14.36,0-26,11.64-26,25.99c0,14.36,11.64,26,26,26
	C2323.85,738.47,2335.49,726.83,2335.49,712.47z"/>
<path class="st9" d="M2335.49,739.04c0-14.36-11.64-26-25.99-26c-14.36,0-26,11.64-26,26c0,14.36,11.64,26,26,26
	C2323.85,765.04,2335.49,753.4,2335.49,739.04z"/>
<path class="st9" d="M2335.49,712.47c0-14.35-11.64-25.99-25.99-25.99c-14.36,0-26,11.64-26,25.99c0,14.36,11.64,26,26,26
	C2323.85,738.47,2335.49,726.83,2335.49,712.47z"/>
<path class="st9" d="M2335.49,739.04c0-14.36-11.64-26-25.99-26c-14.36,0-26,11.64-26,26c0,14.36,11.64,26,26,26
	C2323.85,765.04,2335.49,753.4,2335.49,739.04z"/>
<line class="st24" x1="2309.5" y1="855.31" x2="2309.5" y2="765.61"/>
<line class="st8" x1="98.71" y1="689.69" x2="341.95" y2="689.69"/>
<polyline class="st10" points="608.18,461.68 608.18,591.86 221.31,591.86 221.31,689.68 "/>
<line class="st10" x1="154.79" y1="691.89" x2="154.79" y2="796.33"/>
<rect x="139.19" y="707.14" class="st13" width="30.46" height="22.14"/>
<rect x="139.19" y="707.14" class="st14" width="30.46" height="22.14"/>
<line class="st8" x1="248.21" y1="1011.24" x2="378.55" y2="1011.24"/>
<path class="st9" d="M336.67,823.87c0-14.36-11.64-26-26-26c-14.35,0-25.99,11.64-25.99,26c0,14.35,11.64,25.99,25.99,25.99
	C325.03,849.86,336.67,838.22,336.67,823.87z"/>
<path class="st9" d="M336.67,850.43c0-14.35-11.64-25.99-26-25.99c-14.35,0-25.99,11.64-25.99,25.99c0,14.36,11.64,26,25.99,26
	C325.03,876.43,336.67,864.79,336.67,850.43z"/>
<line class="st10" x1="310.67" y1="692.86" x2="310.67" y2="797.3"/>
<rect x="295.08" y="707.14" class="st13" width="30.45" height="22.14"/>
<rect x="295.08" y="707.14" class="st14" width="30.45" height="22.14"/>
<line class="st10" x1="311.75" y1="876.53" x2="311.75" y2="1011.25"/>
<line class="st10" x1="358.27" y1="1090.91" x2="358.27" y2="1012.89"/>
<path class="st19" d="M359.82,1090.91l-1.55,4.2l-1.54-4.2C357.64,1091.58,358.89,1091.58,359.82,1090.91z"/>
<path class="st20" d="M359.82,1090.91l-1.55,4.2l-1.54-4.2C357.64,1091.58,358.89,1091.58,359.82,1090.91z"/>
<line class="st10" x1="154.77" y1="954.05" x2="154.77" y2="876.03"/>
<path class="st19" d="M156.31,954.05l-1.54,4.19l-1.54-4.19C154.14,954.72,155.39,954.72,156.31,954.05z"/>
<path class="st20" d="M156.31,954.05l-1.54,4.19l-1.54-4.19C154.14,954.72,155.39,954.72,156.31,954.05z"/>
<line class="st8" x1="562.76" y1="691.11" x2="951.62" y2="691.11"/>
<path class="st9" d="M620.78,879.34c0-14.36-11.64-26-26-26c-14.36,0-26,11.64-26,26c0,14.36,11.64,25.99,26,25.99
	C609.14,905.33,620.78,893.7,620.78,879.34z"/>
<path class="st9" d="M620.78,905.9c0-14.35-11.64-25.99-26-25.99c-14.36,0-26,11.64-26,25.99c0,14.36,11.64,26,26,26
	C609.14,931.9,620.78,920.26,620.78,905.9z"/>
<line class="st10" x1="594.8" y1="691.11" x2="594.8" y2="853.73"/>
<rect x="579.2" y="709.6" class="st13" width="30.46" height="22.14"/>
<rect x="579.2" y="709.6" class="st14" width="30.46" height="22.14"/>
<line class="st10" x1="594.78" y1="1074.95" x2="594.78" y2="931.35"/>
<path class="st9" d="M783.18,826.12c0-14.36-11.64-26-25.99-26c-14.36,0-26,11.64-26,26s11.64,25.99,26,25.99
	C771.54,852.11,783.18,840.48,783.18,826.12z"/>
<path class="st9" d="M783.18,852.68c0-14.35-11.64-25.99-25.99-25.99c-14.36,0-26,11.64-26,25.99c0,14.36,11.64,26,26,26
	C771.54,878.68,783.18,867.04,783.18,852.68z"/>
<line class="st10" x1="757.19" y1="691.11" x2="757.19" y2="799.55"/>
<rect x="741.59" y="709.6" class="st13" width="30.46" height="22.14"/>
<rect x="741.59" y="709.6" class="st14" width="30.46" height="22.14"/>
<line class="st10" x1="757.17" y1="957.27" x2="757.17" y2="879.25"/>
<path class="st19" d="M758.72,957.27l-1.55,4.2l-1.54-4.2C756.54,957.94,757.79,957.94,758.72,957.27z"/>
<path class="st20" d="M758.72,957.27l-1.55,4.2l-1.54-4.2C756.54,957.94,757.79,957.94,758.72,957.27z"/>
<line class="st8" x1="508.52" y1="1076.56" x2="912.72" y2="1076.56"/>
<path class="st9" d="M620.77,1234.56c0-14.36-11.63-25.99-25.99-25.99c-14.36,0-26,11.63-26,25.99c0,14.36,11.64,26,26,26
	C609.14,1260.56,620.77,1248.92,620.77,1234.56z"/>
<path class="st9" d="M620.77,1261.13c0-14.36-11.63-26-25.99-26c-14.36,0-26,11.64-26,26c0,14.35,11.64,25.99,26,25.99
	C609.14,1287.12,620.77,1275.48,620.77,1261.13z"/>
<line class="st10" x1="594.78" y1="1079.22" x2="594.78" y2="1208.69"/>
<rect x="579.18" y="1092.68" class="st13" width="30.46" height="22.14"/>
<rect x="579.18" y="1092.68" class="st14" width="30.46" height="22.14"/>
<path class="st9" d="M745.43,1183.57c0-14.36-11.64-26-26-26c-14.35,0-25.99,11.64-25.99,26c0,14.35,11.64,25.99,25.99,25.99
	C733.79,1209.56,745.43,1197.92,745.43,1183.57z"/>
<path class="st9" d="M745.43,1210.13c0-14.36-11.64-25.99-26-25.99c-14.35,0-25.99,11.63-25.99,25.99s11.64,26,25.99,26
	C733.79,1236.13,745.43,1224.49,745.43,1210.13z"/>
<line class="st10" x1="719.43" y1="1077.68" x2="719.43" y2="1157.1"/>
<line class="st10" x1="719.41" y1="1298.1" x2="719.41" y2="1235.66"/>
<path class="st19" d="M720.96,1298.1l-1.54,4.2l-1.54-4.2C718.79,1298.77,720.03,1298.77,720.96,1298.1z"/>
<path class="st20" d="M720.96,1298.1l-1.54,4.2l-1.54-4.2C718.79,1298.77,720.03,1298.77,720.96,1298.1z"/>
<line class="st8" x1="496.39" y1="1390.57" x2="694.64" y2="1390.57"/>
<line class="st10" x1="594.78" y1="1286.88" x2="594.78" y2="1389.19"/>
<g>
	<g>
		<line class="st10" x1="660.74" y1="1390.08" x2="660.74" y2="1488.64"/>
		<g>
			<polygon points="660.74,1500.74 653.77,1483.69 660.74,1487.74 667.7,1483.69 			"/>
		</g>
	</g>
</g>
<rect x="645.15" y="1404.75" class="st13" width="30.46" height="22.14"/>
<rect x="645.15" y="1404.75" class="st14" width="30.46" height="22.14"/>
<line class="st10" x1="536.99" y1="1392.84" x2="536.99" y2="1510.79"/>
<rect x="593.57" y="475.87" class="st13" width="30.46" height="22.14"/>
<rect x="593.57" y="475.87" class="st14" width="30.46" height="22.14"/>
<line class="st8" x1="1069.27" y1="696.97" x2="1276.41" y2="696.97"/>
<polyline class="st10" points="904.24,459.39 904.24,569.03 1133.08,569.03 1133.08,693.85 "/>
<line class="st10" x1="1240.72" y1="698.71" x2="1240.72" y2="816.66"/>
<rect x="1225.5" y="758.36" class="st13" width="30.45" height="22.14"/>
<rect x="1225.5" y="758.36" class="st14" width="30.45" height="22.14"/>
<rect x="742.36" y="475.87" class="st13" width="30.46" height="22.14"/>
<rect x="742.36" y="475.87" class="st14" width="30.46" height="22.14"/>
<rect x="890.1" y="475.87" class="st13" width="30.46" height="22.14"/>
<rect x="890.1" y="475.87" class="st14" width="30.46" height="22.14"/>
<polyline class="st10" points="1712.6,459.77 1712.6,564.63 1530.41,564.63 1530.41,857.2 "/>
<rect x="902.6" y="709.6" class="st13" width="30.46" height="22.14"/>
<rect x="902.6" y="709.6" class="st14" width="30.46" height="22.14"/>
<line class="st10" x1="1865.99" y1="1132.63" x2="1865.99" y2="1051.04"/>
<path class="st9" d="M1892.02,997.91c0-14.36-11.64-26-26-26c-14.35,0-25.99,11.64-25.99,26c0,14.35,11.64,25.99,25.99,25.99
	C1880.38,1023.9,1892.02,1012.26,1892.02,997.91z"/>
<path class="st9" d="M1892.02,1024.47c0-14.35-11.64-25.99-26-25.99c-14.35,0-25.99,11.64-25.99,25.99c0,14.36,11.64,26,25.99,26
	C1880.38,1050.47,1892.02,1038.83,1892.02,1024.47z"/>
<path class="st9" d="M1892.02,997.91c0-14.36-11.64-26-26-26c-14.35,0-25.99,11.64-25.99,26c0,14.35,11.64,25.99,25.99,25.99
	C1880.38,1023.9,1892.02,1012.26,1892.02,997.91z"/>
<path class="st9" d="M1892.02,1024.47c0-14.35-11.64-25.99-26-25.99c-14.35,0-25.99,11.64-25.99,25.99c0,14.36,11.64,26,25.99,26
	C1880.38,1050.47,1892.02,1038.83,1892.02,1024.47z"/>
<line class="st10" x1="1866.02" y1="971.82" x2="1866.02" y2="857.65"/>
<rect x="1850.62" y="875.8" class="st13" width="30.45" height="22.14"/>
<rect x="1850.62" y="875.8" class="st14" width="30.45" height="22.14"/>
<line class="st10" x1="2001.51" y1="1370.32" x2="2001.51" y2="1326.56"/>
<path class="st19" d="M2003.06,1370.32l-1.54,4.19l-1.54-4.19C2000.89,1370.99,2002.13,1370.98,2003.06,1370.32z"/>
<path class="st20" d="M2003.06,1370.32l-1.54,4.19l-1.54-4.19C2000.89,1370.99,2002.13,1370.98,2003.06,1370.32z"/>
<path class="st9" d="M2027.51,1274c0-14.36-11.64-26-26-26s-25.99,11.64-25.99,26c0,14.35,11.63,25.99,25.99,25.99
	S2027.51,1288.35,2027.51,1274z"/>
<path class="st9" d="M2027.51,1300.56c0-14.35-11.64-25.99-26-25.99s-25.99,11.64-25.99,25.99c0,14.36,11.63,26,25.99,26
	S2027.51,1314.92,2027.51,1300.56z"/>
<path class="st9" d="M2027.51,1274c0-14.36-11.64-26-26-26s-25.99,11.64-25.99,26c0,14.35,11.63,25.99,25.99,25.99
	S2027.51,1288.35,2027.51,1274z"/>
<path class="st9" d="M2027.51,1300.56c0-14.35-11.64-25.99-26-25.99s-25.99,11.64-25.99,25.99c0,14.36,11.63,26,25.99,26
	S2027.51,1314.92,2027.51,1300.56z"/>
<line class="st10" x1="2001.51" y1="1248.55" x2="2001.51" y2="1138.54"/>
<rect x="1986.1" y="1158.29" class="st13" width="30.45" height="22.14"/>
<rect x="1986.1" y="1158.29" class="st14" width="30.45" height="22.14"/>
<rect x="1850.36" y="811.65" class="st13" width="30.45" height="22.14"/>
<rect x="1850.36" y="811.65" class="st14" width="30.45" height="22.14"/>
<line class="st10" x1="1766.89" y1="744.19" x2="1766.89" y2="670.79"/>
<path class="st19" d="M1768.44,744.19l-1.54,4.19l-1.54-4.19C1766.27,744.86,1767.51,744.86,1768.44,744.19z"/>
<path class="st20" d="M1768.44,744.19l-1.54,4.19l-1.54-4.19C1766.27,744.86,1767.51,744.86,1768.44,744.19z"/>
<rect x="1784.8" y="493.61" class="st18" width="91.84" height="68.81"/>
<line class="st8" x1="1738.66" y1="668.32" x2="1909.81" y2="668.32"/>
<line class="st10" x1="1835" y1="561.77" x2="1835" y2="667.62"/>
<line class="st10" x1="1835.12" y1="1366.63" x2="1835.12" y2="1325.17"/>
<path class="st19" d="M1836.67,1366.63l-1.54,4.19l-1.54-4.19C1834.5,1367.3,1835.75,1367.29,1836.67,1366.63z"/>
<path class="st20" d="M1836.67,1366.63l-1.54,4.19l-1.54-4.19C1834.5,1367.3,1835.75,1367.29,1836.67,1366.63z"/>
<path class="st9" d="M1861.12,1272.61c0-14.36-11.64-26-25.99-26c-14.36,0-26,11.64-26,26c0,14.35,11.64,25.99,26,25.99
	C1849.48,1298.6,1861.12,1286.96,1861.12,1272.61z"/>
<path class="st9" d="M1861.12,1299.17c0-14.36-11.64-25.99-25.99-25.99c-14.36,0-26,11.63-26,25.99s11.64,26,26,26
	C1849.48,1325.17,1861.12,1313.53,1861.12,1299.17z"/>
<path class="st9" d="M1861.12,1272.61c0-14.36-11.64-26-25.99-26c-14.36,0-26,11.64-26,26c0,14.35,11.64,25.99,26,25.99
	C1849.48,1298.6,1861.12,1286.96,1861.12,1272.61z"/>
<path class="st9" d="M1861.12,1299.17c0-14.36-11.64-25.99-25.99-25.99c-14.36,0-26,11.63-26,25.99s11.64,26,26,26
	C1849.48,1325.17,1861.12,1313.53,1861.12,1299.17z"/>
<line class="st10" x1="1835.13" y1="1246.12" x2="1835.13" y2="1137.15"/>
<rect x="1819.72" y="1156.89" class="st13" width="30.45" height="22.14"/>
<rect x="1819.72" y="1156.89" class="st14" width="30.45" height="22.14"/>
<rect x="1696.28" y="484.43" class="st13" width="30.45" height="22.14"/>
<rect x="1696.28" y="484.43" class="st14" width="30.45" height="22.14"/>
<line class="st8" x1="2134.76" y1="857.22" x2="2494.02" y2="857.22"/>
<line class="st10" x1="2309.07" y1="686.12" x2="2309.07" y2="665.31"/>
<line class="st8" x1="2150.92" y1="1261.97" x2="2301.25" y2="1261.97"/>
<path class="st9" d="M2234.28,988.84c0-14.35-11.64-25.99-25.99-25.99c-14.36,0-26,11.64-26,25.99c0,14.36,11.64,26,26,26
	C2222.64,1014.84,2234.28,1003.2,2234.28,988.84z"/>
<path class="st9" d="M2234.28,1015.41c0-14.36-11.64-26-25.99-26c-14.36,0-26,11.64-26,26c0,14.36,11.64,26,26,26
	C2222.64,1041.41,2234.28,1029.77,2234.28,1015.41z"/>
<path class="st9" d="M2234.28,988.84c0-14.35-11.64-25.99-25.99-25.99c-14.36,0-26,11.64-26,25.99c0,14.36,11.64,26,26,26
	C2222.64,1014.84,2234.28,1003.2,2234.28,988.84z"/>
<path class="st9" d="M2234.28,1015.41c0-14.36-11.64-26-25.99-26c-14.36,0-26,11.64-26,26c0,14.36,11.64,26,26,26
	C2222.64,1041.41,2234.28,1029.77,2234.28,1015.41z"/>
<line class="st10" x1="2208.29" y1="856.18" x2="2208.29" y2="962.28"/>
<rect x="2192.66" y="875.8" class="st13" width="30.46" height="22.14"/>
<rect x="2192.66" y="875.8" class="st14" width="30.46" height="22.14"/>
<path class="st9" d="M2487.49,991.17c0-14.36-11.64-26-25.99-26c-14.36,0-26,11.64-26,26c0,14.36,11.64,26,26,26
	C2475.85,1017.17,2487.49,1005.53,2487.49,991.17z"/>
<path class="st9" d="M2487.49,1017.74c0-14.36-11.64-26-25.99-26c-14.36,0-26,11.64-26,26c0,14.35,11.64,25.99,26,25.99
	C2475.85,1043.73,2487.49,1032.09,2487.49,1017.74z"/>
<path class="st9" d="M2487.49,991.17c0-14.36-11.64-26-25.99-26c-14.36,0-26,11.64-26,26c0,14.36,11.64,26,26,26
	C2475.85,1017.17,2487.49,1005.53,2487.49,991.17z"/>
<path class="st9" d="M2487.49,1017.74c0-14.36-11.64-26-25.99-26c-14.36,0-26,11.64-26,26c0,14.35,11.64,25.99,26,25.99
	C2475.85,1043.73,2487.49,1032.09,2487.49,1017.74z"/>
<line class="st10" x1="2461.49" y1="858.51" x2="2461.49" y2="964.6"/>
<rect x="2445.87" y="875.8" class="st13" width="30.46" height="22.14"/>
<rect x="2445.87" y="875.8" class="st14" width="30.46" height="22.14"/>
<line class="st8" x1="2371.36" y1="1265.99" x2="2617.25" y2="1265.99"/>
<line class="st10" x1="2209.11" y1="1041.32" x2="2209.11" y2="1261.23"/>
<line class="st10" x1="2462.34" y1="1043.78" x2="2462.34" y2="1262.96"/>
<line class="st10" x1="2172.19" y1="1342.1" x2="2172.19" y2="1261.54"/>
<path class="st19" d="M2173.74,1342.1l-1.54,4.19l-1.54-4.19C2171.57,1342.77,2172.81,1342.77,2173.74,1342.1z"/>
<path class="st20" d="M2173.74,1342.1l-1.54,4.19l-1.54-4.19C2171.57,1342.77,2172.81,1342.77,2173.74,1342.1z"/>
<rect x="2156.79" y="1281.29" class="st13" width="30.46" height="22.14"/>
<rect x="2156.79" y="1281.29" class="st14" width="30.46" height="22.14"/>
<line class="st10" x1="2397.6" y1="1346.72" x2="2397.6" y2="1266.16"/>
<path class="st19" d="M2399.15,1346.72l-1.55,4.19l-1.54-4.19C2396.97,1347.39,2398.22,1347.38,2399.15,1346.72z"/>
<path class="st20" d="M2399.15,1346.72l-1.55,4.19l-1.54-4.19C2396.97,1347.39,2398.22,1347.38,2399.15,1346.72z"/>
<rect x="2382.19" y="1285.91" class="st13" width="30.46" height="22.14"/>
<rect x="2382.19" y="1285.91" class="st14" width="30.46" height="22.14"/>
<rect x="862.15" y="1092.68" class="st13" width="30.46" height="22.14"/>
<rect x="862.15" y="1092.68" class="st14" width="30.46" height="22.14"/>
<rect x="1761.22" y="224.28" class="st13" width="30.45" height="22.14"/>
<rect x="1761.22" y="224.28" class="st14" width="30.45" height="22.14"/>
<rect x="1085.99" y="735.24" class="st13" width="30.45" height="22.14"/>
<rect x="1085.99" y="735.24" class="st14" width="30.45" height="22.14"/>
<rect x="2294.18" y="796.81" class="st13" width="30.46" height="22.14"/>
<rect x="2294.18" y="796.81" class="st14" width="30.46" height="22.14"/>
<polyline class="st10" points="2524.65,458.37 2524.65,563.24 2706.84,563.24 2706.84,731.36 "/>
<rect x="2508.8" y="484.43" class="st13" width="30.46" height="22.14"/>
<rect x="2508.8" y="484.43" class="st14" width="30.46" height="22.14"/>
<line class="st8" x1="2594.64" y1="733.08" x2="3059.5" y2="733.08"/>
<path class="st9" d="M2709.65,865.2c0-14.35-11.64-25.99-26-25.99c-14.35,0-25.99,11.64-25.99,25.99c0,14.36,11.64,26,25.99,26
	C2698.01,891.2,2709.65,879.56,2709.65,865.2z"/>
<path class="st9" d="M2709.65,891.77c0-14.36-11.64-26-26-26c-14.35,0-25.99,11.64-25.99,26c0,14.36,11.64,26,25.99,26
	C2698.01,917.77,2709.65,906.13,2709.65,891.77z"/>
<path class="st9" d="M2709.65,865.2c0-14.35-11.64-25.99-26-25.99c-14.35,0-25.99,11.64-25.99,25.99c0,14.36,11.64,26,25.99,26
	C2698.01,891.2,2709.65,879.56,2709.65,865.2z"/>
<path class="st9" d="M2709.65,891.77c0-14.36-11.64-26-26-26c-14.35,0-25.99,11.64-25.99,26c0,14.36,11.64,26,25.99,26
	C2698.01,917.77,2709.65,906.13,2709.65,891.77z"/>
<line class="st10" x1="2683.65" y1="732.54" x2="2683.65" y2="838.64"/>
<rect x="2668.03" y="763" class="st13" width="30.46" height="22.14"/>
<rect x="2668.03" y="763" class="st14" width="30.46" height="22.14"/>
<path class="st9" d="M3038.33,865.36c0-14.35-11.64-25.99-25.99-25.99c-14.36,0-26,11.64-26,25.99c0,14.36,11.64,26,26,26
	C3026.69,891.36,3038.33,879.72,3038.33,865.36z"/>
<path class="st9" d="M3038.33,891.93c0-14.36-11.64-26-25.99-26c-14.36,0-26,11.64-26,26s11.64,25.99,26,25.99
	C3026.69,917.92,3038.33,906.29,3038.33,891.93z"/>
<path class="st9" d="M3038.33,865.36c0-14.35-11.64-25.99-25.99-25.99c-14.36,0-26,11.64-26,25.99c0,14.36,11.64,26,26,26
	C3026.69,891.36,3038.33,879.72,3038.33,865.36z"/>
<path class="st9" d="M3038.33,891.93c0-14.36-11.64-26-25.99-26c-14.36,0-26,11.64-26,26s11.64,25.99,26,25.99
	C3026.69,917.92,3038.33,906.29,3038.33,891.93z"/>
<line class="st10" x1="3012.34" y1="732.7" x2="3012.34" y2="838.8"/>
<rect x="2996.71" y="763.16" class="st13" width="30.46" height="22.14"/>
<rect x="2996.71" y="763.16" class="st14" width="30.46" height="22.14"/>
<line class="st10" x1="2684.48" y1="917.68" x2="2684.48" y2="1025.59"/>
<line class="st10" x1="3013.19" y1="917.97" x2="3013.19" y2="1028.35"/>
<line class="st8" x1="2593.5" y1="1028.62" x2="2775.47" y2="1028.62"/>
<line class="st10" x1="2619.36" y1="1108.11" x2="2619.36" y2="1027.56"/>
<path class="st19" d="M2620.91,1108.11l-1.54,4.2l-1.55-4.2C2618.74,1108.78,2619.98,1108.78,2620.91,1108.11z"/>
<path class="st20" d="M2620.91,1108.11l-1.54,4.2l-1.55-4.2C2618.74,1108.78,2619.98,1108.78,2620.91,1108.11z"/>
<line class="st8" x1="2922.2" y1="1031.38" x2="3164.97" y2="1031.38"/>
<line class="st10" x1="2946.79" y1="1114.64" x2="2946.79" y2="1034.09"/>
<path class="st19" d="M2948.34,1114.64l-1.54,4.2l-1.54-4.2C2946.17,1115.31,2947.41,1115.31,2948.34,1114.64z"/>
<path class="st20" d="M2948.34,1114.64l-1.54,4.2l-1.54-4.2C2946.17,1115.31,2947.41,1115.31,2948.34,1114.64z"/>
<rect x="2931.19" y="1049.87" class="st13" width="30.46" height="22.14"/>
<rect x="2931.19" y="1049.87" class="st14" width="30.46" height="22.14"/>
<rect x="252.46" y="1036.99" class="st13" width="30.46" height="22.14"/>
<rect x="252.46" y="1036.99" class="st14" width="30.46" height="22.14"/>
<polyline class="st10" points="3701.55,457.74 3701.55,562.6 3519.36,562.6 3517.76,677.57 "/>
<rect x="3686.44" y="484.06" class="st13" width="30.46" height="22.14"/>
<rect x="3686.44" y="483.98" class="st14" width="30.46" height="22.14"/>
<line class="st8" x1="3308.52" y1="676.3" x2="3667.78" y2="676.3"/>
<line class="st8" x1="3282.11" y1="1031.18" x2="3432.44" y2="1031.18"/>
<path class="st9" d="M3382.45,807.92c0-14.36-11.64-26-26-26c-14.36,0-26,11.64-26,26c0,14.35,11.64,25.99,26,25.99
	C3370.81,833.91,3382.45,822.27,3382.45,807.92z"/>
<path class="st9" d="M3382.45,834.48c0-14.35-11.64-25.99-26-25.99c-14.36,0-26,11.64-26,25.99c0,14.36,11.64,26,26,26
	C3370.81,860.48,3382.45,848.84,3382.45,834.48z"/>
<path class="st9" d="M3382.45,807.92c0-14.36-11.64-26-26-26c-14.36,0-26,11.64-26,26c0,14.35,11.64,25.99,26,25.99
	C3370.81,833.91,3382.45,822.27,3382.45,807.92z"/>
<path class="st9" d="M3382.45,834.48c0-14.35-11.64-25.99-26-25.99c-14.36,0-26,11.64-26,25.99c0,14.36,11.64,26,26,26
	C3370.81,860.48,3382.45,848.84,3382.45,834.48z"/>
<line class="st10" x1="3356.45" y1="675.25" x2="3356.45" y2="781.35"/>
<rect x="3340.82" y="705.71" class="st13" width="30.46" height="22.14"/>
<rect x="3340.82" y="705.71" class="st14" width="30.46" height="22.14"/>
<path class="st9" d="M3660.18,808.96c0-14.36-11.64-26-26-26c-14.35,0-25.99,11.64-25.99,26c0,14.35,11.64,25.99,25.99,25.99
	C3648.54,834.95,3660.18,823.31,3660.18,808.96z"/>
<path class="st9" d="M3660.18,835.52c0-14.35-11.64-25.99-26-25.99c-14.35,0-25.99,11.64-25.99,25.99c0,14.36,11.64,26,25.99,26
	C3648.54,861.52,3660.18,849.88,3660.18,835.52z"/>
<path class="st9" d="M3660.18,808.96c0-14.36-11.64-26-26-26c-14.35,0-25.99,11.64-25.99,26c0,14.35,11.64,25.99,25.99,25.99
	C3648.54,834.95,3660.18,823.31,3660.18,808.96z"/>
<path class="st9" d="M3660.18,835.52c0-14.35-11.64-25.99-26-25.99c-14.35,0-25.99,11.64-25.99,25.99c0,14.36,11.64,26,25.99,26
	C3648.54,861.52,3660.18,849.88,3660.18,835.52z"/>
<line class="st10" x1="3634.18" y1="676.3" x2="3634.18" y2="782.39"/>
<rect x="3618.56" y="706.75" class="st13" width="30.46" height="22.14"/>
<rect x="3618.56" y="706.75" class="st14" width="30.46" height="22.14"/>
<line class="st10" x1="3357.28" y1="860.39" x2="3357.28" y2="1028.15"/>
<line class="st10" x1="3635.03" y1="861.57" x2="3635.03" y2="1080.75"/>
<line class="st10" x1="3402.57" y1="1111.96" x2="3402.57" y2="1031.41"/>
<path class="st19" d="M3404.12,1111.96l-1.55,4.19l-1.54-4.19C3401.94,1112.63,3403.19,1112.63,3404.12,1111.96z"/>
<path class="st20" d="M3404.12,1111.96l-1.55,4.19l-1.54-4.19C3401.94,1112.63,3403.19,1112.63,3404.12,1111.96z"/>
<line class="st8" x1="3519.42" y1="1083.78" x2="3750.64" y2="1083.78"/>
<line class="st10" x1="3700.17" y1="1167.15" x2="3700.17" y2="1086.6"/>
<path class="st19" d="M3701.72,1167.15l-1.54,4.2l-1.54-4.2C3699.55,1167.82,3700.79,1167.82,3701.72,1167.15z"/>
<path class="st20" d="M3701.72,1167.15l-1.54,4.2l-1.54-4.2C3699.55,1167.82,3700.79,1167.82,3701.72,1167.15z"/>
<rect x="3685.54" y="1106.76" class="st13" width="30.46" height="22.14"/>
<rect x="3685.54" y="1106.76" class="st14" width="30.46" height="22.14"/>
<rect x="2732.09" y="1052.14" class="st13" width="30.46" height="22.14"/>
<rect x="2732.09" y="1052.14" class="st14" width="30.46" height="22.14"/>
<rect x="3107.34" y="1049.71" class="st13" width="30.46" height="22.14"/>
<rect x="3107.34" y="1049.71" class="st14" width="30.46" height="22.14"/>
<line class="st10" x1="3899.07" y1="638.43" x2="3899.07" y2="459.53"/>
<rect x="3883.84" y="483.98" class="st13" width="30.46" height="22.14"/>
<rect x="3883.84" y="483.98" class="st14" width="30.46" height="22.14"/>
<line class="st8" x1="3783.46" y1="1269.94" x2="4014.68" y2="1269.94"/>
<line class="st10" x1="3964.77" y1="1352.18" x2="3964.77" y2="1271.63"/>
<path class="st19" d="M3966.32,1352.18l-1.54,4.19l-1.54-4.19C3964.15,1352.85,3965.39,1352.85,3966.32,1352.18z"/>
<path class="st20" d="M3966.32,1352.18l-1.54,4.19l-1.54-4.19C3964.15,1352.85,3965.39,1352.85,3966.32,1352.18z"/>
<rect x="3949.57" y="1292.92" class="st13" width="30.46" height="22.14"/>
<rect x="3949.57" y="1292.92" class="st14" width="30.46" height="22.14"/>
<rect x="2562.44" y="1286.32" class="st13" width="30.46" height="22.14"/>
<rect x="2562.44" y="1286.32" class="st14" width="30.46" height="22.14"/>
<path class="st9" d="M3925.51,664.21c0-14.35-11.64-25.99-26-25.99c-14.35,0-25.99,11.64-25.99,25.99c0,14.36,11.64,26,25.99,26
	C3913.87,690.21,3925.51,678.57,3925.51,664.21z"/>
<path class="st9" d="M3925.51,690.78c0-14.36-11.64-26-26-26c-14.35,0-25.99,11.64-25.99,26c0,14.36,11.64,26,25.99,26
	C3913.87,716.78,3925.51,705.14,3925.51,690.78z"/>
<path class="st9" d="M3925.51,664.21c0-14.35-11.64-25.99-26-25.99c-14.35,0-25.99,11.64-25.99,25.99c0,14.36,11.64,26,25.99,26
	C3913.87,690.21,3925.51,678.57,3925.51,664.21z"/>
<path class="st9" d="M3925.51,690.78c0-14.36-11.64-26-26-26c-14.35,0-25.99,11.64-25.99,26c0,14.36,11.64,26,25.99,26
	C3913.87,716.78,3925.51,705.14,3925.51,690.78z"/>
<line class="st10" x1="3899.51" y1="1267.45" x2="3899.51" y2="717.35"/>
<line class="st10" x1="4159.29" y1="682.72" x2="4159.29" y2="460.61"/>
<rect x="4144.06" y="483.98" class="st13" width="30.46" height="22.14"/>
<rect x="4144.06" y="483.98" class="st14" width="30.46" height="22.14"/>
<ellipse class="st3" cx="4228.77" cy="834.16" rx="28.52" ry="29.38"/>
<ellipse class="st11" cx="4228.77" cy="834.16" rx="28.52" ry="29.38"/>
<rect x="4220.15" y="818.17" class="st3" width="23.23" height="31.55"/>
<path d="M4229.72,834.45v-2.2l7.05-0.02v6.99c-1.08,0.97-2.2,1.71-3.35,2.2s-2.33,0.74-3.54,0.74c-1.63,0-3.11-0.4-4.45-1.19
	c-1.33-0.79-2.34-1.94-3.02-3.43c-0.68-1.5-1.02-3.17-1.02-5.02c0-1.84,0.33-3.54,1.01-5.13c0.68-1.59,1.65-2.77,2.92-3.54
	c1.27-0.77,2.74-1.15,4.39-1.15c1.21,0,2.29,0.22,3.26,0.66c0.98,0.44,1.74,1.05,2.29,1.84c0.55,0.79,0.97,1.81,1.26,3.08
	l-1.99,0.62c-0.24-0.96-0.56-1.72-0.93-2.26c-0.37-0.55-0.9-0.99-1.58-1.32c-0.69-0.33-1.46-0.49-2.3-0.49c-1,0-1.87,0.17-2.6,0.52
	c-0.74,0.34-1.33,0.8-1.78,1.36c-0.45,0.57-0.8,1.19-1.05,1.87c-0.42,1.16-0.63,2.42-0.63,3.78c0,1.68,0.25,3.08,0.76,4.21
	c0.51,1.13,1.25,1.97,2.23,2.52c0.98,0.55,2.01,0.82,3.11,0.82c0.95,0,1.88-0.21,2.79-0.62c0.91-0.42,1.59-0.86,2.06-1.33v-3.51
	H4229.72z"/>
<ellipse class="st3" cx="4228.77" cy="834.16" rx="28.52" ry="29.38"/>
<ellipse class="st18" cx="4228.77" cy="834.16" rx="28.52" ry="29.38"/>
<rect x="4220.15" y="818.17" class="st3" width="23.23" height="31.55"/>
<line class="st8" x1="4057.32" y1="684.49" x2="4264.46" y2="684.49"/>
<line class="st10" x1="4228.77" y1="686.22" x2="4228.77" y2="804.17"/>
<rect x="4213.54" y="745.88" class="st13" width="30.46" height="22.14"/>
<rect x="4213.54" y="745.88" class="st14" width="30.46" height="22.14"/>
<path class="st9" d="M4115.27,811.03c0-14.35-11.64-25.99-26-25.99c-14.36,0-26,11.64-26,25.99c0,14.36,11.64,26,26,26
	C4103.63,837.03,4115.27,825.39,4115.27,811.03z"/>
<path class="st9" d="M4115.27,837.6c0-14.36-11.64-26-26-26c-14.36,0-26,11.64-26,26c0,14.36,11.64,25.99,26,25.99
	C4103.63,863.59,4115.27,851.96,4115.27,837.6z"/>
<line class="st10" x1="4089.27" y1="686.68" x2="4089.27" y2="784.63"/>
<line class="st10" x1="4403.05" y1="636.86" x2="4403.05" y2="457.95"/>
<rect x="4387.83" y="483.98" class="st13" width="30.46" height="22.14"/>
<rect x="4388.28" y="483.98" class="st14" width="30.46" height="22.14"/>
<path class="st9" d="M4429.5,662.64c0-14.36-11.64-26-26-26s-25.99,11.64-25.99,26s11.63,26,25.99,26S4429.5,677,4429.5,662.64z"/>
<path class="st9" d="M4429.5,689.21c0-14.36-11.64-26-26-26s-25.99,11.64-25.99,26c0,14.35,11.63,25.99,25.99,25.99
	S4429.5,703.56,4429.5,689.21z"/>
<path class="st9" d="M4429.5,662.64c0-14.36-11.64-26-26-26s-25.99,11.64-25.99,26s11.63,26,25.99,26S4429.5,677,4429.5,662.64z"/>
<path class="st9" d="M4429.5,689.21c0-14.36-11.64-26-26-26s-25.99,11.64-25.99,26c0,14.35,11.63,25.99,25.99,25.99
	S4429.5,703.56,4429.5,689.21z"/>
<path class="st16" d="M4436.18,1091.86c0-18.05-14.63-32.68-32.68-32.68c-18.04,0-32.67,14.63-32.67,32.68
	c0,18.04,14.63,32.67,32.67,32.67C4421.55,1124.53,4436.18,1109.9,4436.18,1091.86z"/>
<path class="st17" d="M4436.18,1091.86c0-18.05-14.63-32.68-32.68-32.68c-18.04,0-32.67,14.63-32.67,32.68
	c0,18.04,14.63,32.67,32.67,32.67C4421.55,1124.53,4436.18,1109.9,4436.18,1091.86z"/>
<path class="st17" d="M4430.58,1091.86c0-14.96-12.13-27.08-27.08-27.08s-27.07,12.12-27.07,27.08c0,14.95,12.12,27.07,27.07,27.07
	S4430.58,1106.81,4430.58,1091.86z"/>
<path class="st16" d="M4427.33,1091.86c0-13.16-10.67-23.83-23.83-23.83s-23.82,10.67-23.82,23.83c0,13.15,10.66,23.82,23.82,23.82
	S4427.33,1105.01,4427.33,1091.86z"/>
<path class="st17" d="M4427.33,1091.86c0-13.16-10.67-23.83-23.83-23.83s-23.82,10.67-23.82,23.83c0,13.15,10.66,23.82,23.82,23.82
	S4427.33,1105.01,4427.33,1091.86z"/>
<line class="st8" x1="4248.37" y1="937.5" x2="4558.63" y2="937.5"/>
<g>
	<g>
		<line class="st10" x1="4524.73" y1="937.01" x2="4524.73" y2="1035.57"/>
		<g>
			<polygon points="4524.73,1047.67 4517.76,1030.62 4524.73,1034.67 4531.69,1030.62 			"/>
		</g>
	</g>
</g>
<rect x="4509.14" y="951.68" class="st13" width="30.46" height="22.14"/>
<rect x="4509.14" y="951.68" class="st14" width="30.46" height="22.14"/>
<line class="st10" x1="4403.5" y1="940.53" x2="4403.5" y2="1058.48"/>
<line class="st10" x1="4403.5" y1="934.7" x2="4403.5" y2="715.77"/>
<line class="st10" x1="4089.24" y1="944.72" x2="4089.24" y2="864.16"/>
<path class="st19" d="M4090.79,944.72l-1.54,4.19l-1.55-4.19C4088.61,945.39,4089.86,945.39,4090.79,944.72z"/>
<path class="st20" d="M4090.79,944.72l-1.54,4.19l-1.55-4.19C4088.61,945.39,4089.86,945.39,4090.79,944.72z"/>
<rect x="1087.32" y="904.39" class="st13" width="30.45" height="22.14"/>
<rect x="1087.32" y="904.39" class="st14" width="30.45" height="22.14"/>
<rect x="1810.25" y="588.78" class="st3" width="49.57" height="49.57"/>
<rect x="1810.25" y="588.78" class="st18" width="49.57" height="49.57"/>
<path class="st3" d="M1810.25,638.35l49.6-49.58L1810.25,638.35z"/>
<line class="st18" x1="1810.25" y1="638.35" x2="1859.85" y2="588.77"/>
<line class="st22" x1="1816.62" y1="603.69" x2="1832.39" y2="603.63"/>
<path class="st22" d="M1835.43,625.55c0,0,4.84,10,9.84,0c5-10.01,9.85,0.16,9.85,0.16"/>
<g>
	<text transform="matrix(1 0 0 1 2080.5005 105.5837)" class="st0 st1">Grid</text>
</g>
<text transform="matrix(1 0 0 1 2313.2205 191.846)"><tspan x="0" y="0" class="st0 st1">Bu</tspan><tspan x="28.85" y="0" class="st0 st1 st25">s</tspan><tspan x="45.24" y="0" class="st0 st1">1</tspan></text>
<g>
	<text transform="matrix(1 0 0 1 1798.163 243.1077)"><tspan x="0" y="0" class="st0 st1">SE</tspan><tspan x="28.21" y="0" class="st0 st1">L</tspan><tspan x="42.48" y="0" class="st0 st1">751-1</tspan></text>
</g>
<g>
	<text transform="matrix(1 0 0 1 2082.6543 243.108)"><tspan x="0" y="0" class="st0 st1">SE</tspan><tspan x="28.21" y="0" class="st0 st1">L</tspan><tspan x="42.48" y="0" class="st0 st1">751-2</tspan></text>
</g>
<g>
	<text transform="matrix(1 0 0 1 2321.145 243.1078)"><tspan x="0" y="0" class="st0 st1">SE</tspan><tspan x="28.21" y="0" class="st0 st1">L</tspan><tspan x="42.48" y="0" class="st0 st1">751-3</tspan></text>
</g>
<text transform="matrix(1 0 0 1 884.9973 441.2218)"><tspan x="0" y="0" class="st0 st1">Bu</tspan><tspan x="28.85" y="0" class="st0 st1 st25">s</tspan><tspan x="45.24" y="0" class="st0 st1">101</tspan></text>
<text transform="matrix(1 0 0 1 2531.2549 442.6187)"><tspan x="0" y="0" class="st0 st1">Bu</tspan><tspan x="28.85" y="0" class="st0 st1 st25">s</tspan><tspan x="45.24" y="0" class="st0 st1">201</tspan></text>
<text transform="matrix(1 0 0 1 3614.5398 441.2216)"><tspan x="0" y="0" class="st0 st1">Bu</tspan><tspan x="28.85" y="0" class="st0 st1 st25">s</tspan><tspan x="45.24" y="0" class="st0 st1">301</tspan></text>
<g>
	<text transform="matrix(1 0 0 1 544.2302 494.2716)" class="st0 st1">CB1</text>
	<line class="st2" x1="537.41" y1="494.07" x2="544.23" y2="494.07"/>
	<text transform="matrix(1 0 0 1 509.7532 494.2716)" class="st0 st1">F1</text>
</g>
<g>
	<text transform="matrix(1 0 0 1 692.6163 494.2713)" class="st0 st1">CB2</text>
	<line class="st2" x1="685.8" y1="494.07" x2="692.62" y2="494.07"/>
	<text transform="matrix(1 0 0 1 658.1393 494.2713)" class="st0 st1">F1</text>
</g>
<g>
	<text transform="matrix(1 0 0 1 840.131 494.2713)" class="st0 st1">CB3</text>
	<line class="st2" x1="833.31" y1="494.07" x2="840.13" y2="494.07"/>
	<text transform="matrix(1 0 0 1 805.6539 494.2713)" class="st0 st1">F1</text>
</g>
<g>
	<text transform="matrix(1 0 0 1 1645.7435 502.8317)" class="st0 st1">CB1</text>
	<line class="st2" x1="1638.92" y1="502.63" x2="1645.74" y2="502.63"/>
	<text transform="matrix(1 0 0 1 1611.2665 502.8317)" class="st0 st1">F2</text>
</g>
<g>
	<text transform="matrix(1 0 0 1 2093.207 502.73)" class="st0 st1">CB2</text>
	<line class="st2" x1="2086.39" y1="502.53" x2="2093.21" y2="502.53"/>
	<text transform="matrix(1 0 0 1 2058.73 502.73)" class="st0 st1">F2</text>
</g>
<g>
	<text transform="matrix(1 0 0 1 2456.592 502.8316)" class="st0 st1">CB3</text>
	<line class="st2" x1="2449.77" y1="502.63" x2="2456.59" y2="502.63"/>
	<text transform="matrix(1 0 0 1 2422.115 502.8316)" class="st0 st1">F2</text>
</g>
<g>
	<text transform="matrix(1 0 0 1 3635.7856 502.3816)" class="st0 st1">CB1</text>
	<line class="st2" x1="3628.96" y1="502.18" x2="3635.79" y2="502.18"/>
	<text transform="matrix(1 0 0 1 3601.3086 502.3816)" class="st0 st1">F3</text>
</g>
<g>
	<text transform="matrix(1 0 0 1 3833.1719 502.3818)" class="st0 st1">CB2</text>
	<line class="st2" x1="3826.35" y1="502.18" x2="3833.17" y2="502.18"/>
	<text transform="matrix(1 0 0 1 3798.6948 502.3818)" class="st0 st1">F3</text>
</g>
<g>
	<text transform="matrix(1 0 0 1 4092.2749 502.3814)" class="st0 st1">CB3</text>
	<line class="st2" x1="4085.45" y1="502.18" x2="4092.27" y2="502.18"/>
	<text transform="matrix(1 0 0 1 4057.7979 502.3814)" class="st0 st1">F3</text>
</g>
<g>
	<text transform="matrix(1 0 0 1 4337.4419 502.3814)" class="st0 st1">CB4</text>
	<line class="st2" x1="4330.62" y1="502.18" x2="4337.44" y2="502.18"/>
	<text transform="matrix(1 0 0 1 4302.9648 502.3814)" class="st0 st1">F3</text>
</g>
<g>
	<g>
		<text transform="matrix(1 0 0 1 1794.8777 521.3448)"><tspan x="0" y="0" class="st0 st1 st25">3</tspan><tspan x="18.84" y="0" class="st0 st1">M</tspan><tspan x="39.91" y="0" class="st0 st1 st26">V</tspan><tspan x="54.51" y="0" class="st0 st1">A</tspan></text>
	</g>
	<g>
		<text transform="matrix(1 0 0 1 1810.2952 549.3448)" class="st0 st1">ESS</text>
	</g>
</g>
<text transform="matrix(1 0 0 1 258.6799 676.8815)"><tspan x="0" y="0" class="st0 st1">Bu</tspan><tspan x="28.85" y="0" class="st0 st1 st25">s</tspan><tspan x="45.24" y="0" class="st0 st1">102</tspan></text>
<text transform="matrix(1 0 0 1 1193.165 682.0704)"><tspan x="0" y="0" class="st0 st1">Bu</tspan><tspan x="28.85" y="0" class="st0 st1 st25">s</tspan><tspan x="45.24" y="0" class="st0 st1">103</tspan></text>
<text transform="matrix(1 0 0 1 869.2882 677.2778)"><tspan x="0" y="0" class="st0 st1">Bu</tspan><tspan x="28.85" y="0" class="st0 st1 st25">s</tspan><tspan x="45.24" y="0" class="st0 st1">105</tspan></text>
<text transform="matrix(1 0 0 1 1712.5999 658.4852)"><tspan x="0" y="0" class="st0 st1">Bu</tspan><tspan x="28.85" y="0" class="st0 st1 st25">s</tspan><tspan x="45.24" y="0" class="st0 st1">202</tspan></text>
<text transform="matrix(1 0 0 1 2976.7231 718.5757)"><tspan x="0" y="0" class="st0 st1">Bu</tspan><tspan x="28.85" y="0" class="st0 st1 st25">s</tspan><tspan x="45.24" y="0" class="st0 st1">208</tspan></text>
<text transform="matrix(1 0 0 1 3313.187 661.6401)"><tspan x="0" y="0" class="st0 st1">Bu</tspan><tspan x="28.85" y="0" class="st0 st1 st25">s</tspan><tspan x="45.24" y="0" class="st0 st1">302</tspan></text>
<text transform="matrix(1 0 0 1 4180.1924 671.2498)"><tspan x="0" y="0" class="st0 st1">Bu</tspan><tspan x="28.85" y="0" class="st0 st1 st25">s</tspan><tspan x="45.24" y="0" class="st0 st1">306</tspan></text>
<g>
	<text transform="matrix(1 0 0 1 3364.2749 1016.2108)"><tspan x="0" y="0" class="st0 st1">Bu</tspan><tspan x="28.85" y="0" class="st0 st1 st25">s</tspan><tspan x="45.24" y="0" class="st0 st1">303</tspan></text>
</g>
<g>
	<text transform="matrix(1 0 0 1 3667.0466 1069.9797)"><tspan x="0" y="0" class="st0 st1">Bu</tspan><tspan x="28.85" y="0" class="st0 st1 st25">s</tspan><tspan x="45.24" y="0" class="st0 st1">304</tspan></text>
</g>
<g>
	<text transform="matrix(1 0 0 1 3931.3442 1257.9604)"><tspan x="0" y="0" class="st0 st1">Bu</tspan><tspan x="28.85" y="0" class="st0 st1 st25">s</tspan><tspan x="45.24" y="0" class="st0 st1">305</tspan></text>
</g>
<g>
	<text transform="matrix(1 0 0 1 4476.6426 923.3192)"><tspan x="0" y="0" class="st0 st1">Bu</tspan><tspan x="28.85" y="0" class="st0 st1 st25">s</tspan><tspan x="45.24" y="0" class="st0 st1">307</tspan></text>
</g>
<g>
	<text transform="matrix(1 0 0 1 3286.8467 725.2367)" class="st0 st1">CB5</text>
	<line class="st2" x1="3280.03" y1="725.04" x2="3286.85" y2="725.04"/>
	<text transform="matrix(1 0 0 1 3252.3696 725.2367)" class="st0 st1">F3</text>
</g>
<g>
	<text transform="matrix(1 0 0 1 3564.9775 725.733)" class="st0 st1">CB6</text>
	<line class="st2" x1="3558.16" y1="725.53" x2="3564.98" y2="725.53"/>
	<text transform="matrix(1 0 0 1 3530.5005 725.733)" class="st0 st1">F3</text>
</g>
<g>
	<text transform="matrix(1 0 0 1 3631.6985 1124.63)" class="st0 st1">CB8</text>
	<line class="st2" x1="3624.88" y1="1124.43" x2="3631.7" y2="1124.43"/>
	<text transform="matrix(1 0 0 1 3597.2214 1124.63)" class="st0 st1">F3</text>
</g>
<g>
	<text transform="matrix(1 0 0 1 4456.9858 969.9706)" class="st0 st1">CB9</text>
	<line class="st2" x1="4450.16" y1="969.77" x2="4456.99" y2="969.77"/>
	<text transform="matrix(1 0 0 1 4422.5088 969.9706)" class="st0 st1">F3</text>
</g>
<g>
	<text transform="matrix(1 0 0 1 4156.1636 765.9758)" class="st0 st1">GCB</text>
	<line class="st2" x1="4149.34" y1="765.78" x2="4156.16" y2="765.78"/>
	<text transform="matrix(1 0 0 1 4121.6865 765.9758)" class="st0 st1">F3</text>
</g>
<g>
	<text transform="matrix(1 0 0 1 3896.7585 1312.005)" class="st0 st1">CB7</text>
	<line class="st2" x1="3889.94" y1="1311.81" x2="3896.76" y2="1311.81"/>
	<text transform="matrix(1 0 0 1 3862.2815 1312.005)" class="st0 st1">F3</text>
</g>
<g>
	<g>
		<text transform="matrix(1 0 0 1 3794.0249 671.813)" class="st0 st27">T303</text>
	</g>
	<g>
		<text transform="matrix(1 0 0 1 3774.8088 691.9892)"><tspan x="0" y="0" class="st0 st27">100</tspan><tspan x="28.39" y="0" class="st0 st27 st28">0</tspan><tspan x="44.09" y="0" class="st0 st27">k</tspan><tspan x="54.09" y="0" class="st0 st27 st26">V</tspan><tspan x="66.28" y="0" class="st0 st27">A</tspan></text>
	</g>
	<g>
		<text transform="matrix(1 0 0 1 3761.5642 712.1652)"><tspan x="0" y="0" class="st0 st27">13.8/0.4</tspan><tspan x="67.07" y="0" class="st0 st27 st28">8</tspan><tspan x="82.77" y="0" class="st0 st27">kV</tspan></text>
	</g>
</g>
<g>
	<g>
		<text transform="matrix(1 0 0 1 3982.5503 809.3491)" class="st0 st27">T304</text>
	</g>
	<g>
		<text transform="matrix(1 0 0 1 3963.3342 829.5252)"><tspan x="0" y="0" class="st0 st27">100</tspan><tspan x="28.39" y="0" class="st0 st27 st28">0</tspan><tspan x="44.09" y="0" class="st0 st27">k</tspan><tspan x="54.09" y="0" class="st0 st27 st26">V</tspan><tspan x="66.28" y="0" class="st0 st27">A</tspan></text>
	</g>
	<g>
		<text transform="matrix(1 0 0 1 3950.0896 849.7012)"><tspan x="0" y="0" class="st0 st27">13.8/0.4</tspan><tspan x="67.07" y="0" class="st0 st27 st28">8</tspan><tspan x="82.77" y="0" class="st0 st27">kV</tspan></text>
	</g>
</g>
<g>
	<g>
		<text transform="matrix(1 0 0 1 4469.8052 662.0438)" class="st0 st27">T305</text>
	</g>
	<g>
		<text transform="matrix(1 0 0 1 4450.5889 682.2199)"><tspan x="0" y="0" class="st0 st27">250</tspan><tspan x="28.39" y="0" class="st0 st27 st28">0</tspan><tspan x="44.09" y="0" class="st0 st27">k</tspan><tspan x="54.09" y="0" class="st0 st27 st26">V</tspan><tspan x="66.28" y="0" class="st0 st27">A</tspan></text>
	</g>
	<g>
		<text transform="matrix(1 0 0 1 4437.3442 702.3959)"><tspan x="0" y="0" class="st0 st27">13.8/0.4</tspan><tspan x="67.07" y="0" class="st0 st27 st28">8</tspan><tspan x="82.77" y="0" class="st0 st27">kV</tspan></text>
	</g>
</g>
<g>
	<g>
		<text transform="matrix(1 0 0 1 3527.9902 806.8237)" class="st0 st27">T302</text>
	</g>
	<g>
		<text transform="matrix(1 0 0 1 3508.7739 826.9999)"><tspan x="0" y="0" class="st0 st27">200</tspan><tspan x="28.39" y="0" class="st0 st27 st28">0</tspan><tspan x="44.09" y="0" class="st0 st27">k</tspan><tspan x="54.09" y="0" class="st0 st27 st26">V</tspan><tspan x="66.28" y="0" class="st0 st27">A</tspan></text>
	</g>
	<g>
		<text transform="matrix(1 0 0 1 3495.5293 847.1758)"><tspan x="0" y="0" class="st0 st27">13.8/0.4</tspan><tspan x="67.07" y="0" class="st0 st27 st28">8</tspan><tspan x="82.77" y="0" class="st0 st27">kV</tspan></text>
	</g>
</g>
<g>
	<g>
		<text transform="matrix(1 0 0 1 3250.6709 807.2538)" class="st0 st27">T301</text>
	</g>
	<g>
		<text transform="matrix(1 0 0 1 3231.4546 827.4299)"><tspan x="0" y="0" class="st0 st27">200</tspan><tspan x="28.39" y="0" class="st0 st27 st28">0</tspan><tspan x="44.09" y="0" class="st0 st27">k</tspan><tspan x="54.09" y="0" class="st0 st27 st26">V</tspan><tspan x="66.28" y="0" class="st0 st27">A</tspan></text>
	</g>
	<g>
		<text transform="matrix(1 0 0 1 3218.21 847.6059)"><tspan x="0" y="0" class="st0 st27">13.8/0.4</tspan><tspan x="67.07" y="0" class="st0 st27 st28">8</tspan><tspan x="82.77" y="0" class="st0 st27">kV</tspan></text>
	</g>
</g>
<g>
	<g>
		<text transform="matrix(1 0 0 1 2905.7949 864.1042)" class="st0 st27">T209</text>
	</g>
	<g>
		<text transform="matrix(1 0 0 1 2886.5786 884.2803)"><tspan x="0" y="0" class="st0 st27">200</tspan><tspan x="28.39" y="0" class="st0 st27 st28">0</tspan><tspan x="44.09" y="0" class="st0 st27">k</tspan><tspan x="54.09" y="0" class="st0 st27 st26">V</tspan><tspan x="66.28" y="0" class="st0 st27">A</tspan></text>
	</g>
	<g>
		<text transform="matrix(1 0 0 1 2873.334 904.4563)"><tspan x="0" y="0" class="st0 st27">13.8/0.4</tspan><tspan x="67.07" y="0" class="st0 st27 st28">8</tspan><tspan x="82.77" y="0" class="st0 st27">kV</tspan></text>
	</g>
</g>
<g>
	<g>
		<text transform="matrix(1 0 0 1 4542.1738 1055.8472)" class="st0 st1">P6</text>
	</g>
	<g>
		<text transform="matrix(1 0 0 1 4507.2866 1083.2559)"><tspan x="0" y="0" class="st0 st1">100</tspan><tspan x="34.06" y="0" class="st0 st1 st25">0</tspan><tspan x="52.9" y="0" class="st0 st1">k</tspan><tspan x="64.89" y="0" class="st0 st1 st26">V</tspan><tspan x="79.52" y="0" class="st0 st1">A</tspan></text>
	</g>
</g>
<g>
	<g>
		<text transform="matrix(1 0 0 1 4109.7485 956.6629)" class="st0 st1">C6</text>
	</g>
	<g>
		<text transform="matrix(1 0 0 1 4081.0205 984.0717)"><tspan x="0" y="0" class="st0 st1">80</tspan><tspan x="22.7" y="0" class="st0 st1 st25">0</tspan><tspan x="41.54" y="0" class="st0 st1">k</tspan><tspan x="53.54" y="0" class="st0 st1 st26">V</tspan><tspan x="68.16" y="0" class="st0 st1">A</tspan></text>
	</g>
</g>
<g>
	<g>
		<text transform="matrix(1 0 0 1 3980.6848 1360.7284)" class="st0 st1">P4</text>
	</g>
	<g>
		<text transform="matrix(1 0 0 1 3951.9563 1388.1372)"><tspan x="0" y="0" class="st0 st1">60</tspan><tspan x="22.7" y="0" class="st0 st1 st25">0</tspan><tspan x="41.54" y="0" class="st0 st1">k</tspan><tspan x="53.54" y="0" class="st0 st1 st26">V</tspan><tspan x="68.16" y="0" class="st0 st1">A</tspan></text>
	</g>
</g>
<g>
	<g>
		<text transform="matrix(1 0 0 1 3713.0046 1189.4211)" class="st0 st1">L6</text>
	</g>
	<g>
		<text transform="matrix(1 0 0 1 3684.2761 1216.8298)"><tspan x="0" y="0" class="st0 st1">60</tspan><tspan x="22.7" y="0" class="st0 st1 st25">0</tspan><tspan x="41.54" y="0" class="st0 st1">k</tspan><tspan x="53.54" y="0" class="st0 st1 st26">V</tspan><tspan x="68.16" y="0" class="st0 st1">A</tspan></text>
	</g>
</g>
<g>
	<g>
		<text transform="matrix(1 0 0 1 4372.5376 1149.4749)"><tspan x="0" y="0" class="st0 st27">20</tspan><tspan x="18.93" y="0" class="st0 st27 st28">0</tspan><tspan x="34.63" y="0" class="st0 st27">HP</tspan></text>
	</g>
	<g>
		<text transform="matrix(1 0 0 1 4363.8906 1169.2504)" class="st0 st27">Induction</text>
	</g>
	<g>
		<text transform="matrix(1 0 0 1 4377.9409 1189.0251)" class="st0 st27">Motor</text>
	</g>
</g>
<g>
	<g>
		<text transform="matrix(1 0 0 1 3418.4739 1121.6582)" class="st0 st1">C5</text>
	</g>
	<g>
		<text transform="matrix(1 0 0 1 3383.5867 1149.0671)"><tspan x="0" y="0" class="st0 st1">100</tspan><tspan x="34.06" y="0" class="st0 st1 st25">0</tspan><tspan x="52.9" y="0" class="st0 st1">k</tspan><tspan x="64.89" y="0" class="st0 st1 st26">V</tspan><tspan x="79.52" y="0" class="st0 st1">A</tspan></text>
	</g>
</g>
<g>
	<g>
		<text transform="matrix(1 0 0 1 4184.1538 893.1137)"><tspan x="0" y="0" class="st0 st1">3.</tspan><tspan x="17.52" y="0" class="st0 st1 st25">5</tspan><tspan x="36.36" y="0" class="st0 st1">M</tspan><tspan x="57.43" y="0" class="st0 st1 st26">V</tspan><tspan x="72.06" y="0" class="st0 st1">A</tspan></text>
	</g>
	<g>
		<text transform="matrix(1 0 0 1 4204.1318 919.6647)" class="st0 st1">CHP</text>
	</g>
</g>
<g>
	<text transform="matrix(1 0 0 1 4219.772 841.4908)" class="st0 st1">G</text>
</g>
<g>
	<text transform="matrix(1 0 0 1 4392.9712 1099.1865)" class="st0 st1">M</text>
</g>
<g>
	<g>
		<text transform="matrix(1 0 0 1 2577.8057 864.465)" class="st0 st27">T208</text>
	</g>
	<g>
		<text transform="matrix(1 0 0 1 2558.5894 884.6411)"><tspan x="0" y="0" class="st0 st27">200</tspan><tspan x="28.39" y="0" class="st0 st27 st28">0</tspan><tspan x="44.09" y="0" class="st0 st27">k</tspan><tspan x="54.09" y="0" class="st0 st27 st26">V</tspan><tspan x="66.28" y="0" class="st0 st27">A</tspan></text>
	</g>
	<g>
		<text transform="matrix(1 0 0 1 2545.3447 904.8171)"><tspan x="0" y="0" class="st0 st27">13.8/0.4</tspan><tspan x="67.07" y="0" class="st0 st27 st28">8</tspan><tspan x="82.77" y="0" class="st0 st27">kV</tspan></text>
	</g>
</g>
<g>
	<g>
		<text transform="matrix(1 0 0 1 2962.8367 1128.7113)" class="st0 st1">P5</text>
	</g>
	<g>
		<text transform="matrix(1 0 0 1 2934.1082 1156.1201)"><tspan x="0" y="0" class="st0 st1">70</tspan><tspan x="22.7" y="0" class="st0 st1 st25">0</tspan><tspan x="41.54" y="0" class="st0 st1">k</tspan><tspan x="53.54" y="0" class="st0 st1 st26">V</tspan><tspan x="68.16" y="0" class="st0 st1">A</tspan></text>
	</g>
</g>
<g>
	<g>
		<text transform="matrix(1 0 0 1 2633.1887 1118.9255)" class="st0 st1">C4</text>
	</g>
	<g>
		<text transform="matrix(1 0 0 1 2598.3015 1146.3342)"><tspan x="0" y="0" class="st0 st1">100</tspan><tspan x="34.06" y="0" class="st0 st1 st25">0</tspan><tspan x="52.9" y="0" class="st0 st1">k</tspan><tspan x="64.89" y="0" class="st0 st1 st26">V</tspan><tspan x="79.52" y="0" class="st0 st1">A</tspan></text>
	</g>
</g>
<g>
	<text transform="matrix(1 0 0 1 2606.1333 781.4015)" class="st0 st1">CB14</text>
	<line class="st2" x1="2599.31" y1="781.2" x2="2606.13" y2="781.2"/>
	<text transform="matrix(1 0 0 1 2571.6562 781.4015)" class="st0 st1">F2</text>
</g>
<g>
	<text transform="matrix(1 0 0 1 2935.7766 781.5613)" class="st0 st1">CB15</text>
	<line class="st2" x1="2928.96" y1="781.36" x2="2935.78" y2="781.36"/>
	<text transform="matrix(1 0 0 1 2901.2996 781.5613)" class="st0 st1">F2</text>
</g>
<g>
	<text transform="matrix(1 0 0 1 2095.2549 1299.0898)" class="st0 st1">CB19</text>
	<line class="st2" x1="2088.43" y1="1298.89" x2="2095.26" y2="1298.89"/>
	<text transform="matrix(1 0 0 1 2060.7778 1299.0898)" class="st0 st1">F2</text>
</g>
<g>
	<text transform="matrix(1 0 0 1 3044.4031 1068.1119)" class="st0 st1">CB16</text>
	<line class="st2" x1="3037.58" y1="1067.91" x2="3044.4" y2="1067.91"/>
	<text transform="matrix(1 0 0 1 3009.926 1068.1119)" class="st0 st1">F2</text>
</g>
<g>
	<text transform="matrix(1 0 0 1 2868.3848 1068.2712)" class="st0 st1">CB18</text>
	<line class="st2" x1="2861.56" y1="1068.07" x2="2868.39" y2="1068.07"/>
	<text transform="matrix(1 0 0 1 2833.9077 1068.2712)" class="st0 st1">F2</text>
</g>
<text transform="matrix(1 0 0 1 2925.3757 1016.2105)"><tspan x="0" y="0" class="st0 st1">Bu</tspan><tspan x="28.85" y="0" class="st0 st1 st25">s</tspan><tspan x="45.24" y="0" class="st0 st1">210</tspan></text>
<text transform="matrix(1 0 0 1 2596.8953 1014.6069)"><tspan x="0" y="0" class="st0 st1">Bu</tspan><tspan x="28.85" y="0" class="st0 st1 st25">s</tspan><tspan x="45.24" y="0" class="st0 st1">209</tspan></text>
<g>
	<text transform="matrix(1 0 0 1 2231.7212 816.3672)" class="st0 st1">CB11</text>
	<line class="st2" x1="2224.9" y1="816.17" x2="2231.72" y2="816.17"/>
	<text transform="matrix(1 0 0 1 2197.2441 816.3672)" class="st0 st1">F2</text>
</g>
<g>
	<text transform="matrix(1 0 0 1 2382.3508 896.659)" class="st0 st1">CB10</text>
	<line class="st2" x1="2375.53" y1="896.46" x2="2382.35" y2="896.46"/>
	<text transform="matrix(1 0 0 1 2347.8738 896.659)" class="st0 st1">F2</text>
</g>
<g>
	<text transform="matrix(1 0 0 1 2139.2031 896.6597)" class="st0 st1">CB9</text>
	<line class="st2" x1="2132.38" y1="896.46" x2="2139.2" y2="896.46"/>
	<text transform="matrix(1 0 0 1 2104.7261 896.6597)" class="st0 st1">F2</text>
</g>
<text transform="matrix(1 0 0 1 2410.645 843.1761)"><tspan x="0" y="0" class="st0 st1">Bu</tspan><tspan x="28.85" y="0" class="st0 st1 st25">s</tspan><tspan x="45.24" y="0" class="st0 st1">203</tspan></text>
<g>
	<g>
		<text transform="matrix(1 0 0 1 2200.7051 711.5341)" class="st0 st27">T207</text>
	</g>
	<g>
		<text transform="matrix(1 0 0 1 2181.4888 731.7103)"><tspan x="0" y="0" class="st0 st27">500</tspan><tspan x="28.39" y="0" class="st0 st27 st28">0</tspan><tspan x="44.09" y="0" class="st0 st27">k</tspan><tspan x="54.09" y="0" class="st0 st27 st26">V</tspan><tspan x="66.28" y="0" class="st0 st27">A</tspan></text>
	</g>
	<g>
		<text transform="matrix(1 0 0 1 2168.2441 751.8862)"><tspan x="0" y="0" class="st0 st27">13.8/0.4</tspan><tspan x="67.07" y="0" class="st0 st27 st28">8</tspan><tspan x="82.77" y="0" class="st0 st27">kV</tspan></text>
	</g>
</g>
<g>
	<g>
		<text transform="matrix(1 0 0 1 2355.3904 990.0349)" class="st0 st27">T210</text>
	</g>
	<g>
		<text transform="matrix(1 0 0 1 2336.1743 1010.2111)"><tspan x="0" y="0" class="st0 st27">100</tspan><tspan x="28.39" y="0" class="st0 st27 st28">0</tspan><tspan x="44.09" y="0" class="st0 st27">k</tspan><tspan x="54.09" y="0" class="st0 st27 st26">V</tspan><tspan x="66.28" y="0" class="st0 st27">A</tspan></text>
	</g>
	<g>
		<text transform="matrix(1 0 0 1 2322.9297 1030.387)"><tspan x="0" y="0" class="st0 st27">13.8/0.4</tspan><tspan x="67.07" y="0" class="st0 st27 st28">8</tspan><tspan x="82.77" y="0" class="st0 st27">kV</tspan></text>
	</g>
</g>
<text transform="matrix(1 0 0 1 2375.5637 1251.1907)"><tspan x="0" y="0" class="st0 st1">Bu</tspan><tspan x="28.85" y="0" class="st0 st1 st25">s</tspan><tspan x="45.24" y="0" class="st0 st1">207</tspan></text>
<text transform="matrix(1 0 0 1 2218.5015 1247.1902)"><tspan x="0" y="0" class="st0 st1">Bu</tspan><tspan x="28.85" y="0" class="st0 st1 st25">s</tspan><tspan x="45.24" y="0" class="st0 st1">206</tspan></text>
<g>
	<g>
		<text transform="matrix(1 0 0 1 2101.8848 987.2437)" class="st0 st27">T206</text>
	</g>
	<g>
		<text transform="matrix(1 0 0 1 2082.6685 1007.4199)"><tspan x="0" y="0" class="st0 st27">250</tspan><tspan x="28.39" y="0" class="st0 st27 st28">0</tspan><tspan x="44.09" y="0" class="st0 st27">k</tspan><tspan x="54.09" y="0" class="st0 st27 st26">V</tspan><tspan x="66.28" y="0" class="st0 st27">A</tspan></text>
	</g>
	<g>
		<text transform="matrix(1 0 0 1 2069.4238 1027.5958)"><tspan x="0" y="0" class="st0 st27">13.8/0.4</tspan><tspan x="67.07" y="0" class="st0 st27 st28">8</tspan><tspan x="82.77" y="0" class="st0 st27">kV</tspan></text>
	</g>
</g>
<g>
	<text transform="matrix(1 0 0 1 2320.519 1304.5399)" class="st0 st1">CB12</text>
	<line class="st2" x1="2313.7" y1="1304.34" x2="2320.52" y2="1304.34"/>
	<text transform="matrix(1 0 0 1 2286.042 1304.5399)" class="st0 st1">F2</text>
</g>
<g>
	<text transform="matrix(1 0 0 1 2500.781 1304.5399)" class="st0 st1">CB13</text>
	<line class="st2" x1="2493.96" y1="1304.34" x2="2500.78" y2="1304.34"/>
	<text transform="matrix(1 0 0 1 2466.304 1304.5399)" class="st0 st1">F2</text>
</g>
<g>
	<g>
		<text transform="matrix(1 0 0 1 2410.4241 1358.7109)" class="st0 st1">L5</text>
	</g>
	<g>
		<text transform="matrix(1 0 0 1 2381.6956 1386.1196)"><tspan x="0" y="0" class="st0 st1">40</tspan><tspan x="22.7" y="0" class="st0 st1 st25">0</tspan><tspan x="41.54" y="0" class="st0 st1">k</tspan><tspan x="53.54" y="0" class="st0 st1 st26">V</tspan><tspan x="68.16" y="0" class="st0 st1">A</tspan></text>
	</g>
</g>
<g>
	<g>
		<text transform="matrix(1 0 0 1 2185.6877 1355.0205)" class="st0 st1">P2</text>
	</g>
	<g>
		<text transform="matrix(1 0 0 1 2150.8005 1382.4293)"><tspan x="0" y="0" class="st0 st1">100</tspan><tspan x="34.06" y="0" class="st0 st1 st25">0</tspan><tspan x="52.9" y="0" class="st0 st1">k</tspan><tspan x="64.89" y="0" class="st0 st1 st26">V</tspan><tspan x="79.52" y="0" class="st0 st1">A</tspan></text>
	</g>
</g>
<g>
	<g>
		<text transform="matrix(1 0 0 1 1961.4299 1378.0457)" class="st0 st1">P3</text>
	</g>
	<g>
		<text transform="matrix(1 0 0 1 1926.5427 1405.4545)"><tspan x="0" y="0" class="st0 st1">100</tspan><tspan x="34.06" y="0" class="st0 st1 st25">0</tspan><tspan x="52.9" y="0" class="st0 st1">k</tspan><tspan x="64.89" y="0" class="st0 st1 st26">V</tspan><tspan x="79.52" y="0" class="st0 st1">A</tspan></text>
	</g>
</g>
<g>
	<g>
		<text transform="matrix(1 0 0 1 1798.1632 1378.4421)" class="st0 st1">L4</text>
	</g>
	<g>
		<text transform="matrix(1 0 0 1 1769.4347 1405.8508)"><tspan x="0" y="0" class="st0 st1">50</tspan><tspan x="22.7" y="0" class="st0 st1 st25">0</tspan><tspan x="41.54" y="0" class="st0 st1">k</tspan><tspan x="53.54" y="0" class="st0 st1 st26">V</tspan><tspan x="68.16" y="0" class="st0 st1">A</tspan></text>
	</g>
</g>
<g>
	<g>
		<text transform="matrix(1 0 0 1 1897.3052 1272.8044)" class="st0 st27">T205</text>
	</g>
	<g>
		<text transform="matrix(1 0 0 1 1878.0891 1292.9806)"><tspan x="0" y="0" class="st0 st27">150</tspan><tspan x="28.39" y="0" class="st0 st27 st28">0</tspan><tspan x="44.09" y="0" class="st0 st27">k</tspan><tspan x="54.09" y="0" class="st0 st27 st26">V</tspan><tspan x="66.28" y="0" class="st0 st27">A</tspan></text>
	</g>
	<g>
		<text transform="matrix(1 0 0 1 1864.8445 1313.1565)"><tspan x="0" y="0" class="st0 st27">4.16/0.4</tspan><tspan x="67.07" y="0" class="st0 st27 st28">8</tspan><tspan x="82.77" y="0" class="st0 st27">kV</tspan></text>
	</g>
</g>
<g>
	<g>
		<text transform="matrix(1 0 0 1 1731.422 1271.8044)" class="st0 st27">T204</text>
	</g>
	<g>
		<text transform="matrix(1 0 0 1 1712.2059 1291.9806)"><tspan x="0" y="0" class="st0 st27">100</tspan><tspan x="28.39" y="0" class="st0 st27 st28">0</tspan><tspan x="44.09" y="0" class="st0 st27">k</tspan><tspan x="54.09" y="0" class="st0 st27 st26">V</tspan><tspan x="66.28" y="0" class="st0 st27">A</tspan></text>
	</g>
	<g>
		<text transform="matrix(1 0 0 1 1698.9613 1312.1566)"><tspan x="0" y="0" class="st0 st27">4.16/0.4</tspan><tspan x="67.07" y="0" class="st0 st27 st28">8</tspan><tspan x="82.77" y="0" class="st0 st27">kV</tspan></text>
	</g>
</g>
<g>
	<g>
		<text transform="matrix(1 0 0 1 1928.0204 997.0347)" class="st0 st27">T203</text>
	</g>
	<g>
		<text transform="matrix(1 0 0 1 1908.8041 1017.2109)"><tspan x="0" y="0" class="st0 st27">375</tspan><tspan x="28.39" y="0" class="st0 st27 st28">0</tspan><tspan x="44.09" y="0" class="st0 st27">k</tspan><tspan x="54.09" y="0" class="st0 st27 st26">V</tspan><tspan x="66.28" y="0" class="st0 st27">A</tspan></text>
	</g>
	<g>
		<text transform="matrix(1 0 0 1 1895.5594 1037.3868)" class="st0 st27">13.8/4.16 kV</text>
	</g>
</g>
<text transform="matrix(1 0 0 1 1967.441 1120.63)"><tspan x="0" y="0" class="st0 st1">Bu</tspan><tspan x="28.85" y="0" class="st0 st1 st25">s</tspan><tspan x="45.24" y="0" class="st0 st1">205</tspan></text>
<g>
	<text transform="matrix(1 0 0 1 1933.6299 1176.7317)" class="st0 st1">CB4</text>
	<line class="st2" x1="1926.81" y1="1176.53" x2="1933.63" y2="1176.53"/>
	<text transform="matrix(1 0 0 1 1899.1528 1176.7317)" class="st0 st1">F2</text>
</g>
<g>
	<text transform="matrix(1 0 0 1 1767.4507 1175.632)" class="st0 st1">CB8</text>
	<line class="st2" x1="1760.63" y1="1175.43" x2="1767.45" y2="1175.43"/>
	<text transform="matrix(1 0 0 1 1732.9736 1175.632)" class="st0 st1">F2</text>
</g>
<g>
	<g>
		<text transform="matrix(1 0 0 1 1558.4092 1198.635)" class="st0 st1">L3</text>
	</g>
	<g>
		<text transform="matrix(1 0 0 1 1529.6807 1226.0438)"><tspan x="0" y="0" class="st0 st1">30</tspan><tspan x="22.7" y="0" class="st0 st1 st25">0</tspan><tspan x="41.54" y="0" class="st0 st1">k</tspan><tspan x="53.54" y="0" class="st0 st1 st26">V</tspan><tspan x="68.16" y="0" class="st0 st1">A</tspan></text>
	</g>
</g>
<g>
	<text transform="matrix(1 0 0 1 1651.645 896.659)" class="st0 st1">CB6</text>
	<line class="st2" x1="1644.82" y1="896.46" x2="1651.64" y2="896.46"/>
	<text transform="matrix(1 0 0 1 1617.168 896.659)" class="st0 st1">F2</text>
</g>
<g>
	<text transform="matrix(1 0 0 1 1797.5173 896.6587)" class="st0 st1">CB7</text>
	<line class="st2" x1="1790.7" y1="896.46" x2="1797.52" y2="896.46"/>
	<text transform="matrix(1 0 0 1 1763.0403 896.6587)" class="st0 st1">F2</text>
</g>
<g>
	<g>
		<text transform="matrix(1 0 0 1 1483.0103 1054.214)" class="st0 st27">T202</text>
	</g>
	<g>
		<text transform="matrix(1 0 0 1 1468.5259 1074.3901)"><tspan x="0" y="0" class="st0 st27">50</tspan><tspan x="18.93" y="0" class="st0 st27 st28">0</tspan><tspan x="34.63" y="0" class="st0 st27">k</tspan><tspan x="44.63" y="0" class="st0 st27 st26">V</tspan><tspan x="56.82" y="0" class="st0 st27">A</tspan></text>
	</g>
	<g>
		<text transform="matrix(1 0 0 1 1445.8286 1094.5662)" class="st0 st27">13.8/0.208 kV</text>
	</g>
</g>
<text transform="matrix(1 0 0 1 1554.293 843.7012)"><tspan x="0" y="0" class="st0 st1">Bu</tspan><tspan x="28.85" y="0" class="st0 st1 st25">s</tspan><tspan x="45.24" y="0" class="st0 st1">204</tspan></text>
<g>
	<text transform="matrix(1 0 0 1 1797.7186 830.4947)" class="st0 st1">CB5</text>
	<line class="st2" x1="1790.9" y1="830.29" x2="1797.72" y2="830.29"/>
	<text transform="matrix(1 0 0 1 1763.2416 830.4947)" class="st0 st1">F2</text>
</g>
<g>
	<g>
		<text transform="matrix(1 0 0 1 1926.0406 731.9502)" class="st0 st27">T201</text>
	</g>
	<g>
		<text transform="matrix(1 0 0 1 1906.8243 752.1263)"><tspan x="0" y="0" class="st0 st27">250</tspan><tspan x="28.39" y="0" class="st0 st27 st28">0</tspan><tspan x="44.09" y="0" class="st0 st27">k</tspan><tspan x="54.09" y="0" class="st0 st27 st26">V</tspan><tspan x="66.28" y="0" class="st0 st27">A</tspan></text>
	</g>
	<g>
		<text transform="matrix(1 0 0 1 1893.5797 772.3023)"><tspan x="0" y="0" class="st0 st27">13.8/0.4</tspan><tspan x="67.07" y="0" class="st0 st27 st28">8</tspan><tspan x="82.77" y="0" class="st0 st27">kV</tspan></text>
	</g>
</g>
<g>
	<g>
		<text transform="matrix(1 0 0 1 1725.4048 749.5037)" class="st0 st1">C3</text>
	</g>
	<g>
		<text transform="matrix(1 0 0 1 1690.5176 776.9125)"><tspan x="0" y="0" class="st0 st1">100</tspan><tspan x="34.06" y="0" class="st0 st1 st25">0</tspan><tspan x="52.9" y="0" class="st0 st1">k</tspan><tspan x="64.89" y="0" class="st0 st1 st26">V</tspan><tspan x="79.52" y="0" class="st0 st1">A</tspan></text>
	</g>
</g>
<g>
	<g>
		<text transform="matrix(1 0 0 1 1204.8657 906.9952)"><tspan x="0" y="0" class="st0 st1 st25">4</tspan><tspan x="18.84" y="0" class="st0 st1">M</tspan><tspan x="39.91" y="0" class="st0 st1 st26">V</tspan><tspan x="54.53" y="0" class="st0 st1">A</tspan></text>
	</g>
	<g>
		<text transform="matrix(1 0 0 1 1211.2859 933.5462)" class="st0 st1">Diesel</text>
	</g>
</g>
<g>
	<text transform="matrix(1 0 0 1 1231.722 853.9763)" class="st0 st1">G</text>
</g>
<g>
	<text transform="matrix(1 0 0 1 1166.8401 777.0123)" class="st0 st1">GCB</text>
	<line class="st2" x1="1160.02" y1="776.81" x2="1166.84" y2="776.81"/>
	<text transform="matrix(1 0 0 1 1132.363 777.0123)" class="st0 st1">F1</text>
</g>
<g>
	<text transform="matrix(1 0 0 1 1024.2637 753.9265)" class="st0 st1">CB12</text>
	<line class="st2" x1="1017.44" y1="753.73" x2="1024.26" y2="753.73"/>
	<text transform="matrix(1 0 0 1 989.7866 753.9265)" class="st0 st1">F1</text>
</g>
<g>
	<text transform="matrix(1 0 0 1 1023.4644 923.4191)" class="st0 st1">CB13</text>
	<line class="st2" x1="1016.64" y1="923.22" x2="1023.46" y2="923.22"/>
	<text transform="matrix(1 0 0 1 988.9874 923.4191)" class="st0 st1">F1</text>
</g>
<g>
	<g>
		<text transform="matrix(1 0 0 1 996.2812 823.43)" class="st0 st27">T107</text>
	</g>
	<g>
		<text transform="matrix(1 0 0 1 977.0649 843.6061)"><tspan x="0" y="0" class="st0 st27">250</tspan><tspan x="28.39" y="0" class="st0 st27 st28">0</tspan><tspan x="44.09" y="0" class="st0 st27">k</tspan><tspan x="54.09" y="0" class="st0 st27 st26">V</tspan><tspan x="66.28" y="0" class="st0 st27">A</tspan></text>
	</g>
	<g>
		<text transform="matrix(1 0 0 1 963.8203 863.7821)"><tspan x="0" y="0" class="st0 st27">13.8/0.4</tspan><tspan x="67.07" y="0" class="st0 st27 st28">8</tspan><tspan x="82.77" y="0" class="st0 st27">kV</tspan></text>
	</g>
</g>
<g>
	<g>
		<text transform="matrix(1 0 0 1 824.2014 825.9217)" class="st0 st27">T106</text>
	</g>
	<g>
		<text transform="matrix(1 0 0 1 809.717 846.0978)"><tspan x="0" y="0" class="st0 st27">50</tspan><tspan x="18.93" y="0" class="st0 st27 st28">0</tspan><tspan x="34.63" y="0" class="st0 st27">k</tspan><tspan x="44.63" y="0" class="st0 st27 st26">V</tspan><tspan x="56.82" y="0" class="st0 st27">A</tspan></text>
	</g>
	<g>
		<text transform="matrix(1 0 0 1 787.0198 866.2738)" class="st0 st27">13.8/0.208 kV</text>
	</g>
</g>
<g>
	<text transform="matrix(1 0 0 1 852.3033 728.0026)" class="st0 st1">CB8</text>
	<line class="st2" x1="845.48" y1="727.8" x2="852.3" y2="727.8"/>
	<text transform="matrix(1 0 0 1 817.8262 728.0026)" class="st0 st1">F1</text>
</g>
<g>
	<text transform="matrix(1 0 0 1 691.8611 728.0023)" class="st0 st1">CB7</text>
	<line class="st2" x1="685.04" y1="727.8" x2="691.86" y2="727.8"/>
	<text transform="matrix(1 0 0 1 657.384 728.0023)" class="st0 st1">F1</text>
</g>
<g>
	<text transform="matrix(1 0 0 1 527.256 728.0022)" class="st0 st1">CB6</text>
	<line class="st2" x1="520.43" y1="727.8" x2="527.26" y2="727.8"/>
	<text transform="matrix(1 0 0 1 492.7789 728.0022)" class="st0 st1">F1</text>
</g>
<g>
	<g>
		<text transform="matrix(1 0 0 1 770.8193 963.9156)" class="st0 st1">L2</text>
	</g>
	<g>
		<text transform="matrix(1 0 0 1 742.0908 991.3244)"><tspan x="0" y="0" class="st0 st1">25</tspan><tspan x="22.7" y="0" class="st0 st1 st25">0</tspan><tspan x="41.54" y="0" class="st0 st1">k</tspan><tspan x="53.54" y="0" class="st0 st1 st26">V</tspan><tspan x="68.16" y="0" class="st0 st1">A</tspan></text>
	</g>
</g>
<g>
	<g>
		<text transform="matrix(1 0 0 1 490.6364 878.6409)" class="st0 st27">T103</text>
	</g>
	<g>
		<text transform="matrix(1 0 0 1 471.42 898.817)"><tspan x="0" y="0" class="st0 st27">375</tspan><tspan x="28.39" y="0" class="st0 st27 st28">0</tspan><tspan x="44.09" y="0" class="st0 st27">k</tspan><tspan x="54.09" y="0" class="st0 st27 st26">V</tspan><tspan x="66.28" y="0" class="st0 st27">A</tspan></text>
	</g>
	<g>
		<text transform="matrix(1 0 0 1 458.1754 918.993)" class="st0 st27">13.8/4.16 kV</text>
	</g>
</g>
<text transform="matrix(1 0 0 1 831.1311 1064.1118)"><tspan x="0" y="0" class="st0 st1">Bu</tspan><tspan x="28.85" y="0" class="st0 st1 st25">s</tspan><tspan x="45.24" y="0" class="st0 st1">106</tspan></text>
<text transform="matrix(1 0 0 1 612.8997 1378.4293)"><tspan x="0" y="0" class="st0 st1">Bu</tspan><tspan x="28.85" y="0" class="st0 st1 st25">s</tspan><tspan x="45.24" y="0" class="st0 st1">107</tspan></text>
<g>
	<text transform="matrix(1 0 0 1 800.0555 1111.078)" class="st0 st1">CB11</text>
	<line class="st2" x1="793.23" y1="1110.88" x2="800.06" y2="1110.88"/>
	<text transform="matrix(1 0 0 1 765.5784 1111.078)" class="st0 st1">F1</text>
</g>
<g>
	<text transform="matrix(1 0 0 1 516.2181 1111.0775)" class="st0 st1">CB10</text>
	<line class="st2" x1="509.4" y1="1110.88" x2="516.22" y2="1110.88"/>
	<text transform="matrix(1 0 0 1 481.7411 1111.0775)" class="st0 st1">F1</text>
</g>
<g>
	<g>
		<text transform="matrix(1 0 0 1 780.9504 1183.7537)" class="st0 st27">T105</text>
	</g>
	<g>
		<text transform="matrix(1 0 0 1 761.7343 1203.9299)"><tspan x="0" y="0" class="st0 st27">200</tspan><tspan x="28.39" y="0" class="st0 st27 st28">0</tspan><tspan x="44.09" y="0" class="st0 st27">k</tspan><tspan x="54.09" y="0" class="st0 st27 st26">V</tspan><tspan x="66.28" y="0" class="st0 st27">A</tspan></text>
	</g>
	<g>
		<text transform="matrix(1 0 0 1 748.4897 1224.1058)"><tspan x="0" y="0" class="st0 st27">4.16/0.4</tspan><tspan x="67.07" y="0" class="st0 st27 st28">8</tspan><tspan x="82.77" y="0" class="st0 st27">kV</tspan></text>
	</g>
</g>
<g>
	<g>
		<text transform="matrix(1 0 0 1 730.936 1308.879)" class="st0 st1">C21</text>
	</g>
	<g>
		<text transform="matrix(1 0 0 1 707.8842 1336.2878)"><tspan x="0" y="0" class="st0 st1">50</tspan><tspan x="22.7" y="0" class="st0 st1 st25">0</tspan><tspan x="41.54" y="0" class="st0 st1">k</tspan><tspan x="53.54" y="0" class="st0 st1 st26">V</tspan><tspan x="68.16" y="0" class="st0 st1">A</tspan></text>
	</g>
</g>
<g>
	<g>
		<text transform="matrix(1 0 0 1 674.8276 1511.5759)" class="st0 st1">P1</text>
	</g>
	<g>
		<text transform="matrix(1 0 0 1 639.9404 1538.9847)"><tspan x="0" y="0" class="st0 st1">100</tspan><tspan x="34.06" y="0" class="st0 st1 st25">0</tspan><tspan x="52.9" y="0" class="st0 st1">k</tspan><tspan x="64.89" y="0" class="st0 st1 st26">V</tspan><tspan x="79.52" y="0" class="st0 st1">A</tspan></text>
	</g>
</g>
<g>
	<text transform="matrix(1 0 0 1 582.2984 1422.3153)" class="st0 st1">CB14</text>
	<line class="st2" x1="575.48" y1="1422.12" x2="582.3" y2="1422.12"/>
	<text transform="matrix(1 0 0 1 547.8214 1422.3153)" class="st0 st1">F1</text>
</g>
<g>
	<g>
		<text transform="matrix(1 0 0 1 506.0277 1601.4642)"><tspan x="0" y="0" class="st0 st27">20</tspan><tspan x="18.93" y="0" class="st0 st27 st28">0</tspan><tspan x="34.63" y="0" class="st0 st27">HP</tspan></text>
	</g>
	<g>
		<text transform="matrix(1 0 0 1 497.3808 1621.2397)" class="st0 st27">Induction</text>
	</g>
	<g>
		<text transform="matrix(1 0 0 1 511.4311 1641.0144)" class="st0 st27">Motor</text>
	</g>
</g>
<g>
	<text transform="matrix(1 0 0 1 526.4557 1551.4961)" class="st0 st1">M</text>
</g>
<g>
	<g>
		<text transform="matrix(1 0 0 1 489.5912 1233.4768)" class="st0 st27">T104</text>
	</g>
	<g>
		<text transform="matrix(1 0 0 1 470.3752 1253.6531)"><tspan x="0" y="0" class="st0 st27">200</tspan><tspan x="28.39" y="0" class="st0 st27 st28">0</tspan><tspan x="44.09" y="0" class="st0 st27">k</tspan><tspan x="54.09" y="0" class="st0 st27 st26">V</tspan><tspan x="66.28" y="0" class="st0 st27">A</tspan></text>
	</g>
	<g>
		<text transform="matrix(1 0 0 1 457.1305 1273.829)"><tspan x="0" y="0" class="st0 st27">4.16/0.4</tspan><tspan x="67.07" y="0" class="st0 st27 st28">8</tspan><tspan x="82.77" y="0" class="st0 st27">kV</tspan></text>
	</g>
</g>
<g>
	<g>
		<text transform="matrix(1 0 0 1 369.7961 1098.2207)" class="st0 st1">C11</text>
	</g>
	<g>
		<text transform="matrix(1 0 0 1 346.7443 1125.6296)"><tspan x="0" y="0" class="st0 st1">20</tspan><tspan x="22.7" y="0" class="st0 st1 st25">0</tspan><tspan x="41.54" y="0" class="st0 st1">k</tspan><tspan x="53.54" y="0" class="st0 st1 st26">V</tspan><tspan x="68.16" y="0" class="st0 st1">A</tspan></text>
	</g>
</g>
<g>
	<g>
		<text transform="matrix(1 0 0 1 372.9604 822.9999)" class="st0 st27">T102</text>
	</g>
	<g>
		<text transform="matrix(1 0 0 1 353.7441 843.176)"><tspan x="0" y="0" class="st0 st27">250</tspan><tspan x="28.39" y="0" class="st0 st27 st28">0</tspan><tspan x="44.09" y="0" class="st0 st27">k</tspan><tspan x="54.09" y="0" class="st0 st27 st26">V</tspan><tspan x="66.28" y="0" class="st0 st27">A</tspan></text>
	</g>
	<g>
		<text transform="matrix(1 0 0 1 340.4995 863.352)"><tspan x="0" y="0" class="st0 st27">13.8/0.4</tspan><tspan x="67.07" y="0" class="st0 st27 st28">8</tspan><tspan x="82.77" y="0" class="st0 st27">kV</tspan></text>
	</g>
</g>
<g>
	<text transform="matrix(1 0 0 1 202.4233 1054.8201)" class="st0 st1">CB9</text>
	<line class="st2" x1="195.6" y1="1054.62" x2="202.42" y2="1054.62"/>
	<text transform="matrix(1 0 0 1 167.9462 1054.8201)" class="st0 st1">F1</text>
</g>
<text transform="matrix(1 0 0 1 327.3281 997.6027)"><tspan x="0" y="0" class="st0 st1">Bu</tspan><tspan x="28.85" y="0" class="st0 st1 st25">s</tspan><tspan x="45.24" y="0" class="st0 st1">104</tspan></text>
<g>
	<g>
		<text transform="matrix(1 0 0 1 119.923 969.2794)" class="st0 st1">L1</text>
	</g>
	<g>
		<text transform="matrix(1 0 0 1 85.0358 996.6882)"><tspan x="0" y="0" class="st0 st1">300</tspan><tspan x="34.06" y="0" class="st0 st1 st25">0</tspan><tspan x="52.9" y="0" class="st0 st1">k</tspan><tspan x="64.89" y="0" class="st0 st1 st26">V</tspan><tspan x="79.52" y="0" class="st0 st1">A</tspan></text>
	</g>
</g>
<g>
	<g>
		<text transform="matrix(1 0 0 1 45.2251 821.9214)" class="st0 st27">T101</text>
	</g>
	<g>
		<text transform="matrix(1 0 0 1 30.7408 842.0975)"><tspan x="0" y="0" class="st0 st27">50</tspan><tspan x="18.93" y="0" class="st0 st27 st28">0</tspan><tspan x="34.63" y="0" class="st0 st27">k</tspan><tspan x="44.63" y="0" class="st0 st27 st26">V</tspan><tspan x="56.82" y="0" class="st0 st27">A</tspan></text>
	</g>
	<g>
		<text transform="matrix(1 0 0 1 12.7752 862.2735)" class="st0 st27">13.8/0.48 kV</text>
	</g>
</g>
<g>
	<text transform="matrix(1 0 0 1 88.1178 725.5377)" class="st0 st1">CB4</text>
	<line class="st2" x1="81.3" y1="725.34" x2="88.12" y2="725.34"/>
	<text transform="matrix(1 0 0 1 53.6407 725.5377)" class="st0 st1">F1</text>
</g>
<g>
	<text transform="matrix(1 0 0 1 245.5484 725.5377)" class="st0 st1">CB5</text>
	<line class="st2" x1="238.73" y1="725.34" x2="245.55" y2="725.34"/>
	<text transform="matrix(1 0 0 1 211.0714 725.5377)" class="st0 st1">F1</text>
</g>
</svg>
