<?xml version="1.0" encoding="utf-8"?>
<!-- Generator: Adobe Illustrator 25.1.0, SVG Export Plug-In . SVG Version: 6.00 Build 0)  -->
<svg version="1.1" id="Layer_1" xmlns="http://www.w3.org/2000/svg" xmlns:xlink="http://www.w3.org/1999/xlink" x="0px" y="0px"
	 viewBox="0 0 617.87 222.27" style="enable-background:new 0 0 617.87 222.27;" xml:space="preserve">
<style type="text/css">
	.st0{font-family:'CMR17';}
	.st1{font-size:3.3358px;}
	.st2{fill:none;stroke:#000000;stroke-width:0.398;stroke-miterlimit:10;}
	.st3{fill-rule:evenodd;clip-rule:evenodd;fill:#FBD7BB;}
	.st4{fill:none;stroke:#FF7D7D;stroke-width:0.25;stroke-miterlimit:10;}
	.st5{fill:none;stroke:#000000;stroke-width:0.25;stroke-miterlimit:10;}
	.st6{fill:none;stroke:#000000;stroke-miterlimit:10;}
	.st7{fill:none;stroke:#280B0B;stroke-width:0.25;stroke-miterlimit:10;}
	.st8{fill-rule:evenodd;clip-rule:evenodd;fill:#FFFFFF;stroke:#000000;stroke-width:0.25;stroke-miterlimit:10;}
	.st9{fill-rule:evenodd;clip-rule:evenodd;fill:#BFBFBF;}
	.st10{fill:none;stroke:#280B0B;stroke-width:0.125;stroke-miterlimit:10;}
	.st11{fill-rule:evenodd;clip-rule:evenodd;fill:#FEE599;}
	.st12{fill:#FFFFFF;stroke:#FF7D7D;stroke-width:0.25;stroke-miterlimit:10;}
	.st13{letter-spacing:1;}
	.st14{font-size:2.7807px;}
</style>
<g>
	<text transform="matrix(1 0 0 1 358.4424 142.0873)" class="st0 st1">CB17</text>
	<line class="st2" x1="357.52" y1="142.06" x2="358.44" y2="142.06"/>
	<text transform="matrix(1 0 0 1 353.8027 142.0873)" class="st0 st1">F2</text>
</g>
<rect x="238.47" y="64.44" class="st3" width="12.36" height="9.26"/>
<polyline class="st4" points="121.84,91.13 121.84,129.04 204.24,129.04 204.24,113.6 "/>
<polyline class="st4" points="116.39,143.01 116.39,175.08 224.71,175.08 224.71,150.73 "/>
<path class="st4" d="M149.98,108.84c0-1.93-1.57-3.5-3.5-3.5c-1.93,0-3.5,1.57-3.5,3.5c0,1.93,1.57,3.5,3.5,3.5
	C148.41,112.34,149.98,110.78,149.98,108.84z"/>
<path class="st4" d="M149.98,112.42c0-1.93-1.57-3.5-3.5-3.5c-1.93,0-3.5,1.57-3.5,3.5c0,1.93,1.57,3.5,3.5,3.5
	C148.41,115.92,149.98,114.35,149.98,112.42z"/>
<line class="st4" x1="146.48" y1="92.11" x2="146.48" y2="105.29"/>
<path class="st4" d="M302.05,168.39v32.18 M301.97,200.46c1.02,0,1.96,0.49,2.47,1.28c0.51,0.79,0.51,1.77-0.01,2.56
	c-0.51,0.79-1.45,1.27-2.47,1.27 M302.05,205.47v15.99 M302.17,221.41H34.18 M34.31,134.31v87.07"/>
<path class="st4" d="M418.61,148.83v-12.28 M443.34,148.96v-12.28 M418.61,148.84h24.74"/>
<path class="st4" d="M370.16,161.12v-24.58 M479.06,161.21v-17.13 M370.06,161.13h109.11"/>
<path class="st4" d="M345.24,183.88v-15.75 M345.17,183.89h168.95 M514.1,169.15V184"/>
<path class="st4" d="M146.66,115.83l-0.08,10.89 M146.59,126.61c0.95,0,1.82,0.48,2.3,1.27c0.47,0.78,0.47,1.75-0.01,2.53
	c-0.48,0.78-1.36,1.26-2.3,1.26 M146.69,131.57v40.92 M146.57,172.4c0.95,0,1.82,0.48,2.3,1.26c0.47,0.78,0.47,1.75-0.01,2.53
	c-0.48,0.78-1.36,1.26-2.3,1.26 M146.66,177.31v25.97 M577.1,203.3H146.52 M576.98,203.42v-78.97"/>
<line class="st5" x1="275.32" y1="8.52" x2="275.34" y2="26.01"/>
<line class="st6" x1="317.65" y1="26" x2="230.33" y2="26.02"/>
<path class="st7" d="M252.62,96.56c0-1.93-1.57-3.5-3.5-3.5c-1.93,0-3.5,1.57-3.5,3.5c0,1.93,1.57,3.5,3.5,3.5
	C251.05,100.06,252.62,98.49,252.62,96.56z"/>
<path class="st7" d="M252.62,100.14c0-1.93-1.57-3.5-3.5-3.5c-1.93,0-3.5,1.57-3.5,3.5c0,1.93,1.57,3.5,3.5,3.5
	C251.05,103.64,252.62,102.07,252.62,100.14z"/>
<path class="st7" d="M252.62,96.56c0-1.93-1.57-3.5-3.5-3.5c-1.93,0-3.5,1.57-3.5,3.5c0,1.93,1.57,3.5,3.5,3.5
	C251.05,100.06,252.62,98.49,252.62,96.56z"/>
<path class="st7" d="M252.62,100.14c0-1.93-1.57-3.5-3.5-3.5c-1.93,0-3.5,1.57-3.5,3.5c0,1.93,1.57,3.5,3.5,3.5
	C251.05,103.64,252.62,102.07,252.62,100.14z"/>
<line class="st5" x1="307.67" y1="36.28" x2="307.67" y2="25.99"/>
<line class="st5" x1="249.26" y1="113.23" x2="249.26" y2="103.62"/>
<line class="st5" x1="275.33" y1="59.73" x2="275.33" y2="26.01"/>
<line class="st6" x1="221.99" y1="59.7" x2="350.3" y2="59.7"/>
<line class="st6" x1="484.17" y1="59.62" x2="598.13" y2="59.62"/>
<line class="st5" x1="307.54" y1="36.16" x2="537.23" y2="36.16"/>
<line class="st5" x1="537.1" y1="59.21" x2="537.1" y2="36.04"/>
<line class="st5" x1="249.12" y1="92.99" x2="249.12" y2="88.25"/>
<ellipse class="st7" cx="275.33" cy="4.55" rx="3.84" ry="3.95"/>
<path class="st5" d="M272.95,4.56c0,0,0.3-0.61,0.47-0.83c0.17-0.22,0.38-0.68,0.82-0.66c0.44,0.01,0.69,0.62,0.85,0.95
	c0.15,0.33,0.4,0.74,0.52,1.03c0.12,0.29,0.44,0.88,0.8,0.98c0.36,0.1,0.69-0.1,0.89-0.48c0.2-0.38,0.42-1.11,0.42-1.11"/>
<rect x="273.28" y="28.2" class="st8" width="4.1" height="2.98"/>
<rect x="273.28" y="28.2" class="st7" width="4.1" height="2.98"/>
<rect x="305.62" y="28.2" class="st8" width="4.1" height="2.98"/>
<rect x="305.62" y="28.2" class="st7" width="4.1" height="2.98"/>
<path class="st7" d="M22.61,108.76c0-1.93-1.57-3.5-3.5-3.5c-1.93,0-3.5,1.57-3.5,3.5c0,1.93,1.57,3.5,3.5,3.5
	C21.04,112.26,22.61,110.69,22.61,108.76z"/>
<path class="st7" d="M22.61,112.33c0-1.93-1.57-3.5-3.5-3.5c-1.93,0-3.5,1.57-3.5,3.5s1.57,3.5,3.5,3.5
	C21.04,115.83,22.61,114.27,22.61,112.33z"/>
<path class="st5" d="M81.68,33.61h155.7 M237.35,33.65v-7.63 M81.71,59.84v-26.3"/>
<line class="st6" x1="76.43" y1="59.84" x2="124.21" y2="59.84"/>
<path class="st9" d="M71.94,205.83c0-2.43-1.97-4.4-4.4-4.4c-2.43,0-4.4,1.97-4.4,4.4c0,2.43,1.97,4.4,4.4,4.4
	C69.98,210.22,71.94,208.25,71.94,205.83z"/>
<path class="st10" d="M71.94,205.83c0-2.43-1.97-4.4-4.4-4.4c-2.43,0-4.4,1.97-4.4,4.4c0,2.43,1.97,4.4,4.4,4.4
	C69.98,210.22,71.94,208.25,71.94,205.83z"/>
<path class="st10" d="M71.19,205.83c0-2.01-1.63-3.64-3.64-3.64s-3.64,1.63-3.64,3.64c0,2.01,1.63,3.64,3.64,3.64
	S71.19,207.84,71.19,205.83z"/>
<path class="st10" d="M70.75,205.83c0-1.77-1.43-3.21-3.21-3.21c-1.77,0-3.21,1.44-3.21,3.21c0,1.77,1.44,3.21,3.21,3.21
	C69.32,209.03,70.75,207.6,70.75,205.83z"/>
<path class="st3" d="M169.09,111.96c0-2.18-1.72-3.95-3.84-3.95s-3.84,1.77-3.84,3.95c0,2.18,1.72,3.96,3.84,3.96
	S169.09,114.14,169.09,111.96z"/>
<path class="st5" d="M169.09,111.96c0-2.18-1.72-3.95-3.84-3.95s-3.84,1.77-3.84,3.95c0,2.18,1.72,3.96,3.84,3.96
	S169.09,114.14,169.09,111.96z"/>
<line class="st6" x1="197.86" y1="113.47" x2="255.83" y2="113.47"/>
<g>
	<g>
		<line class="st5" x1="212.77" y1="156.32" x2="212.77" y2="147.17"/>
		<g>
			<polygon points="212.77,157.65 213.53,155.78 212.77,156.22 212.01,155.78 			"/>
		</g>
	</g>
</g>
<path class="st7" d="M216.27,140.09c0-1.93-1.57-3.5-3.5-3.5c-1.93,0-3.5,1.57-3.5,3.5s1.57,3.5,3.5,3.5
	C214.7,143.59,216.27,142.03,216.27,140.09z"/>
<path class="st7" d="M216.27,143.67c0-1.93-1.57-3.5-3.5-3.5c-1.93,0-3.5,1.57-3.5,3.5c0,1.93,1.57,3.5,3.5,3.5
	C214.7,147.17,216.27,145.6,216.27,143.67z"/>
<path class="st7" d="M216.27,140.09c0-1.93-1.57-3.5-3.5-3.5c-1.93,0-3.5,1.57-3.5,3.5s1.57,3.5,3.5,3.5
	C214.7,143.59,216.27,142.03,216.27,140.09z"/>
<path class="st7" d="M216.27,143.67c0-1.93-1.57-3.5-3.5-3.5c-1.93,0-3.5,1.57-3.5,3.5c0,1.93,1.57,3.5,3.5,3.5
	C214.7,147.17,216.27,145.6,216.27,143.67z"/>
<line class="st5" x1="212.77" y1="136.6" x2="212.77" y2="113.68"/>
<rect x="305.34" y="80.9" class="st11" width="6.67" height="6.67"/>
<rect x="305.34" y="80.9" class="st5" width="6.67" height="6.67"/>
<path class="st3" d="M305.34,87.57l6.68-6.67L305.34,87.57z"/>
<line class="st5" x1="305.34" y1="87.57" x2="312.01" y2="80.89"/>
<line class="st5" x1="306.2" y1="82.9" x2="308.32" y2="82.89"/>
<path class="st5" d="M308.73,85.84c0,0,0.65,1.35,1.32,0c0.67-1.35,1.33,0.02,1.33,0.02"/>
<polygon class="st11" points="304.81,77.32 311.89,77.32 313.8,67.5 306.65,67.51 "/>
<polygon class="st5" points="304.81,77.32 311.89,77.32 313.8,67.5 306.65,67.51 "/>
<line class="st5" x1="306.98" y1="77.28" x2="308.95" y2="67.56"/>
<line class="st5" x1="309.67" y1="77.29" x2="311.64" y2="67.58"/>
<line class="st5" x1="305.34" y1="74.11" x2="312.56" y2="74.11"/>
<line class="st5" x1="306" y1="70.83" x2="313.21" y2="70.83"/>
<line class="st5" x1="308.68" y1="80.9" x2="308.68" y2="77.25"/>
<rect x="210.7" y="115.88" class="st8" width="4.1" height="2.98"/>
<rect x="210.7" y="115.88" class="st7" width="4.1" height="2.98"/>
<line class="st6" x1="221.32" y1="150.83" x2="273.94" y2="150.83"/>
<line class="st5" x1="289.09" y1="113.15" x2="289.09" y2="59.92"/>
<rect x="287.04" y="63.21" class="st8" width="4.1" height="2.98"/>
<rect x="287.04" y="63.21" class="st7" width="4.1" height="2.98"/>
<line class="st5" x1="100.32" y1="90.72" x2="100.32" y2="59.84"/>
<path class="st7" d="M312.59,93.9c0-1.93-1.57-3.5-3.5-3.5c-1.93,0-3.5,1.57-3.5,3.5c0,1.93,1.57,3.5,3.5,3.5
	C311.02,97.4,312.59,95.83,312.59,93.9z"/>
<path class="st7" d="M312.59,97.47c0-1.93-1.57-3.5-3.5-3.5c-1.93,0-3.5,1.57-3.5,3.5c0,1.93,1.57,3.5,3.5,3.5
	C311.02,100.97,312.59,99.41,312.59,97.47z"/>
<path class="st7" d="M312.59,93.9c0-1.93-1.57-3.5-3.5-3.5c-1.93,0-3.5,1.57-3.5,3.5c0,1.93,1.57,3.5,3.5,3.5
	C311.02,97.4,312.59,95.83,312.59,93.9z"/>
<path class="st7" d="M312.59,97.47c0-1.93-1.57-3.5-3.5-3.5c-1.93,0-3.5,1.57-3.5,3.5c0,1.93,1.57,3.5,3.5,3.5
	C311.02,100.97,312.59,99.41,312.59,97.47z"/>
<line class="st5" x1="309.09" y1="113.12" x2="309.09" y2="101.05"/>
<line class="st6" x1="11.56" y1="90.83" x2="44.3" y2="90.83"/>
<polyline class="st5" points="80.13,60.15 80.13,77.67 28.06,77.67 28.06,90.83 "/>
<line class="st5" x1="19.11" y1="91.13" x2="19.11" y2="105.18"/>
<rect x="17.01" y="93.18" class="st8" width="4.1" height="2.98"/>
<rect x="17.01" y="93.18" class="st7" width="4.1" height="2.98"/>
<line class="st6" x1="31.68" y1="134.11" x2="49.23" y2="134.11"/>
<path class="st7" d="M43.59,108.89c0-1.93-1.57-3.5-3.5-3.5c-1.93,0-3.5,1.57-3.5,3.5c0,1.93,1.57,3.5,3.5,3.5
	C42.02,112.39,43.59,110.82,43.59,108.89z"/>
<path class="st7" d="M43.59,112.47c0-1.93-1.57-3.5-3.5-3.5c-1.93,0-3.5,1.57-3.5,3.5c0,1.93,1.57,3.5,3.5,3.5
	C42.02,115.96,43.59,114.4,43.59,112.47z"/>
<line class="st5" x1="40.09" y1="91.26" x2="40.09" y2="105.32"/>
<rect x="37.99" y="93.18" class="st8" width="4.1" height="2.98"/>
<rect x="37.99" y="93.18" class="st7" width="4.1" height="2.98"/>
<line class="st5" x1="40.24" y1="115.98" x2="40.24" y2="134.11"/>
<g>
	<g>
		<line class="st5" x1="46.5" y1="143.5" x2="46.5" y2="134.33"/>
		<g>
			<polygon points="46.5,144.83 47.26,142.96 46.5,143.41 45.73,142.96 			"/>
		</g>
	</g>
</g>
<g>
	<g>
		<line class="st5" x1="19.11" y1="125.09" x2="19.11" y2="115.91"/>
		<g>
			<polygon points="19.11,126.41 19.87,124.54 19.11,124.99 18.35,124.54 			"/>
		</g>
	</g>
</g>
<line class="st6" x1="74.02" y1="91.02" x2="126.35" y2="91.02"/>
<path class="st7" d="M81.82,116.36c0-1.93-1.57-3.5-3.5-3.5c-1.93,0-3.5,1.57-3.5,3.5s1.57,3.5,3.5,3.5
	C80.26,119.85,81.82,118.29,81.82,116.36z"/>
<path class="st7" d="M81.82,119.93c0-1.93-1.57-3.5-3.5-3.5c-1.93,0-3.5,1.57-3.5,3.5c0,1.93,1.57,3.5,3.5,3.5
	C80.26,123.43,81.82,121.86,81.82,119.93z"/>
<line class="st5" x1="78.33" y1="91.02" x2="78.33" y2="112.91"/>
<rect x="76.23" y="93.51" class="st8" width="4.1" height="2.98"/>
<rect x="76.23" y="93.51" class="st7" width="4.1" height="2.98"/>
<line class="st5" x1="78.32" y1="142.68" x2="78.32" y2="123.36"/>
<path class="st7" d="M103.68,109.19c0-1.93-1.57-3.5-3.5-3.5c-1.93,0-3.5,1.57-3.5,3.5c0,1.93,1.57,3.5,3.5,3.5
	C102.11,112.69,103.68,111.13,103.68,109.19z"/>
<path class="st7" d="M103.68,112.77c0-1.93-1.57-3.5-3.5-3.5c-1.93,0-3.5,1.57-3.5,3.5c0,1.93,1.57,3.5,3.5,3.5
	C102.11,116.27,103.68,114.7,103.68,112.77z"/>
<line class="st5" x1="100.18" y1="91.02" x2="100.18" y2="105.62"/>
<rect x="98.08" y="93.51" class="st8" width="4.1" height="2.98"/>
<rect x="98.08" y="93.51" class="st7" width="4.1" height="2.98"/>
<g>
	<g>
		<line class="st5" x1="100.18" y1="125.52" x2="100.18" y2="116.34"/>
		<g>
			<polygon points="100.18,126.84 100.94,124.98 100.18,125.42 99.42,124.98 			"/>
		</g>
	</g>
</g>
<line class="st6" x1="66.72" y1="142.9" x2="121.11" y2="142.9"/>
<path class="st7" d="M81.82,164.16c0-1.93-1.57-3.5-3.5-3.5c-1.93,0-3.5,1.57-3.5,3.5c0,1.93,1.57,3.5,3.5,3.5
	C80.26,167.66,81.82,166.09,81.82,164.16z"/>
<path class="st7" d="M81.82,167.74c0-1.93-1.57-3.5-3.5-3.5c-1.93,0-3.5,1.57-3.5,3.5c0,1.93,1.57,3.5,3.5,3.5
	C80.26,171.23,81.82,169.67,81.82,167.74z"/>
<line class="st5" x1="78.32" y1="143.26" x2="78.32" y2="160.68"/>
<rect x="76.23" y="145.07" class="st8" width="4.1" height="2.98"/>
<path class="st7" d="M98.6,157.3c0-1.93-1.57-3.5-3.5-3.5c-1.93,0-3.5,1.57-3.5,3.5c0,1.93,1.57,3.5,3.5,3.5
	C97.03,160.8,98.6,159.23,98.6,157.3z"/>
<path class="st7" d="M98.6,160.87c0-1.93-1.57-3.5-3.5-3.5c-1.93,0-3.5,1.57-3.5,3.5c0,1.93,1.57,3.5,3.5,3.5
	C97.03,164.37,98.6,162.81,98.6,160.87z"/>
<line class="st5" x1="95.1" y1="143.05" x2="95.1" y2="153.74"/>
<g>
	<g>
		<line class="st5" x1="95.1" y1="171.39" x2="95.1" y2="164.31"/>
		<g>
			<polygon points="95.1,172.71 95.86,170.85 95.1,171.29 94.34,170.85 			"/>
		</g>
	</g>
</g>
<line class="st6" x1="65.08" y1="185.16" x2="91.76" y2="185.16"/>
<line class="st5" x1="78.32" y1="171.2" x2="78.32" y2="184.97"/>
<g>
	<g>
		<line class="st5" x1="89.2" y1="185.09" x2="89.2" y2="198.22"/>
		<g>
			<polygon points="89.2,199.98 88.19,197.5 89.2,198.09 90.22,197.5 			"/>
		</g>
	</g>
</g>
<rect x="87.1" y="187.06" class="st8" width="4.1" height="2.98"/>
<rect x="87.1" y="187.06" class="st7" width="4.1" height="2.98"/>
<line class="st5" x1="67.55" y1="185.46" x2="67.55" y2="201.34"/>
<rect x="78.16" y="62.06" class="st8" width="4.1" height="2.98"/>
<rect x="78.16" y="62.06" class="st7" width="4.1" height="2.98"/>
<line class="st6" x1="142.18" y1="91.81" x2="170.06" y2="91.81"/>
<polyline class="st5" points="119.97,59.84 119.97,74.6 150.77,74.6 150.77,91.39 "/>
<line class="st5" x1="165.25" y1="92.05" x2="165.25" y2="107.92"/>
<rect x="163.21" y="100.07" class="st8" width="4.1" height="2.98"/>
<rect x="163.21" y="100.07" class="st7" width="4.1" height="2.98"/>
<rect x="98.19" y="62.06" class="st8" width="4.1" height="2.98"/>
<rect x="98.19" y="62.06" class="st7" width="4.1" height="2.98"/>
<rect x="118.07" y="62.06" class="st8" width="4.1" height="2.98"/>
<rect x="118.07" y="62.06" class="st7" width="4.1" height="2.98"/>
<polyline class="st5" points="228.76,59.89 228.76,74 204.24,74 204.24,113.38 "/>
<rect x="119.75" y="93.51" class="st12" width="4.1" height="2.98"/>
<line class="st5" x1="249.4" y1="150.44" x2="249.4" y2="139.46"/>
<path class="st7" d="M252.9,132.31c0-1.93-1.57-3.5-3.5-3.5c-1.93,0-3.5,1.57-3.5,3.5c0,1.93,1.57,3.5,3.5,3.5
	C251.34,135.81,252.9,134.24,252.9,132.31z"/>
<path class="st7" d="M252.9,135.89c0-1.93-1.57-3.5-3.5-3.5c-1.93,0-3.5,1.57-3.5,3.5c0,1.93,1.57,3.5,3.5,3.5
	C251.34,139.39,252.9,137.82,252.9,135.89z"/>
<path class="st7" d="M252.9,132.31c0-1.93-1.57-3.5-3.5-3.5c-1.93,0-3.5,1.57-3.5,3.5c0,1.93,1.57,3.5,3.5,3.5
	C251.34,135.81,252.9,134.24,252.9,132.31z"/>
<path class="st7" d="M252.9,135.89c0-1.93-1.57-3.5-3.5-3.5c-1.93,0-3.5,1.57-3.5,3.5c0,1.93,1.57,3.5,3.5,3.5
	C251.34,139.39,252.9,137.82,252.9,135.89z"/>
<line class="st5" x1="249.41" y1="128.8" x2="249.41" y2="113.44"/>
<rect x="247.33" y="115.88" class="st8" width="4.1" height="2.98"/>
<rect x="247.33" y="115.88" class="st7" width="4.1" height="2.98"/>
<g>
	<g>
		<line class="st5" x1="267.64" y1="181.11" x2="267.64" y2="176.54"/>
		<g>
			<polygon points="267.64,182.43 268.4,180.57 267.64,181.01 266.88,180.57 			"/>
		</g>
	</g>
</g>
<path class="st7" d="M271.14,169.47c0-1.93-1.57-3.5-3.5-3.5c-1.93,0-3.5,1.57-3.5,3.5c0,1.93,1.57,3.5,3.5,3.5
	C269.57,172.97,271.14,171.4,271.14,169.47z"/>
<path class="st7" d="M271.14,173.04c0-1.93-1.57-3.5-3.5-3.5c-1.93,0-3.5,1.57-3.5,3.5c0,1.93,1.57,3.5,3.5,3.5
	C269.57,176.54,271.14,174.98,271.14,173.04z"/>
<path class="st7" d="M271.14,169.47c0-1.93-1.57-3.5-3.5-3.5c-1.93,0-3.5,1.57-3.5,3.5c0,1.93,1.57,3.5,3.5,3.5
	C269.57,172.97,271.14,171.4,271.14,169.47z"/>
<path class="st7" d="M271.14,173.04c0-1.93-1.57-3.5-3.5-3.5c-1.93,0-3.5,1.57-3.5,3.5c0,1.93,1.57,3.5,3.5,3.5
	C269.57,176.54,271.14,174.98,271.14,173.04z"/>
<line class="st5" x1="267.64" y1="166.04" x2="267.64" y2="151.24"/>
<rect x="265.57" y="153.9" class="st8" width="4.1" height="2.98"/>
<rect x="265.57" y="153.9" class="st7" width="4.1" height="2.98"/>
<rect x="247.3" y="107.25" class="st8" width="4.1" height="2.98"/>
<rect x="247.3" y="107.25" class="st7" width="4.1" height="2.98"/>
<g>
	<g>
		<line class="st5" x1="236.06" y1="96.84" x2="236.06" y2="88.29"/>
		<g>
			<polygon points="236.06,98.17 236.83,96.3 236.06,96.74 235.3,96.3 			"/>
		</g>
	</g>
</g>
<rect x="238.47" y="64.44" class="st5" width="12.36" height="9.26"/>
<line class="st6" x1="232.27" y1="87.96" x2="255.3" y2="87.96"/>
<line class="st5" x1="245.23" y1="73.62" x2="245.23" y2="87.86"/>
<g>
	<g>
		<line class="st5" x1="245.25" y1="180.61" x2="245.25" y2="176.35"/>
		<g>
			<polygon points="245.25,181.93 246.01,180.07 245.25,180.51 244.48,180.07 			"/>
		</g>
	</g>
</g>
<path class="st7" d="M248.75,169.28c0-1.93-1.57-3.5-3.5-3.5c-1.93,0-3.5,1.57-3.5,3.5c0,1.93,1.57,3.5,3.5,3.5
	C247.18,172.78,248.75,171.21,248.75,169.28z"/>
<path class="st7" d="M248.75,172.86c0-1.93-1.57-3.5-3.5-3.5c-1.93,0-3.5,1.57-3.5,3.5c0,1.93,1.57,3.5,3.5,3.5
	C247.18,176.35,248.75,174.79,248.75,172.86z"/>
<path class="st7" d="M248.75,169.28c0-1.93-1.57-3.5-3.5-3.5c-1.93,0-3.5,1.57-3.5,3.5c0,1.93,1.57,3.5,3.5,3.5
	C247.18,172.78,248.75,171.21,248.75,169.28z"/>
<path class="st7" d="M248.75,172.86c0-1.93-1.57-3.5-3.5-3.5c-1.93,0-3.5,1.57-3.5,3.5c0,1.93,1.57,3.5,3.5,3.5
	C247.18,176.35,248.75,174.79,248.75,172.86z"/>
<line class="st5" x1="245.25" y1="165.72" x2="245.25" y2="151.05"/>
<rect x="243.17" y="153.71" class="st8" width="4.1" height="2.98"/>
<rect x="243.17" y="153.71" class="st7" width="4.1" height="2.98"/>
<rect x="226.56" y="63.21" class="st8" width="4.1" height="2.98"/>
<rect x="226.56" y="63.21" class="st7" width="4.1" height="2.98"/>
<line class="st6" x1="285.57" y1="113.38" x2="333.92" y2="113.38"/>
<line class="st5" x1="309.03" y1="90.35" x2="309.03" y2="87.55"/>
<line class="st6" x1="287.75" y1="168.39" x2="307.98" y2="168.39"/>
<path class="st7" d="M298.96,131.09c0-1.93-1.57-3.5-3.5-3.5c-1.93,0-3.5,1.57-3.5,3.5c0,1.93,1.57,3.5,3.5,3.5
	C297.4,134.59,298.96,133.02,298.96,131.09z"/>
<path class="st7" d="M298.96,134.67c0-1.93-1.57-3.5-3.5-3.5c-1.93,0-3.5,1.57-3.5,3.5s1.57,3.5,3.5,3.5
	C297.4,138.17,298.96,136.6,298.96,134.67z"/>
<path class="st7" d="M298.96,131.09c0-1.93-1.57-3.5-3.5-3.5c-1.93,0-3.5,1.57-3.5,3.5c0,1.93,1.57,3.5,3.5,3.5
	C297.4,134.59,298.96,133.02,298.96,131.09z"/>
<path class="st7" d="M298.96,134.67c0-1.93-1.57-3.5-3.5-3.5c-1.93,0-3.5,1.57-3.5,3.5s1.57,3.5,3.5,3.5
	C297.4,138.17,298.96,136.6,298.96,134.67z"/>
<line class="st5" x1="295.47" y1="113.24" x2="295.47" y2="127.52"/>
<rect x="293.36" y="115.88" class="st8" width="4.1" height="2.98"/>
<rect x="293.36" y="115.88" class="st7" width="4.1" height="2.98"/>
<path class="st7" d="M333.04,131.41c0-1.93-1.57-3.5-3.5-3.5c-1.93,0-3.5,1.57-3.5,3.5s1.57,3.5,3.5,3.5
	C331.47,134.9,333.04,133.34,333.04,131.41z"/>
<path class="st7" d="M333.04,134.98c0-1.93-1.57-3.5-3.5-3.5c-1.93,0-3.5,1.57-3.5,3.5c0,1.93,1.57,3.5,3.5,3.5
	C331.47,138.48,333.04,136.91,333.04,134.98z"/>
<path class="st7" d="M333.04,131.41c0-1.93-1.57-3.5-3.5-3.5c-1.93,0-3.5,1.57-3.5,3.5s1.57,3.5,3.5,3.5
	C331.47,134.9,333.04,133.34,333.04,131.41z"/>
<path class="st7" d="M333.04,134.98c0-1.93-1.57-3.5-3.5-3.5c-1.93,0-3.5,1.57-3.5,3.5c0,1.93,1.57,3.5,3.5,3.5
	C331.47,138.48,333.04,136.91,333.04,134.98z"/>
<line class="st5" x1="329.54" y1="113.55" x2="329.54" y2="127.83"/>
<rect x="327.44" y="115.88" class="st8" width="4.1" height="2.98"/>
<rect x="327.44" y="115.88" class="st7" width="4.1" height="2.98"/>
<line class="st6" x1="317.41" y1="168.39" x2="350.5" y2="168.39"/>
<line class="st5" x1="295.58" y1="138.15" x2="295.58" y2="168.39"/>
<line class="st5" x1="329.66" y1="138.49" x2="329.66" y2="167.98"/>
<g>
	<g>
		<line class="st5" x1="290.61" y1="177.31" x2="290.61" y2="168.39"/>
		<g>
			<polygon points="290.61,178.63 291.37,176.77 290.61,177.21 289.85,176.77 			"/>
		</g>
	</g>
</g>
<rect x="288.54" y="170.45" class="st8" width="4.1" height="2.98"/>
<rect x="288.54" y="170.45" class="st7" width="4.1" height="2.98"/>
<g>
	<g>
		<line class="st5" x1="320.94" y1="177.93" x2="320.94" y2="168.41"/>
		<g>
			<polygon points="320.94,179.25 321.71,177.39 320.94,177.83 320.18,177.39 			"/>
		</g>
	</g>
</g>
<rect x="318.87" y="171.07" class="st8" width="4.1" height="2.98"/>
<rect x="318.87" y="171.07" class="st7" width="4.1" height="2.98"/>
<rect x="114.31" y="145.07" class="st12" width="4.1" height="2.98"/>
<rect x="235.3" y="28.2" class="st8" width="4.1" height="2.98"/>
<rect x="235.3" y="28.2" class="st7" width="4.1" height="2.98"/>
<rect x="144.43" y="96.96" class="st12" width="4.1" height="2.98"/>
<rect x="307.03" y="105.25" class="st8" width="4.1" height="2.98"/>
<rect x="307.03" y="105.25" class="st7" width="4.1" height="2.98"/>
<polyline class="st5" points="338.04,59.7 338.04,73.82 362.56,73.82 362.56,96.44 "/>
<rect x="335.91" y="63.21" class="st8" width="4.1" height="2.98"/>
<rect x="335.91" y="63.21" class="st7" width="4.1" height="2.98"/>
<line class="st6" x1="347.46" y1="96.67" x2="410.02" y2="96.67"/>
<path class="st7" d="M362.94,114.45c0-1.93-1.57-3.5-3.5-3.5c-1.93,0-3.5,1.57-3.5,3.5c0,1.93,1.57,3.5,3.5,3.5
	C361.37,117.95,362.94,116.39,362.94,114.45z"/>
<path class="st7" d="M362.94,118.03c0-1.93-1.57-3.5-3.5-3.5c-1.93,0-3.5,1.57-3.5,3.5c0,1.93,1.57,3.5,3.5,3.5
	C361.37,121.53,362.94,119.96,362.94,118.03z"/>
<path class="st7" d="M362.94,114.45c0-1.93-1.57-3.5-3.5-3.5c-1.93,0-3.5,1.57-3.5,3.5c0,1.93,1.57,3.5,3.5,3.5
	C361.37,117.95,362.94,116.39,362.94,114.45z"/>
<path class="st7" d="M362.94,118.03c0-1.93-1.57-3.5-3.5-3.5c-1.93,0-3.5,1.57-3.5,3.5c0,1.93,1.57,3.5,3.5,3.5
	C361.37,121.53,362.94,119.96,362.94,118.03z"/>
<line class="st5" x1="359.44" y1="96.6" x2="359.44" y2="110.88"/>
<rect x="357.34" y="100.7" class="st8" width="4.1" height="2.98"/>
<rect x="357.34" y="100.7" class="st7" width="4.1" height="2.98"/>
<path class="st7" d="M407.17,114.47c0-1.93-1.57-3.5-3.5-3.5c-1.93,0-3.5,1.57-3.5,3.5c0,1.93,1.57,3.5,3.5,3.5
	C405.61,117.97,407.17,116.41,407.17,114.47z"/>
<path class="st7" d="M407.17,118.05c0-1.93-1.57-3.5-3.5-3.5c-1.93,0-3.5,1.57-3.5,3.5s1.57,3.5,3.5,3.5
	C405.61,121.55,407.17,119.98,407.17,118.05z"/>
<path class="st7" d="M407.17,114.47c0-1.93-1.57-3.5-3.5-3.5c-1.93,0-3.5,1.57-3.5,3.5c0,1.93,1.57,3.5,3.5,3.5
	C405.61,117.97,407.17,116.41,407.17,114.47z"/>
<path class="st7" d="M407.17,118.05c0-1.93-1.57-3.5-3.5-3.5c-1.93,0-3.5,1.57-3.5,3.5s1.57,3.5,3.5,3.5
	C405.61,121.55,407.17,119.98,407.17,118.05z"/>
<line class="st5" x1="403.67" y1="96.62" x2="403.67" y2="110.9"/>
<rect x="401.57" y="100.72" class="st8" width="4.1" height="2.98"/>
<rect x="401.57" y="100.72" class="st7" width="4.1" height="2.98"/>
<line class="st5" x1="359.55" y1="121.52" x2="359.55" y2="136.04"/>
<line class="st5" x1="403.79" y1="121.55" x2="403.79" y2="136.41"/>
<line class="st6" x1="347.31" y1="136.45" x2="371.8" y2="136.45"/>
<g>
	<g>
		<line class="st5" x1="348.79" y1="145.82" x2="348.79" y2="136.3"/>
		<g>
			<polygon points="348.79,147.14 349.55,145.28 348.79,145.72 348.03,145.28 			"/>
		</g>
	</g>
</g>
<line class="st6" x1="391.54" y1="136.82" x2="424.21" y2="136.82"/>
<g>
	<g>
		<line class="st5" x1="394.85" y1="146.7" x2="394.85" y2="137.18"/>
		<g>
			<polygon points="394.85,148.02 395.61,146.16 394.85,146.6 394.09,146.16 			"/>
		</g>
	</g>
</g>
<rect x="392.75" y="139.31" class="st8" width="4.1" height="2.98"/>
<rect x="392.75" y="139.31" class="st7" width="4.1" height="2.98"/>
<rect x="32.26" y="137.57" class="st12" width="4.1" height="2.98"/>
<polyline class="st5" points="496.43,59.62 496.43,73.73 471.91,73.73 471.69,89.2 "/>
<rect x="494.39" y="63.16" class="st8" width="4.1" height="2.98"/>
<rect x="494.39" y="63.15" class="st7" width="4.1" height="2.98"/>
<line class="st6" x1="443.53" y1="89.03" x2="491.88" y2="89.03"/>
<line class="st6" x1="439.98" y1="136.79" x2="460.21" y2="136.79"/>
<path class="st7" d="M453.48,106.74c0-1.93-1.57-3.5-3.5-3.5c-1.93,0-3.5,1.57-3.5,3.5c0,1.93,1.57,3.5,3.5,3.5
	C451.92,110.24,453.48,108.68,453.48,106.74z"/>
<path class="st7" d="M453.48,110.32c0-1.93-1.57-3.5-3.5-3.5c-1.93,0-3.5,1.57-3.5,3.5c0,1.93,1.57,3.5,3.5,3.5
	C451.92,113.82,453.48,112.25,453.48,110.32z"/>
<path class="st7" d="M453.48,106.74c0-1.93-1.57-3.5-3.5-3.5c-1.93,0-3.5,1.57-3.5,3.5c0,1.93,1.57,3.5,3.5,3.5
	C451.92,110.24,453.48,108.68,453.48,106.74z"/>
<path class="st7" d="M453.48,110.32c0-1.93-1.57-3.5-3.5-3.5c-1.93,0-3.5,1.57-3.5,3.5c0,1.93,1.57,3.5,3.5,3.5
	C451.92,113.82,453.48,112.25,453.48,110.32z"/>
<line class="st5" x1="449.98" y1="88.89" x2="449.98" y2="103.17"/>
<rect x="447.88" y="92.99" class="st8" width="4.1" height="2.98"/>
<rect x="447.88" y="92.99" class="st7" width="4.1" height="2.98"/>
<path class="st7" d="M490.86,106.88c0-1.93-1.57-3.5-3.5-3.5c-1.93,0-3.5,1.57-3.5,3.5c0,1.93,1.57,3.5,3.5,3.5
	C489.29,110.38,490.86,108.82,490.86,106.88z"/>
<path class="st7" d="M490.86,110.46c0-1.93-1.57-3.5-3.5-3.5c-1.93,0-3.5,1.57-3.5,3.5c0,1.93,1.57,3.5,3.5,3.5
	C489.29,113.96,490.86,112.39,490.86,110.46z"/>
<path class="st7" d="M490.86,106.88c0-1.93-1.57-3.5-3.5-3.5c-1.93,0-3.5,1.57-3.5,3.5c0,1.93,1.57,3.5,3.5,3.5
	C489.29,110.38,490.86,108.82,490.86,106.88z"/>
<path class="st7" d="M490.86,110.46c0-1.93-1.57-3.5-3.5-3.5c-1.93,0-3.5,1.57-3.5,3.5c0,1.93,1.57,3.5,3.5,3.5
	C489.29,113.96,490.86,112.39,490.86,110.46z"/>
<line class="st5" x1="487.36" y1="89.03" x2="487.36" y2="103.31"/>
<rect x="485.26" y="93.13" class="st8" width="4.1" height="2.98"/>
<rect x="485.26" y="93.13" class="st7" width="4.1" height="2.98"/>
<line class="st5" x1="450.1" y1="113.81" x2="450.1" y2="136.38"/>
<line class="st5" x1="487.47" y1="113.96" x2="487.47" y2="143.46"/>
<g>
	<g>
		<line class="st5" x1="456.19" y1="146.34" x2="456.19" y2="136.82"/>
		<g>
			<polygon points="456.19,147.66 456.95,145.8 456.19,146.24 455.43,145.8 			"/>
		</g>
	</g>
</g>
<line class="st6" x1="471.92" y1="143.87" x2="503.03" y2="143.87"/>
<g>
	<g>
		<line class="st5" x1="496.24" y1="153.76" x2="496.24" y2="144.25"/>
		<g>
			<polygon points="496.24,155.09 497,153.22 496.24,153.67 495.48,153.22 			"/>
		</g>
	</g>
</g>
<rect x="494.27" y="146.96" class="st8" width="4.1" height="2.98"/>
<rect x="494.27" y="146.96" class="st7" width="4.1" height="2.98"/>
<rect x="367.96" y="139.61" class="st12" width="4.1" height="2.98"/>
<rect x="416.46" y="139.28" class="st12" width="4.1" height="2.98"/>
<line class="st5" x1="523.01" y1="83.93" x2="523.01" y2="59.86"/>
<rect x="520.96" y="63.15" class="st8" width="4.1" height="2.98"/>
<rect x="520.96" y="63.15" class="st7" width="4.1" height="2.98"/>
<line class="st6" x1="507.45" y1="168.92" x2="538.57" y2="168.92"/>
<g>
	<g>
		<line class="st5" x1="531.85" y1="178.67" x2="531.85" y2="169.15"/>
		<g>
			<polygon points="531.85,179.99 532.61,178.12 531.85,178.57 531.09,178.12 			"/>
		</g>
	</g>
</g>
<rect x="529.8" y="172.01" class="st8" width="4.1" height="2.98"/>
<rect x="529.8" y="172.01" class="st7" width="4.1" height="2.98"/>
<rect x="343.13" y="171.13" class="st12" width="4.1" height="2.98"/>
<path class="st7" d="M526.57,87.4c0-1.93-1.57-3.5-3.5-3.5c-1.93,0-3.5,1.57-3.5,3.5c0,1.93,1.57,3.5,3.5,3.5
	C525,90.9,526.57,89.34,526.57,87.4z"/>
<path class="st7" d="M526.57,90.98c0-1.93-1.57-3.5-3.5-3.5c-1.93,0-3.5,1.57-3.5,3.5c0,1.93,1.57,3.5,3.5,3.5
	C525,94.48,526.57,92.91,526.57,90.98z"/>
<path class="st7" d="M526.57,87.4c0-1.93-1.57-3.5-3.5-3.5c-1.93,0-3.5,1.57-3.5,3.5c0,1.93,1.57,3.5,3.5,3.5
	C525,90.9,526.57,89.34,526.57,87.4z"/>
<path class="st7" d="M526.57,90.98c0-1.93-1.57-3.5-3.5-3.5c-1.93,0-3.5,1.57-3.5,3.5c0,1.93,1.57,3.5,3.5,3.5
	C525,94.48,526.57,92.91,526.57,90.98z"/>
<line class="st5" x1="523.07" y1="168.59" x2="523.07" y2="94.56"/>
<line class="st5" x1="558.03" y1="89.9" x2="558.03" y2="60"/>
<rect x="555.98" y="63.15" class="st8" width="4.1" height="2.98"/>
<rect x="555.98" y="63.15" class="st7" width="4.1" height="2.98"/>
<ellipse class="st3" cx="567.38" cy="110.28" rx="3.84" ry="3.95"/>
<ellipse class="st7" cx="567.38" cy="110.28" rx="3.84" ry="3.95"/>
<rect x="566.22" y="108.12" class="st3" width="3.13" height="4.25"/>
<path d="M567.51,110.31v-0.3l0.95,0v0.94c-0.15,0.13-0.3,0.23-0.45,0.3c-0.15,0.07-0.31,0.1-0.48,0.1c-0.22,0-0.42-0.05-0.6-0.16
	c-0.18-0.11-0.31-0.26-0.41-0.46c-0.09-0.2-0.14-0.43-0.14-0.68c0-0.25,0.04-0.48,0.14-0.69c0.09-0.21,0.22-0.37,0.39-0.48
	c0.17-0.1,0.37-0.15,0.59-0.15c0.16,0,0.31,0.03,0.44,0.09c0.13,0.06,0.23,0.14,0.31,0.25c0.07,0.11,0.13,0.24,0.17,0.41l-0.27,0.08
	c-0.03-0.13-0.08-0.23-0.13-0.3c-0.05-0.07-0.12-0.13-0.21-0.18c-0.09-0.04-0.2-0.07-0.31-0.07c-0.13,0-0.25,0.02-0.35,0.07
	c-0.1,0.05-0.18,0.11-0.24,0.18c-0.06,0.08-0.11,0.16-0.14,0.25c-0.06,0.16-0.08,0.33-0.08,0.51c0,0.23,0.03,0.41,0.1,0.57
	c0.07,0.15,0.17,0.27,0.3,0.34s0.27,0.11,0.42,0.11c0.13,0,0.25-0.03,0.38-0.08c0.12-0.06,0.21-0.12,0.28-0.18v-0.47H567.51z"/>
<ellipse class="st3" cx="567.38" cy="110.28" rx="3.84" ry="3.95"/>
<ellipse class="st5" cx="567.38" cy="110.28" rx="3.84" ry="3.95"/>
<rect x="566.22" y="108.12" class="st3" width="3.13" height="4.25"/>
<line class="st6" x1="544.31" y1="90.13" x2="572.18" y2="90.13"/>
<line class="st5" x1="567.38" y1="90.37" x2="567.38" y2="106.24"/>
<rect x="565.33" y="98.4" class="st8" width="4.1" height="2.98"/>
<rect x="565.33" y="98.4" class="st7" width="4.1" height="2.98"/>
<path class="st7" d="M552.1,107.16c0-1.93-1.57-3.5-3.5-3.5c-1.93,0-3.5,1.57-3.5,3.5c0,1.93,1.57,3.5,3.5,3.5
	C550.54,110.66,552.1,109.1,552.1,107.16z"/>
<path class="st7" d="M552.1,110.74c0-1.93-1.57-3.5-3.5-3.5c-1.93,0-3.5,1.57-3.5,3.5c0,1.93,1.57,3.5,3.5,3.5
	C550.54,114.24,552.1,112.67,552.1,110.74z"/>
<line class="st5" x1="548.6" y1="90.43" x2="548.6" y2="103.61"/>
<line class="st5" x1="590.83" y1="83.72" x2="590.83" y2="59.65"/>
<rect x="588.78" y="63.15" class="st8" width="4.1" height="2.98"/>
<rect x="588.84" y="63.15" class="st7" width="4.1" height="2.98"/>
<path class="st7" d="M594.39,87.19c0-1.93-1.57-3.5-3.5-3.5c-1.93,0-3.5,1.57-3.5,3.5s1.57,3.5,3.5,3.5
	C592.83,90.69,594.39,89.13,594.39,87.19z"/>
<path class="st7" d="M594.39,90.77c0-1.93-1.57-3.5-3.5-3.5c-1.93,0-3.5,1.57-3.5,3.5c0,1.93,1.57,3.5,3.5,3.5
	C592.83,94.27,594.39,92.7,594.39,90.77z"/>
<path class="st7" d="M594.39,87.19c0-1.93-1.57-3.5-3.5-3.5c-1.93,0-3.5,1.57-3.5,3.5s1.57,3.5,3.5,3.5
	C592.83,90.69,594.39,89.13,594.39,87.19z"/>
<path class="st7" d="M594.39,90.77c0-1.93-1.57-3.5-3.5-3.5c-1.93,0-3.5,1.57-3.5,3.5c0,1.93,1.57,3.5,3.5,3.5
	C592.83,94.27,594.39,92.7,594.39,90.77z"/>
<path class="st9" d="M595.29,144.96c0-2.43-1.97-4.4-4.4-4.4c-2.43,0-4.4,1.97-4.4,4.4c0,2.43,1.97,4.4,4.4,4.4
	C593.32,149.35,595.29,147.38,595.29,144.96z"/>
<path class="st10" d="M595.29,144.96c0-2.43-1.97-4.4-4.4-4.4c-2.43,0-4.4,1.97-4.4,4.4c0,2.43,1.97,4.4,4.4,4.4
	C593.32,149.35,595.29,147.38,595.29,144.96z"/>
<path class="st10" d="M594.54,144.96c0-2.01-1.63-3.64-3.64-3.64s-3.64,1.63-3.64,3.64c0,2.01,1.63,3.64,3.64,3.64
	S594.54,146.97,594.54,144.96z"/>
<path class="st9" d="M594.1,144.96c0-1.77-1.44-3.21-3.21-3.21s-3.21,1.44-3.21,3.21c0,1.77,1.43,3.21,3.21,3.21
	S594.1,146.73,594.1,144.96z"/>
<path class="st10" d="M594.1,144.96c0-1.77-1.44-3.21-3.21-3.21s-3.21,1.44-3.21,3.21c0,1.77,1.43,3.21,3.21,3.21
	S594.1,146.73,594.1,144.96z"/>
<line class="st6" x1="570.02" y1="124.18" x2="611.77" y2="124.18"/>
<g>
	<g>
		<line class="st5" x1="607.21" y1="124.12" x2="607.21" y2="137.24"/>
		<g>
			<polygon points="607.21,139.01 606.19,136.52 607.21,137.11 608.22,136.52 			"/>
		</g>
	</g>
</g>
<rect x="605.11" y="126.09" class="st8" width="4.1" height="2.98"/>
<rect x="605.11" y="126.09" class="st7" width="4.1" height="2.98"/>
<line class="st5" x1="590.89" y1="124.59" x2="590.89" y2="140.46"/>
<line class="st5" x1="590.89" y1="123.81" x2="590.89" y2="94.34"/>
<g>
	<g>
		<line class="st5" x1="548.6" y1="123.83" x2="548.6" y2="114.31"/>
		<g>
			<polygon points="548.6,125.15 549.36,123.29 548.6,123.73 547.84,123.29 			"/>
		</g>
	</g>
</g>
<rect x="144.61" y="119.73" class="st12" width="4.1" height="2.98"/>
<rect x="241.9" y="77.25" class="st3" width="6.67" height="6.67"/>
<rect x="241.9" y="77.25" class="st5" width="6.67" height="6.67"/>
<path class="st3" d="M241.9,83.92l6.68-6.67L241.9,83.92z"/>
<line class="st5" x1="241.9" y1="83.92" x2="248.57" y2="77.25"/>
<line class="st5" x1="242.76" y1="79.26" x2="244.88" y2="79.25"/>
<path class="st5" d="M245.29,82.2c0,0,0.65,1.35,1.32,0c0.67-1.35,1.33,0.02,1.33,0.02"/>
<g>
	<text transform="matrix(1 0 0 1 278.2695 12.225)" class="st0 st1">Grid</text>
</g>
<text transform="matrix(1 0 0 1 309.5884 23.8344)"><tspan x="0" y="0" class="st0 st1">Bu</tspan><tspan x="3.88" y="0" class="st0 st1 st13">s</tspan><tspan x="6.09" y="0" class="st0 st1">1</tspan></text>
<g>
	<text transform="matrix(1 0 0 1 240.2734 30.7328)" class="st0 st1">SEL751-1</text>
</g>
<g>
	<text transform="matrix(1 0 0 1 278.5596 30.7328)" class="st0 st1">SEL751-2</text>
</g>
<g>
	<text transform="matrix(1 0 0 1 310.6548 30.7328)" class="st0 st1">SEL751-3</text>
</g>
<text transform="matrix(1 0 0 1 117.3818 57.3949)"><tspan x="0" y="0" class="st0 st1">Bu</tspan><tspan x="3.88" y="0" class="st0 st1 st13">s</tspan><tspan x="6.09" y="0" class="st0 st1">101</tspan></text>
<text transform="matrix(1 0 0 1 338.9307 57.5824)"><tspan x="0" y="0" class="st0 st1">Bu</tspan><tspan x="3.88" y="0" class="st0 st1 st13">s</tspan><tspan x="6.09" y="0" class="st0 st1">201</tspan></text>
<text transform="matrix(1 0 0 1 484.7168 57.3949)"><tspan x="0" y="0" class="st0 st1">Bu</tspan><tspan x="3.88" y="0" class="st0 st1 st13">s</tspan><tspan x="6.09" y="0" class="st0 st1">301</tspan></text>
<g>
	<text transform="matrix(1 0 0 1 70.522 64.5341)" class="st0 st1">CB1</text>
	<line class="st2" x1="69.6" y1="64.51" x2="70.52" y2="64.51"/>
	<text transform="matrix(1 0 0 1 65.8818 64.5341)" class="st0 st1">F1</text>
</g>
<g>
	<text transform="matrix(1 0 0 1 90.4912 64.5341)" class="st0 st1">CB2</text>
	<line class="st2" x1="89.57" y1="64.51" x2="90.49" y2="64.51"/>
	<text transform="matrix(1 0 0 1 85.8516 64.5341)" class="st0 st1">F1</text>
</g>
<g>
	<text transform="matrix(1 0 0 1 110.3438 64.5341)" class="st0 st1">CB3</text>
	<line class="st2" x1="109.43" y1="64.51" x2="110.34" y2="64.51"/>
	<text transform="matrix(1 0 0 1 105.7041 64.5341)" class="st0 st1">F1</text>
</g>
<g>
	<text transform="matrix(1 0 0 1 218.6265 65.686)" class="st0 st1">CB1</text>
	<line class="st2" x1="217.71" y1="65.66" x2="218.63" y2="65.66"/>
	<text transform="matrix(1 0 0 1 213.9863 65.686)" class="st0 st1">F2</text>
</g>
<g>
	<text transform="matrix(1 0 0 1 278.9795 65.6723)" class="st0 st1">CB2</text>
	<line class="st2" x1="278.06" y1="65.65" x2="278.98" y2="65.65"/>
	<text transform="matrix(1 0 0 1 274.3398 65.6723)" class="st0 st1">F2</text>
</g>
<g>
	<text transform="matrix(1 0 0 1 327.8828 65.686)" class="st0 st1">CB3</text>
	<line class="st2" x1="326.97" y1="65.66" x2="327.88" y2="65.66"/>
	<text transform="matrix(1 0 0 1 323.2432 65.686)" class="st0 st1">F2</text>
</g>
<g>
	<text transform="matrix(1 0 0 1 486.5762 65.6254)" class="st0 st1">CB1</text>
	<line class="st2" x1="485.66" y1="65.6" x2="486.58" y2="65.6"/>
	<text transform="matrix(1 0 0 1 481.9365 65.6254)" class="st0 st1">F3</text>
</g>
<g>
	<text transform="matrix(1 0 0 1 513.1396 65.6254)" class="st0 st1">CB2</text>
	<line class="st2" x1="512.22" y1="65.6" x2="513.14" y2="65.6"/>
	<text transform="matrix(1 0 0 1 508.5 65.6254)" class="st0 st1">F3</text>
</g>
<g>
	<text transform="matrix(1 0 0 1 548.0088 65.6254)" class="st0 st1">CB3</text>
	<line class="st2" x1="547.09" y1="65.6" x2="548.01" y2="65.6"/>
	<text transform="matrix(1 0 0 1 543.3701 65.6254)" class="st0 st1">F3</text>
</g>
<g>
	<text transform="matrix(1 0 0 1 581.0029 65.6254)" class="st0 st1">CB4</text>
	<line class="st2" x1="580.09" y1="65.6" x2="581" y2="65.6"/>
	<text transform="matrix(1 0 0 1 576.3633 65.6254)" class="st0 st1">F3</text>
</g>
<g>
	<g>
		<text transform="matrix(1 0 0 1 239.8311 68.1777)"><tspan x="0" y="0" class="st0 st1 st13">3</tspan><tspan x="2.54" y="0" class="st0 st1">M</tspan><tspan x="5.37" y="0" class="st0 st1">V</tspan><tspan x="7.34" y="0" class="st0 st1">A</tspan></text>
	</g>
	<g>
		<text transform="matrix(1 0 0 1 241.9062 71.9457)" class="st0 st1">ESS</text>
	</g>
</g>
<text transform="matrix(1 0 0 1 33.0933 89.1093)"><tspan x="0" y="0" class="st0 st1">Bu</tspan><tspan x="3.88" y="0" class="st0 st1 st13">s</tspan><tspan x="6.09" y="0" class="st0 st1">102</tspan></text>
<text transform="matrix(1 0 0 1 158.854 89.808)"><tspan x="0" y="0" class="st0 st1">Bu</tspan><tspan x="3.88" y="0" class="st0 st1 st13">s</tspan><tspan x="6.09" y="0" class="st0 st1">103</tspan></text>
<text transform="matrix(1 0 0 1 115.2676 89.1625)"><tspan x="0" y="0" class="st0 st1">Bu</tspan><tspan x="3.88" y="0" class="st0 st1 st13">s</tspan><tspan x="6.09" y="0" class="st0 st1">105</tspan></text>
<text transform="matrix(1 0 0 1 228.7583 86.6337)"><tspan x="0" y="0" class="st0 st1">Bu</tspan><tspan x="3.88" y="0" class="st0 st1 st13">s</tspan><tspan x="6.09" y="0" class="st0 st1">202</tspan></text>
<text transform="matrix(1 0 0 1 398.8809 94.7206)"><tspan x="0" y="0" class="st0 st1">Bu</tspan><tspan x="3.88" y="0" class="st0 st1 st13">s</tspan><tspan x="6.09" y="0" class="st0 st1">208</tspan></text>
<text transform="matrix(1 0 0 1 444.1611 87.058)"><tspan x="0" y="0" class="st0 st1">Bu</tspan><tspan x="3.88" y="0" class="st0 st1 st13">s</tspan><tspan x="6.09" y="0" class="st0 st1">302</tspan></text>
<text transform="matrix(1 0 0 1 560.8408 88.351)"><tspan x="0" y="0" class="st0 st1">Bu</tspan><tspan x="3.88" y="0" class="st0 st1 st13">s</tspan><tspan x="6.09" y="0" class="st0 st1">306</tspan></text>
<g>
	<text transform="matrix(1 0 0 1 451.0361 134.7758)"><tspan x="0" y="0" class="st0 st1">Bu</tspan><tspan x="3.88" y="0" class="st0 st1 st13">s</tspan><tspan x="6.09" y="0" class="st0 st1">303</tspan></text>
</g>
<g>
	<text transform="matrix(1 0 0 1 491.7832 142.0121)"><tspan x="0" y="0" class="st0 st1">Bu</tspan><tspan x="3.88" y="0" class="st0 st1 st13">s</tspan><tspan x="6.09" y="0" class="st0 st1">304</tspan></text>
</g>
<g>
	<text transform="matrix(1 0 0 1 527.3516 167.31)"><tspan x="0" y="0" class="st0 st1">Bu</tspan><tspan x="3.88" y="0" class="st0 st1 st13">s</tspan><tspan x="6.09" y="0" class="st0 st1">305</tspan></text>
</g>
<g>
	<text transform="matrix(1 0 0 1 600.7363 122.2748)"><tspan x="0" y="0" class="st0 st1">Bu</tspan><tspan x="3.88" y="0" class="st0 st1 st13">s</tspan><tspan x="6.09" y="0" class="st0 st1">307</tspan></text>
</g>
<g>
	<text transform="matrix(1 0 0 1 439.6162 95.6166)" class="st0 st1">CB5</text>
	<line class="st2" x1="438.7" y1="95.59" x2="439.62" y2="95.59"/>
	<text transform="matrix(1 0 0 1 434.9766 95.6166)" class="st0 st1">F3</text>
</g>
<g>
	<text transform="matrix(1 0 0 1 477.0469 95.684)" class="st0 st1">CB6</text>
	<line class="st2" x1="476.13" y1="95.66" x2="477.05" y2="95.66"/>
	<text transform="matrix(1 0 0 1 472.4072 95.684)" class="st0 st1">F3</text>
</g>
<g>
	<text transform="matrix(1 0 0 1 486.0264 149.3666)" class="st0 st1">CB8</text>
	<line class="st2" x1="485.11" y1="149.34" x2="486.03" y2="149.34"/>
	<text transform="matrix(1 0 0 1 481.3857 149.3666)" class="st0 st1">F3</text>
</g>
<g>
	<text transform="matrix(1 0 0 1 597.0908 128.5522)" class="st0 st1">CB9</text>
	<line class="st2" x1="596.17" y1="128.53" x2="597.09" y2="128.53"/>
	<text transform="matrix(1 0 0 1 592.4512 128.5522)" class="st0 st1">F3</text>
</g>
<g>
	<text transform="matrix(1 0 0 1 556.6074 101.0995)" class="st0 st1">GCB</text>
	<line class="st2" x1="555.69" y1="101.07" x2="556.61" y2="101.07"/>
	<text transform="matrix(1 0 0 1 551.9678 101.0995)" class="st0 st1">F3</text>
</g>
<g>
	<text transform="matrix(1 0 0 1 521.6973 174.5834)" class="st0 st1">CB7</text>
	<line class="st2" x1="520.78" y1="174.56" x2="521.7" y2="174.56"/>
	<text transform="matrix(1 0 0 1 517.0576 174.5834)" class="st0 st1">F3</text>
</g>
<g>
	<g>
		<text transform="matrix(1 0 0 1 508.8711 88.4272)" class="st0 st14">T303</text>
	</g>
	<g>
		<text transform="matrix(1 0 0 1 506.2852 91.1425)"><tspan x="0" y="0" class="st0 st14">100</tspan><tspan x="3.82" y="0" class="st0 st14">0</tspan><tspan x="5.93" y="0" class="st0 st14">k</tspan><tspan x="7.28" y="0" class="st0 st14">V</tspan><tspan x="8.92" y="0" class="st0 st14">A</tspan></text>
	</g>
	<g>
		<text transform="matrix(1 0 0 1 504.5029 93.8578)"><tspan x="0" y="0" class="st0 st14">13.8/0.4</tspan><tspan x="9.03" y="0" class="st0 st14">8</tspan><tspan x="11.14" y="0" class="st0 st14">kV</tspan></text>
	</g>
</g>
<g>
	<g>
		<text transform="matrix(1 0 0 1 534.2432 106.9364)" class="st0 st14">T304</text>
	</g>
	<g>
		<text transform="matrix(1 0 0 1 531.6572 109.6518)"><tspan x="0" y="0" class="st0 st14">100</tspan><tspan x="3.82" y="0" class="st0 st14">0</tspan><tspan x="5.93" y="0" class="st0 st14">k</tspan><tspan x="7.28" y="0" class="st0 st14">V</tspan><tspan x="8.92" y="0" class="st0 st14">A</tspan></text>
	</g>
	<g>
		<text transform="matrix(1 0 0 1 529.874 112.3666)"><tspan x="0" y="0" class="st0 st14">13.8/0.4</tspan><tspan x="9.03" y="0" class="st0 st14">8</tspan><tspan x="11.14" y="0" class="st0 st14">kV</tspan></text>
	</g>
</g>
<g>
	<g>
		<text transform="matrix(1 0 0 1 599.8164 87.1127)" class="st0 st14">T305</text>
	</g>
	<g>
		<text transform="matrix(1 0 0 1 597.2305 89.8276)"><tspan x="0" y="0" class="st0 st14">250</tspan><tspan x="3.82" y="0" class="st0 st14">0</tspan><tspan x="5.93" y="0" class="st0 st14">k</tspan><tspan x="7.28" y="0" class="st0 st14">V</tspan><tspan x="8.92" y="0" class="st0 st14">A</tspan></text>
	</g>
	<g>
		<text transform="matrix(1 0 0 1 595.4482 92.5434)"><tspan x="0" y="0" class="st0 st14">13.8/0.4</tspan><tspan x="9.03" y="0" class="st0 st14">8</tspan><tspan x="11.14" y="0" class="st0 st14">kV</tspan></text>
	</g>
</g>
<g>
	<g>
		<text transform="matrix(1 0 0 1 473.0693 106.5966)" class="st0 st14">T302</text>
	</g>
	<g>
		<text transform="matrix(1 0 0 1 470.4834 109.3119)"><tspan x="0" y="0" class="st0 st14">200</tspan><tspan x="3.82" y="0" class="st0 st14">0</tspan><tspan x="5.93" y="0" class="st0 st14">k</tspan><tspan x="7.28" y="0" class="st0 st14">V</tspan><tspan x="8.92" y="0" class="st0 st14">A</tspan></text>
	</g>
	<g>
		<text transform="matrix(1 0 0 1 468.7012 112.0273)"><tspan x="0" y="0" class="st0 st14">13.8/0.4</tspan><tspan x="9.03" y="0" class="st0 st14">8</tspan><tspan x="11.14" y="0" class="st0 st14">kV</tspan></text>
	</g>
</g>
<g>
	<g>
		<text transform="matrix(1 0 0 1 435.749 106.6547)" class="st0 st14">T301</text>
	</g>
	<g>
		<text transform="matrix(1 0 0 1 433.1621 109.3696)"><tspan x="0" y="0" class="st0 st14">200</tspan><tspan x="3.82" y="0" class="st0 st14">0</tspan><tspan x="5.93" y="0" class="st0 st14">k</tspan><tspan x="7.28" y="0" class="st0 st14">V</tspan><tspan x="8.92" y="0" class="st0 st14">A</tspan></text>
	</g>
	<g>
		<text transform="matrix(1 0 0 1 431.3799 112.0854)"><tspan x="0" y="0" class="st0 st14">13.8/0.4</tspan><tspan x="9.03" y="0" class="st0 st14">8</tspan><tspan x="11.14" y="0" class="st0 st14">kV</tspan></text>
	</g>
</g>
<g>
	<g>
		<text transform="matrix(1 0 0 1 389.3359 114.3051)" class="st0 st14">T209</text>
	</g>
	<g>
		<text transform="matrix(1 0 0 1 386.749 117.0209)"><tspan x="0" y="0" class="st0 st14">200</tspan><tspan x="3.82" y="0" class="st0 st14">0</tspan><tspan x="5.93" y="0" class="st0 st14">k</tspan><tspan x="7.28" y="0" class="st0 st14">V</tspan><tspan x="8.92" y="0" class="st0 st14">A</tspan></text>
	</g>
	<g>
		<text transform="matrix(1 0 0 1 384.9668 119.7358)"><tspan x="0" y="0" class="st0 st14">13.8/0.4</tspan><tspan x="9.03" y="0" class="st0 st14">8</tspan><tspan x="11.14" y="0" class="st0 st14">kV</tspan></text>
	</g>
</g>
<g>
	<g>
		<text transform="matrix(1 0 0 1 609.5557 140.1098)" class="st0 st1">P6</text>
	</g>
	<g>
		<text transform="matrix(1 0 0 1 604.8604 143.7983)"><tspan x="0" y="0" class="st0 st1">100</tspan><tspan x="4.58" y="0" class="st0 st1 st13">0</tspan><tspan x="7.12" y="0" class="st0 st1">k</tspan><tspan x="8.73" y="0" class="st0 st1">V</tspan><tspan x="10.7" y="0" class="st0 st1">A</tspan></text>
	</g>
</g>
<g>
	<g>
		<text transform="matrix(1 0 0 1 551.3604 126.7621)" class="st0 st1">C6</text>
	</g>
	<g>
		<text transform="matrix(1 0 0 1 547.4951 130.4506)"><tspan x="0" y="0" class="st0 st1">80</tspan><tspan x="3.05" y="0" class="st0 st1 st13">0</tspan><tspan x="5.59" y="0" class="st0 st1">k</tspan><tspan x="7.2" y="0" class="st0 st1">V</tspan><tspan x="9.17" y="0" class="st0 st1">A</tspan></text>
	</g>
</g>
<g>
	<g>
		<text transform="matrix(1 0 0 1 533.9912 181.1401)" class="st0 st1">P4</text>
	</g>
	<g>
		<text transform="matrix(1 0 0 1 530.125 184.8285)"><tspan x="0" y="0" class="st0 st1">60</tspan><tspan x="3.05" y="0" class="st0 st1 st13">0</tspan><tspan x="5.59" y="0" class="st0 st1">k</tspan><tspan x="7.2" y="0" class="st0 st1">V</tspan><tspan x="9.17" y="0" class="st0 st1">A</tspan></text>
	</g>
</g>
<g>
	<g>
		<text transform="matrix(1 0 0 1 497.9678 158.0854)" class="st0 st1">L6</text>
	</g>
	<g>
		<text transform="matrix(1 0 0 1 494.1016 161.7738)"><tspan x="0" y="0" class="st0 st1">60</tspan><tspan x="3.05" y="0" class="st0 st1 st13">0</tspan><tspan x="5.59" y="0" class="st0 st1">k</tspan><tspan x="7.2" y="0" class="st0 st1">V</tspan><tspan x="9.17" y="0" class="st0 st1">A</tspan></text>
	</g>
</g>
<g>
	<g>
		<text transform="matrix(1 0 0 1 586.7266 152.7094)"><tspan x="0" y="0" class="st0 st14">20</tspan><tspan x="2.55" y="0" class="st0 st14">0</tspan><tspan x="4.66" y="0" class="st0 st14">HP</tspan></text>
	</g>
	<g>
		<text transform="matrix(1 0 0 1 585.5625 155.3715)" class="st0 st14">Induction</text>
	</g>
	<g>
		<text transform="matrix(1 0 0 1 587.4541 158.0326)" class="st0 st14">Motor</text>
	</g>
</g>
<g>
	<g>
		<text transform="matrix(1 0 0 1 458.3311 148.9662)" class="st0 st1">C5</text>
	</g>
	<g>
		<text transform="matrix(1 0 0 1 453.6357 152.6547)"><tspan x="0" y="0" class="st0 st1">100</tspan><tspan x="4.58" y="0" class="st0 st1 st13">0</tspan><tspan x="7.12" y="0" class="st0 st1">k</tspan><tspan x="8.73" y="0" class="st0 st1">V</tspan><tspan x="10.7" y="0" class="st0 st1">A</tspan></text>
	</g>
</g>
<g>
	<g>
		<text transform="matrix(1 0 0 1 561.374 118.2094)"><tspan x="0" y="0" class="st0 st1">3.</tspan><tspan x="2.36" y="0" class="st0 st1 st13">5</tspan><tspan x="4.89" y="0" class="st0 st1">M</tspan><tspan x="7.73" y="0" class="st0 st1">V</tspan><tspan x="9.7" y="0" class="st0 st1">A</tspan></text>
	</g>
	<g>
		<text transform="matrix(1 0 0 1 564.0635 121.7826)" class="st0 st1">CHP</text>
	</g>
</g>
<g>
	<text transform="matrix(1 0 0 1 566.167 111.2621)" class="st0 st1">G</text>
</g>
<g>
	<text transform="matrix(1 0 0 1 589.4766 145.9418)" class="st0 st1">M</text>
</g>
<g>
	<g>
		<text transform="matrix(1 0 0 1 345.1953 114.3539)" class="st0 st14">T208</text>
	</g>
	<g>
		<text transform="matrix(1 0 0 1 342.6094 117.0688)"><tspan x="0" y="0" class="st0 st14">200</tspan><tspan x="3.82" y="0" class="st0 st14">0</tspan><tspan x="5.93" y="0" class="st0 st14">k</tspan><tspan x="7.28" y="0" class="st0 st14">V</tspan><tspan x="8.92" y="0" class="st0 st14">A</tspan></text>
	</g>
	<g>
		<text transform="matrix(1 0 0 1 340.8271 119.7846)"><tspan x="0" y="0" class="st0 st14">13.8/0.4</tspan><tspan x="9.03" y="0" class="st0 st14">8</tspan><tspan x="11.14" y="0" class="st0 st14">kV</tspan></text>
	</g>
</g>
<g>
	<g>
		<text transform="matrix(1 0 0 1 397.0117 149.9155)" class="st0 st1">P5</text>
	</g>
	<g>
		<text transform="matrix(1 0 0 1 393.1455 153.6039)"><tspan x="0" y="0" class="st0 st1">70</tspan><tspan x="3.05" y="0" class="st0 st1 st13">0</tspan><tspan x="5.59" y="0" class="st0 st1">k</tspan><tspan x="7.2" y="0" class="st0 st1">V</tspan><tspan x="9.17" y="0" class="st0 st1">A</tspan></text>
	</g>
</g>
<g>
	<g>
		<text transform="matrix(1 0 0 1 350.6494 148.599)" class="st0 st1">C4</text>
	</g>
	<g>
		<text transform="matrix(1 0 0 1 345.9541 152.2865)"><tspan x="0" y="0" class="st0 st1">100</tspan><tspan x="4.58" y="0" class="st0 st1 st13">0</tspan><tspan x="7.12" y="0" class="st0 st1">k</tspan><tspan x="8.73" y="0" class="st0 st1">V</tspan><tspan x="10.7" y="0" class="st0 st1">A</tspan></text>
	</g>
</g>
<g>
	<text transform="matrix(1 0 0 1 348.0078 103.1752)" class="st0 st1">CB14</text>
	<line class="st2" x1="347.09" y1="103.15" x2="348.01" y2="103.15"/>
	<text transform="matrix(1 0 0 1 343.3682 103.1752)" class="st0 st1">F2</text>
</g>
<g>
	<text transform="matrix(1 0 0 1 392.3701 103.1967)" class="st0 st1">CB15</text>
	<line class="st2" x1="391.45" y1="103.17" x2="392.37" y2="103.17"/>
	<text transform="matrix(1 0 0 1 387.7305 103.1967)" class="st0 st1">F2</text>
</g>
<g>
	<text transform="matrix(1 0 0 1 279.2549 172.8442)" class="st0 st1">CB19</text>
	<line class="st2" x1="278.34" y1="172.82" x2="279.26" y2="172.82"/>
	<text transform="matrix(1 0 0 1 274.6152 172.8442)" class="st0 st1">F2</text>
</g>
<g>
	<text transform="matrix(1 0 0 1 406.9893 141.7602)" class="st0 st1">CB16</text>
	<line class="st2" x1="406.07" y1="141.73" x2="406.99" y2="141.73"/>
	<text transform="matrix(1 0 0 1 402.3486 141.7602)" class="st0 st1">F2</text>
</g>
<g>
	<text transform="matrix(1 0 0 1 383.3018 141.7817)" class="st0 st1">CB18</text>
	<line class="st2" x1="382.38" y1="141.76" x2="383.3" y2="141.76"/>
	<text transform="matrix(1 0 0 1 378.6611 141.7817)" class="st0 st1">F2</text>
</g>
<text transform="matrix(1 0 0 1 391.9707 134.7758)"><tspan x="0" y="0" class="st0 st1">Bu</tspan><tspan x="3.88" y="0" class="st0 st1 st13">s</tspan><tspan x="6.09" y="0" class="st0 st1">210</tspan></text>
<text transform="matrix(1 0 0 1 347.7646 134.56)"><tspan x="0" y="0" class="st0 st1">Bu</tspan><tspan x="3.88" y="0" class="st0 st1 st13">s</tspan><tspan x="6.09" y="0" class="st0 st1">209</tspan></text>
<g>
	<text transform="matrix(1 0 0 1 298.6201 107.8813)" class="st0 st1">CB11</text>
	<line class="st2" x1="297.7" y1="107.85" x2="298.62" y2="107.85"/>
	<text transform="matrix(1 0 0 1 293.9805 107.8813)" class="st0 st1">F2</text>
</g>
<g>
	<text transform="matrix(1 0 0 1 317.8916 118.686)" class="st0 st1">CB10</text>
	<line class="st2" x1="316.97" y1="118.66" x2="317.89" y2="118.66"/>
	<text transform="matrix(1 0 0 1 313.252 118.686)" class="st0 st1">F2</text>
</g>
<g>
	<text transform="matrix(1 0 0 1 285.1699 118.6869)" class="st0 st1">CB9</text>
	<line class="st2" x1="284.25" y1="118.66" x2="285.17" y2="118.66"/>
	<text transform="matrix(1 0 0 1 280.5293 118.6869)" class="st0 st1">F2</text>
</g>
<text transform="matrix(1 0 0 1 322.7002 111.4887)"><tspan x="0" y="0" class="st0 st1">Bu</tspan><tspan x="3.88" y="0" class="st0 st1 st13">s</tspan><tspan x="6.09" y="0" class="st0 st1">203</tspan></text>
<g>
	<g>
		<text transform="matrix(1 0 0 1 317.6162 93.7729)" class="st0 st14">T207</text>
	</g>
	<g>
		<text transform="matrix(1 0 0 1 315.0308 96.4877)"><tspan x="0" y="0" class="st0 st14">500</tspan><tspan x="3.82" y="0" class="st0 st14">0</tspan><tspan x="5.93" y="0" class="st0 st14">k</tspan><tspan x="7.28" y="0" class="st0 st14">V</tspan><tspan x="8.92" y="0" class="st0 st14">A</tspan></text>
	</g>
	<g>
		<text transform="matrix(1 0 0 1 313.248 99.2035)"><tspan x="0" y="0" class="st0 st14">13.8/0.4</tspan><tspan x="9.03" y="0" class="st0 st14">8</tspan><tspan x="11.14" y="0" class="st0 st14">kV</tspan></text>
	</g>
</g>
<g>
	<g>
		<text transform="matrix(1 0 0 1 315.2637 131.2524)" class="st0 st14">T210</text>
	</g>
	<g>
		<text transform="matrix(1 0 0 1 312.6777 133.9682)"><tspan x="0" y="0" class="st0 st14">100</tspan><tspan x="3.82" y="0" class="st0 st14">0</tspan><tspan x="5.93" y="0" class="st0 st14">k</tspan><tspan x="7.28" y="0" class="st0 st14">V</tspan><tspan x="8.92" y="0" class="st0 st14">A</tspan></text>
	</g>
	<g>
		<text transform="matrix(1 0 0 1 310.8955 136.683)"><tspan x="0" y="0" class="st0 st14">13.8/0.4</tspan><tspan x="9.03" y="0" class="st0 st14">8</tspan><tspan x="11.14" y="0" class="st0 st14">kV</tspan></text>
	</g>
</g>
<text transform="matrix(1 0 0 1 317.9785 166.3979)"><tspan x="0" y="0" class="st0 st1">Bu</tspan><tspan x="3.88" y="0" class="st0 st1 st13">s</tspan><tspan x="6.09" y="0" class="st0 st1">207</tspan></text>
<text transform="matrix(1 0 0 1 296.8413 166.3979)"><tspan x="0" y="0" class="st0 st1">Bu</tspan><tspan x="3.88" y="0" class="st0 st1 st13">s</tspan><tspan x="6.09" y="0" class="st0 st1">206</tspan></text>
<g>
	<g>
		<text transform="matrix(1 0 0 1 281.1475 130.8774)" class="st0 st14">T206</text>
	</g>
	<g>
		<text transform="matrix(1 0 0 1 278.5615 133.5922)"><tspan x="0" y="0" class="st0 st14">250</tspan><tspan x="3.82" y="0" class="st0 st14">0</tspan><tspan x="5.93" y="0" class="st0 st14">k</tspan><tspan x="7.28" y="0" class="st0 st14">V</tspan><tspan x="8.92" y="0" class="st0 st14">A</tspan></text>
	</g>
	<g>
		<text transform="matrix(1 0 0 1 276.7788 136.308)"><tspan x="0" y="0" class="st0 st14">13.8/0.4</tspan><tspan x="9.03" y="0" class="st0 st14">8</tspan><tspan x="11.14" y="0" class="st0 st14">kV</tspan></text>
	</g>
</g>
<g>
	<text transform="matrix(1 0 0 1 309.5703 173.5776)" class="st0 st1">CB12</text>
	<line class="st2" x1="308.65" y1="173.55" x2="309.57" y2="173.55"/>
	<text transform="matrix(1 0 0 1 304.9307 173.5776)" class="st0 st1">F2</text>
</g>
<g>
	<text transform="matrix(1 0 0 1 333.8301 173.5776)" class="st0 st1">CB13</text>
	<line class="st2" x1="332.91" y1="173.55" x2="333.83" y2="173.55"/>
	<text transform="matrix(1 0 0 1 329.1904 173.5776)" class="st0 st1">F2</text>
</g>
<g>
	<g>
		<text transform="matrix(1 0 0 1 322.6699 180.8686)" class="st0 st1">L5</text>
	</g>
	<g>
		<text transform="matrix(1 0 0 1 318.8037 184.5571)"><tspan x="0" y="0" class="st0 st1">40</tspan><tspan x="3.05" y="0" class="st0 st1 st13">0</tspan><tspan x="5.59" y="0" class="st0 st1">k</tspan><tspan x="7.2" y="0" class="st0 st1">V</tspan><tspan x="9.17" y="0" class="st0 st1">A</tspan></text>
	</g>
</g>
<g>
	<g>
		<text transform="matrix(1 0 0 1 292.4253 180.3715)" class="st0 st1">P2</text>
	</g>
	<g>
		<text transform="matrix(1 0 0 1 287.7305 184.06)"><tspan x="0" y="0" class="st0 st1">100</tspan><tspan x="4.58" y="0" class="st0 st1 st13">0</tspan><tspan x="7.12" y="0" class="st0 st1">k</tspan><tspan x="8.73" y="0" class="st0 st1">V</tspan><tspan x="10.7" y="0" class="st0 st1">A</tspan></text>
	</g>
</g>
<g>
	<g>
		<text transform="matrix(1 0 0 1 262.2451 183.4701)" class="st0 st1">P3</text>
	</g>
	<g>
		<text transform="matrix(1 0 0 1 257.5503 187.1586)"><tspan x="0" y="0" class="st0 st1">100</tspan><tspan x="4.58" y="0" class="st0 st1 st13">0</tspan><tspan x="7.12" y="0" class="st0 st1">k</tspan><tspan x="8.73" y="0" class="st0 st1">V</tspan><tspan x="10.7" y="0" class="st0 st1">A</tspan></text>
	</g>
</g>
<g>
	<g>
		<text transform="matrix(1 0 0 1 240.2734 183.5238)" class="st0 st1">L4</text>
	</g>
	<g>
		<text transform="matrix(1 0 0 1 236.4072 187.2123)"><tspan x="0" y="0" class="st0 st1">50</tspan><tspan x="3.06" y="0" class="st0 st1 st13">0</tspan><tspan x="5.59" y="0" class="st0 st1">k</tspan><tspan x="7.21" y="0" class="st0 st1">V</tspan><tspan x="9.17" y="0" class="st0 st1">A</tspan></text>
	</g>
</g>
<g>
	<g>
		<text transform="matrix(1 0 0 1 253.6152 169.3071)" class="st0 st14">T205</text>
	</g>
	<g>
		<text transform="matrix(1 0 0 1 251.0293 172.0229)"><tspan x="0" y="0" class="st0 st14">150</tspan><tspan x="3.82" y="0" class="st0 st14">0</tspan><tspan x="5.93" y="0" class="st0 st14">k</tspan><tspan x="7.28" y="0" class="st0 st14">V</tspan><tspan x="8.92" y="0" class="st0 st14">A</tspan></text>
	</g>
	<g>
		<text transform="matrix(1 0 0 1 249.2471 174.7377)"><tspan x="0" y="0" class="st0 st14">4.16/0.4</tspan><tspan x="9.03" y="0" class="st0 st14">8</tspan><tspan x="11.14" y="0" class="st0 st14">kV</tspan></text>
	</g>
</g>
<g>
	<g>
		<text transform="matrix(1 0 0 1 231.2915 169.1733)" class="st0 st14">T204</text>
	</g>
	<g>
		<text transform="matrix(1 0 0 1 228.7051 171.8881)"><tspan x="0" y="0" class="st0 st14">100</tspan><tspan x="3.82" y="0" class="st0 st14">0</tspan><tspan x="5.93" y="0" class="st0 st14">k</tspan><tspan x="7.28" y="0" class="st0 st14">V</tspan><tspan x="8.92" y="0" class="st0 st14">A</tspan></text>
	</g>
	<g>
		<text transform="matrix(1 0 0 1 226.9229 174.603)"><tspan x="0" y="0" class="st0 st14">4.16/0.4</tspan><tspan x="9.03" y="0" class="st0 st14">8</tspan><tspan x="11.14" y="0" class="st0 st14">kV</tspan></text>
	</g>
</g>
<g>
	<g>
		<text transform="matrix(1 0 0 1 257.749 132.1947)" class="st0 st14">T203</text>
	</g>
	<g>
		<text transform="matrix(1 0 0 1 255.1631 134.9096)"><tspan x="0" y="0" class="st0 st14">375</tspan><tspan x="3.82" y="0" class="st0 st14">0</tspan><tspan x="5.93" y="0" class="st0 st14">k</tspan><tspan x="7.28" y="0" class="st0 st14">V</tspan><tspan x="8.92" y="0" class="st0 st14">A</tspan></text>
	</g>
	<g>
		<text transform="matrix(1 0 0 1 253.3809 137.6254)" class="st0 st14">13.8/4.16 kV</text>
	</g>
</g>
<text transform="matrix(1 0 0 1 263.0542 148.8276)"><tspan x="0" y="0" class="st0 st1">Bu</tspan><tspan x="3.88" y="0" class="st0 st1 st13">s</tspan><tspan x="6.09" y="0" class="st0 st1">205</tspan></text>
<g>
	<text transform="matrix(1 0 0 1 257.5039 156.3783)" class="st0 st1">CB4</text>
	<line class="st2" x1="256.59" y1="156.35" x2="257.5" y2="156.35"/>
	<text transform="matrix(1 0 0 1 252.8643 156.3783)" class="st0 st1">F2</text>
</g>
<g>
	<text transform="matrix(1 0 0 1 235.1396 156.2299)" class="st0 st1">CB8</text>
	<line class="st2" x1="234.22" y1="156.2" x2="235.14" y2="156.2"/>
	<text transform="matrix(1 0 0 1 230.5 156.2299)" class="st0 st1">F2</text>
</g>
<g>
	<g>
		<text transform="matrix(1 0 0 1 208.0078 159.3256)" class="st0 st1">L3</text>
	</g>
	<g>
		<text transform="matrix(1 0 0 1 204.1416 163.0141)"><tspan x="0" y="0" class="st0 st1">30</tspan><tspan x="3.06" y="0" class="st0 st1 st13">0</tspan><tspan x="5.59" y="0" class="st0 st1">k</tspan><tspan x="7.21" y="0" class="st0 st1">V</tspan><tspan x="9.17" y="0" class="st0 st1">A</tspan></text>
	</g>
</g>
<g>
	<text transform="matrix(1 0 0 1 221.5552 118.686)" class="st0 st1">CB6</text>
	<line class="st2" x1="220.64" y1="118.66" x2="221.56" y2="118.66"/>
	<text transform="matrix(1 0 0 1 216.915 118.686)" class="st0 st1">F2</text>
</g>
<g>
	<text transform="matrix(1 0 0 1 239.1865 118.686)" class="st0 st1">CB7</text>
	<line class="st2" x1="238.27" y1="118.66" x2="239.19" y2="118.66"/>
	<text transform="matrix(1 0 0 1 234.5464 118.686)" class="st0 st1">F2</text>
</g>
<g>
	<g>
		<text transform="matrix(1 0 0 1 197.8608 139.8901)" class="st0 st14">T202</text>
	</g>
	<g>
		<text transform="matrix(1 0 0 1 195.9111 142.6049)"><tspan x="0" y="0" class="st0 st14">50</tspan><tspan x="2.55" y="0" class="st0 st14">0</tspan><tspan x="4.66" y="0" class="st0 st14">k</tspan><tspan x="6.01" y="0" class="st0 st14">V</tspan><tspan x="7.65" y="0" class="st0 st14">A</tspan></text>
	</g>
	<g>
		<text transform="matrix(1 0 0 1 192.8569 145.3197)" class="st0 st14">13.8/0.208 kV</text>
	</g>
</g>
<text transform="matrix(1 0 0 1 207.4541 111.5595)"><tspan x="0" y="0" class="st0 st1">Bu</tspan><tspan x="3.88" y="0" class="st0 st1 st13">s</tspan><tspan x="6.09" y="0" class="st0 st1">204</tspan></text>
<g>
	<text transform="matrix(1 0 0 1 240.2134 109.7826)" class="st0 st1">CB5</text>
	<line class="st2" x1="239.3" y1="109.76" x2="240.21" y2="109.76"/>
	<text transform="matrix(1 0 0 1 235.5732 109.7826)" class="st0 st1">F2</text>
</g>
<g>
	<g>
		<text transform="matrix(1 0 0 1 257.4824 96.5204)" class="st0 st14">T201</text>
	</g>
	<g>
		<text transform="matrix(1 0 0 1 254.8965 99.2358)"><tspan x="0" y="0" class="st0 st14">250</tspan><tspan x="3.82" y="0" class="st0 st14">0</tspan><tspan x="5.93" y="0" class="st0 st14">k</tspan><tspan x="7.28" y="0" class="st0 st14">V</tspan><tspan x="8.92" y="0" class="st0 st14">A</tspan></text>
	</g>
	<g>
		<text transform="matrix(1 0 0 1 253.1143 101.9506)"><tspan x="0" y="0" class="st0 st14">13.8/0.4</tspan><tspan x="9.03" y="0" class="st0 st14">8</tspan><tspan x="11.14" y="0" class="st0 st14">kV</tspan></text>
	</g>
</g>
<g>
	<g>
		<text transform="matrix(1 0 0 1 229.4814 99.8822)" class="st0 st1">C3</text>
	</g>
	<g>
		<text transform="matrix(1 0 0 1 224.7866 103.5712)"><tspan x="0" y="0" class="st0 st1">100</tspan><tspan x="4.58" y="0" class="st0 st1 st13">0</tspan><tspan x="7.12" y="0" class="st0 st1">k</tspan><tspan x="8.73" y="0" class="st0 st1">V</tspan><tspan x="10.7" y="0" class="st0 st1">A</tspan></text>
	</g>
</g>
<g>
	<g>
		<text transform="matrix(1 0 0 1 160.4287 120.0776)"><tspan x="0" y="0" class="st0 st1 st13">4</tspan><tspan x="2.54" y="0" class="st0 st1">M</tspan><tspan x="5.37" y="0" class="st0 st1">V</tspan><tspan x="7.34" y="0" class="st0 st1">A</tspan></text>
	</g>
	<g>
		<text transform="matrix(1 0 0 1 161.293 123.6508)" class="st0 st1">Diesel</text>
	</g>
</g>
<g>
	<text transform="matrix(1 0 0 1 164.043 112.9428)" class="st0 st1">G</text>
</g>
<g>
	<text transform="matrix(1 0 0 1 173.8457 102.5844)" class="st0 st1">GCB</text>
	<line class="st2" x1="172.93" y1="102.56" x2="173.85" y2="102.56"/>
	<text transform="matrix(1 0 0 1 169.2061 102.5844)" class="st0 st1">F1</text>
</g>
<g>
	<text transform="matrix(1 0 0 1 135.124 99.478)" class="st0 st1">CB12</text>
	<line class="st2" x1="134.21" y1="99.45" x2="135.12" y2="99.45"/>
	<text transform="matrix(1 0 0 1 130.4839 99.478)" class="st0 st1">F1</text>
</g>
<g>
	<text transform="matrix(1 0 0 1 135.0161 122.2875)" class="st0 st1">CB13</text>
	<line class="st2" x1="134.1" y1="122.26" x2="135.02" y2="122.26"/>
	<text transform="matrix(1 0 0 1 130.376 122.2875)" class="st0 st1">F1</text>
</g>
<g>
	<g>
		<text transform="matrix(1 0 0 1 132.3579 108.8315)" class="st0 st14">T107</text>
	</g>
	<g>
		<text transform="matrix(1 0 0 1 129.772 111.5473)"><tspan x="0" y="0" class="st0 st14">250</tspan><tspan x="3.82" y="0" class="st0 st14">0</tspan><tspan x="5.93" y="0" class="st0 st14">k</tspan><tspan x="7.28" y="0" class="st0 st14">V</tspan><tspan x="8.92" y="0" class="st0 st14">A</tspan></text>
	</g>
	<g>
		<text transform="matrix(1 0 0 1 127.9893 114.2621)"><tspan x="0" y="0" class="st0 st14">13.8/0.4</tspan><tspan x="9.03" y="0" class="st0 st14">8</tspan><tspan x="11.14" y="0" class="st0 st14">kV</tspan></text>
	</g>
</g>
<g>
	<g>
		<text transform="matrix(1 0 0 1 109.1997 109.1664)" class="st0 st14">T106</text>
	</g>
	<g>
		<text transform="matrix(1 0 0 1 107.2505 111.8822)"><tspan x="0" y="0" class="st0 st14">50</tspan><tspan x="2.55" y="0" class="st0 st14">0</tspan><tspan x="4.66" y="0" class="st0 st14">k</tspan><tspan x="6.01" y="0" class="st0 st14">V</tspan><tspan x="7.65" y="0" class="st0 st14">A</tspan></text>
	</g>
	<g>
		<text transform="matrix(1 0 0 1 104.1963 114.5971)" class="st0 st14">13.8/0.208 kV</text>
	</g>
</g>
<g>
	<text transform="matrix(1 0 0 1 111.9814 95.9887)" class="st0 st1">CB8</text>
	<line class="st2" x1="111.06" y1="95.96" x2="111.98" y2="95.96"/>
	<text transform="matrix(1 0 0 1 107.3418 95.9887)" class="st0 st1">F1</text>
</g>
<g>
	<text transform="matrix(1 0 0 1 90.3896 95.9887)" class="st0 st1">CB7</text>
	<line class="st2" x1="89.47" y1="95.96" x2="90.39" y2="95.96"/>
	<text transform="matrix(1 0 0 1 85.75 95.9887)" class="st0 st1">F1</text>
</g>
<g>
	<text transform="matrix(1 0 0 1 68.2373 95.9887)" class="st0 st1">CB6</text>
	<line class="st2" x1="67.32" y1="95.96" x2="68.24" y2="95.96"/>
	<text transform="matrix(1 0 0 1 63.5977 95.9887)" class="st0 st1">F1</text>
</g>
<g>
	<g>
		<text transform="matrix(1 0 0 1 102.0156 127.7377)" class="st0 st1">L2</text>
	</g>
	<g>
		<text transform="matrix(1 0 0 1 98.1494 131.4262)"><tspan x="0" y="0" class="st0 st1">25</tspan><tspan x="3.06" y="0" class="st0 st1 st13">0</tspan><tspan x="5.59" y="0" class="st0 st1">k</tspan><tspan x="7.21" y="0" class="st0 st1">V</tspan><tspan x="9.17" y="0" class="st0 st1">A</tspan></text>
	</g>
</g>
<g>
	<g>
		<text transform="matrix(1 0 0 1 64.3096 116.2612)" class="st0 st14">T103</text>
	</g>
	<g>
		<text transform="matrix(1 0 0 1 61.7236 118.977)"><tspan x="0" y="0" class="st0 st14">375</tspan><tspan x="3.82" y="0" class="st0 st14">0</tspan><tspan x="5.93" y="0" class="st0 st14">k</tspan><tspan x="7.28" y="0" class="st0 st14">V</tspan><tspan x="8.92" y="0" class="st0 st14">A</tspan></text>
	</g>
	<g>
		<text transform="matrix(1 0 0 1 59.9409 121.6928)" class="st0 st14">13.8/4.16 kV</text>
	</g>
</g>
<text transform="matrix(1 0 0 1 110.1323 141.2221)"><tspan x="0" y="0" class="st0 st1">Bu</tspan><tspan x="3.88" y="0" class="st0 st1 st13">s</tspan><tspan x="6.09" y="0" class="st0 st1">106</tspan></text>
<text transform="matrix(1 0 0 1 80.7637 183.5219)"><tspan x="0" y="0" class="st0 st1">Bu</tspan><tspan x="3.88" y="0" class="st0 st1 st13">s</tspan><tspan x="6.09" y="0" class="st0 st1">107</tspan></text>
<g>
	<text transform="matrix(1 0 0 1 104.9502 147.5424)" class="st0 st1">CB11</text>
	<line class="st2" x1="104.03" y1="147.52" x2="104.95" y2="147.52"/>
	<text transform="matrix(1 0 0 1 100.3105 147.5424)" class="st0 st1">F1</text>
</g>
<g>
	<text transform="matrix(1 0 0 1 66.752 147.5424)" class="st0 st1">CB10</text>
	<line class="st2" x1="65.83" y1="147.52" x2="66.75" y2="147.52"/>
	<text transform="matrix(1 0 0 1 62.1123 147.5424)" class="st0 st1">F1</text>
</g>
<g>
	<g>
		<text transform="matrix(1 0 0 1 103.3789 157.3227)" class="st0 st14">T105</text>
	</g>
	<g>
		<text transform="matrix(1 0 0 1 100.793 160.0385)"><tspan x="0" y="0" class="st0 st14">200</tspan><tspan x="3.82" y="0" class="st0 st14">0</tspan><tspan x="5.93" y="0" class="st0 st14">k</tspan><tspan x="7.28" y="0" class="st0 st14">V</tspan><tspan x="8.92" y="0" class="st0 st14">A</tspan></text>
	</g>
	<g>
		<text transform="matrix(1 0 0 1 99.0107 162.7533)"><tspan x="0" y="0" class="st0 st14">4.16/0.4</tspan><tspan x="9.03" y="0" class="st0 st14">8</tspan><tspan x="11.14" y="0" class="st0 st14">kV</tspan></text>
	</g>
</g>
<g>
	<g>
		<text transform="matrix(1 0 0 1 96.6484 174.1615)" class="st0 st1">C21</text>
	</g>
	<g>
		<text transform="matrix(1 0 0 1 93.5459 177.851)"><tspan x="0" y="0" class="st0 st1">50</tspan><tspan x="3.06" y="0" class="st0 st1 st13">0</tspan><tspan x="5.59" y="0" class="st0 st1">k</tspan><tspan x="7.21" y="0" class="st0 st1">V</tspan><tspan x="9.17" y="0" class="st0 st1">A</tspan></text>
	</g>
</g>
<g>
	<g>
		<text transform="matrix(1 0 0 1 91.0977 201.4408)" class="st0 st1">P1</text>
	</g>
	<g>
		<text transform="matrix(1 0 0 1 86.4023 205.1293)"><tspan x="0" y="0" class="st0 st1">100</tspan><tspan x="4.58" y="0" class="st0 st1 st13">0</tspan><tspan x="7.12" y="0" class="st0 st1">k</tspan><tspan x="8.73" y="0" class="st0 st1">V</tspan><tspan x="10.7" y="0" class="st0 st1">A</tspan></text>
	</g>
</g>
<g>
	<text transform="matrix(1 0 0 1 77.645 189.4281)" class="st0 st1">CB14</text>
	<line class="st2" x1="76.73" y1="189.4" x2="77.65" y2="189.4"/>
	<text transform="matrix(1 0 0 1 73.0049 189.4281)" class="st0 st1">F1</text>
</g>
<g>
	<g>
		<text transform="matrix(1 0 0 1 63.3809 213.5375)"><tspan x="0" y="0" class="st0 st14">20</tspan><tspan x="2.55" y="0" class="st0 st14">0</tspan><tspan x="4.66" y="0" class="st0 st14">HP</tspan></text>
	</g>
	<g>
		<text transform="matrix(1 0 0 1 62.2168 216.1987)" class="st0 st14">Induction</text>
	</g>
	<g>
		<text transform="matrix(1 0 0 1 64.1079 218.8598)" class="st0 st14">Motor</text>
	</g>
</g>
<g>
	<text transform="matrix(1 0 0 1 66.1299 206.8129)" class="st0 st1">M</text>
</g>
<g>
	<g>
		<text transform="matrix(1 0 0 1 64.1689 164.0151)" class="st0 st14">T104</text>
	</g>
	<g>
		<text transform="matrix(1 0 0 1 61.583 166.7299)"><tspan x="0" y="0" class="st0 st14">200</tspan><tspan x="3.82" y="0" class="st0 st14">0</tspan><tspan x="5.93" y="0" class="st0 st14">k</tspan><tspan x="7.28" y="0" class="st0 st14">V</tspan><tspan x="8.92" y="0" class="st0 st14">A</tspan></text>
	</g>
	<g>
		<text transform="matrix(1 0 0 1 59.7998 169.4447)"><tspan x="0" y="0" class="st0 st14">4.16/0.4</tspan><tspan x="9.03" y="0" class="st0 st14">8</tspan><tspan x="11.14" y="0" class="st0 st14">kV</tspan></text>
	</g>
</g>
<g>
	<g>
		<text transform="matrix(1 0 0 1 48.0469 145.8119)" class="st0 st1">C11</text>
	</g>
	<g>
		<text transform="matrix(1 0 0 1 44.9448 149.5004)"><tspan x="0" y="0" class="st0 st1">20</tspan><tspan x="3.06" y="0" class="st0 st1 st13">0</tspan><tspan x="5.59" y="0" class="st0 st1">k</tspan><tspan x="7.21" y="0" class="st0 st1">V</tspan><tspan x="9.17" y="0" class="st0 st1">A</tspan></text>
	</g>
</g>
<g>
	<g>
		<text transform="matrix(1 0 0 1 48.4727 108.7738)" class="st0 st14">T102</text>
	</g>
	<g>
		<text transform="matrix(1 0 0 1 45.8867 111.4887)"><tspan x="0" y="0" class="st0 st14">250</tspan><tspan x="3.82" y="0" class="st0 st14">0</tspan><tspan x="5.93" y="0" class="st0 st14">k</tspan><tspan x="7.28" y="0" class="st0 st14">V</tspan><tspan x="8.92" y="0" class="st0 st14">A</tspan></text>
	</g>
	<g>
		<text transform="matrix(1 0 0 1 44.1045 114.2045)"><tspan x="0" y="0" class="st0 st14">13.8/0.4</tspan><tspan x="9.03" y="0" class="st0 st14">8</tspan><tspan x="11.14" y="0" class="st0 st14">kV</tspan></text>
	</g>
</g>
<g>
	<text transform="matrix(1 0 0 1 24.5225 139.9711)" class="st0 st1">CB9</text>
	<line class="st2" x1="23.6" y1="139.94" x2="24.52" y2="139.94"/>
	<text transform="matrix(1 0 0 1 19.8828 139.9711)" class="st0 st1">F1</text>
</g>
<text transform="matrix(1 0 0 1 42.332 132.2709)"><tspan x="0" y="0" class="st0 st1">Bu</tspan><tspan x="3.88" y="0" class="st0 st1 st13">s</tspan><tspan x="6.09" y="0" class="st0 st1">104</tspan></text>
<g>
	<g>
		<text transform="matrix(1 0 0 1 14.4199 128.4594)" class="st0 st1">L1</text>
	</g>
	<g>
		<text transform="matrix(1 0 0 1 9.7246 132.1479)"><tspan x="0" y="0" class="st0 st1">300</tspan><tspan x="4.58" y="0" class="st0 st1 st13">0</tspan><tspan x="7.12" y="0" class="st0 st1">k</tspan><tspan x="8.73" y="0" class="st0 st1">V</tspan><tspan x="10.7" y="0" class="st0 st1">A</tspan></text>
	</g>
</g>
<g>
	<g>
		<text transform="matrix(1 0 0 1 4.3672 108.6283)" class="st0 st14">T101</text>
	</g>
	<g>
		<text transform="matrix(1 0 0 1 2.418 111.3442)"><tspan x="0" y="0" class="st0 st14">50</tspan><tspan x="2.55" y="0" class="st0 st14">0</tspan><tspan x="4.66" y="0" class="st0 st14">k</tspan><tspan x="6.01" y="0" class="st0 st14">V</tspan><tspan x="7.65" y="0" class="st0 st14">A</tspan></text>
	</g>
	<g>
		<text transform="matrix(1 0 0 1 0 114.059)" class="st0 st14">13.8/0.48 kV</text>
	</g>
</g>
<g>
	<text transform="matrix(1 0 0 1 9.1396 95.6572)" class="st0 st1">CB4</text>
	<line class="st2" x1="8.22" y1="95.63" x2="9.14" y2="95.63"/>
	<text transform="matrix(1 0 0 1 4.5 95.6572)" class="st0 st1">F1</text>
</g>
<g>
	<text transform="matrix(1 0 0 1 30.3262 95.6572)" class="st0 st1">CB5</text>
	<line class="st2" x1="29.41" y1="95.63" x2="30.33" y2="95.63"/>
	<text transform="matrix(1 0 0 1 25.6865 95.6572)" class="st0 st1">F1</text>
</g>
</svg>
