<?xml version="1.0" encoding="UTF-8" standalone="no"?>
<!-- Created with Inkscape (http://www.inkscape.org/) -->

<svg
   xmlns:dc="http://purl.org/dc/elements/1.1/"
   xmlns:cc="http://creativecommons.org/ns#"
   xmlns:rdf="http://www.w3.org/1999/02/22-rdf-syntax-ns#"
   xmlns:svg="http://www.w3.org/2000/svg"
   xmlns="http://www.w3.org/2000/svg"
   xmlns:sodipodi="http://sodipodi.sourceforge.net/DTD/sodipodi-0.dtd"
   xmlns:inkscape="http://www.inkscape.org/namespaces/inkscape"
   width="135.71428"
   height="215.71429"
   id="svg5472"
   version="1.1"
   inkscape:version="0.48.2 r9819"
   sodipodi:docname="New document 5">
  <defs
     id="defs5474">
    <clipPath
       clipPathUnits="userSpaceOnUse"
       id="clipPath5712">
      <rect
         style="fill:none;stroke:#ff0000;stroke-width:1.41734064;stroke-linecap:square;stroke-linejoin:round;stroke-miterlimit:4;stroke-opacity:1;stroke-dasharray:none;stroke-dashoffset:0"
         id="rect5714"
         width="96.970406"
         height="151.61905"
         x="-106.32693"
         y="-161.09424"
         transform="matrix(0,-1,-1,0,0,0)" />
    </clipPath>
  </defs>
  <sodipodi:namedview
     id="base"
     pagecolor="#ffffff"
     bordercolor="#666666"
     borderopacity="1.0"
     inkscape:pageopacity="0.0"
     inkscape:pageshadow="2"
     inkscape:zoom="1.4"
     inkscape:cx="151.5101"
     inkscape:cy="79.635842"
     inkscape:document-units="px"
     inkscape:current-layer="layer1"
     showgrid="false"
     fit-margin-top="0"
     fit-margin-left="0"
     fit-margin-right="0"
     fit-margin-bottom="0"
     inkscape:window-width="1536"
     inkscape:window-height="801"
     inkscape:window-x="-8"
     inkscape:window-y="-8"
     inkscape:window-maximized="1" />
  <metadata
     id="metadata5477">
    <rdf:RDF>
      <cc:Work
         rdf:about="">
        <dc:format>image/svg+xml</dc:format>
        <dc:type
           rdf:resource="http://purl.org/dc/dcmitype/StillImage" />
        <dc:title></dc:title>
      </cc:Work>
    </rdf:RDF>
  </metadata>
  <g
     inkscape:label="Layer 1"
     inkscape:groupmode="layer"
     id="layer1"
     transform="translate(-89.285711,-44.505033)">
    <g
       transform="matrix(0,-1.4227387,-1.3995433,0,238.09485,273.70004)"
       style="fill-rule:evenodd"
       id="g4774"
       clip-path="url(#clipPath5712)">
      <g
         transform="translate(-0.87999792,-0.16187715)"
         id="g4552">
        <g
           id="_3275945118544"
           transform="matrix(0.33864196,0,0,0.34354973,1.9301863,11.560006)">
          <rect
             style="fill:#bdbfc1;stroke:#96989a;stroke-width:1.00323999"
             id="rect11-58"
             height="103.029"
             width="34.9827"
             y="84"
             x="273"
             class="fil0 str0" />
          <line
             style="fill:none;stroke:#96989a;stroke-width:1.00323999"
             id="line13"
             y2="112"
             x2="308"
             y1="112"
             x1="273"
             class="fil1 str0" />
          <line
             style="fill:none;stroke:#96989a;stroke-width:1.00323999"
             id="line15"
             y2="149"
             x2="308"
             y1="149"
             x1="273"
             class="fil1 str0" />
          <rect
             style="fill:#373435"
             id="rect17-6"
             height="2.64679"
             width="2.6177199"
             y="89"
             x="280"
             class="fil2" />
          <rect
             style="fill:#373435"
             id="rect19-7"
             height="2.64679"
             width="2.6177199"
             y="95"
             x="280"
             class="fil2" />
          <rect
             style="fill:#373435"
             id="rect21-7"
             height="2.64679"
             width="2.6177199"
             y="89"
             x="285"
             class="fil2" />
          <rect
             style="fill:#373435"
             id="rect23-2"
             height="2.64679"
             width="2.6177199"
             y="95"
             x="285"
             class="fil2" />
          <rect
             style="fill:#373435"
             id="rect25-2"
             height="2.64679"
             width="2.6177199"
             y="89"
             x="292"
             class="fil2" />
          <rect
             style="fill:#373435"
             id="rect27-9"
             height="2.64679"
             width="2.6177199"
             y="95"
             x="292"
             class="fil2" />
          <rect
             style="fill:#373435"
             id="rect29-4"
             height="2.64679"
             width="2.6177199"
             y="89"
             x="298"
             class="fil2" />
          <rect
             style="fill:#373435"
             id="rect31-1"
             height="14.5071"
             width="19.253"
             y="121"
             x="281"
             class="fil2" />
          <rect
             style="fill:#373435"
             id="rect33-9"
             height="4.14393"
             width="8.7491198"
             y="103"
             x="287"
             class="fil2" />
          <rect
             style="fill:#373435"
             id="rect35-6"
             height="2.7690401"
             width="5.8463001"
             y="154"
             x="288"
             class="fil2" />
          <rect
             style="fill:#bdbfc1;stroke:#96989a;stroke-width:1.00323999"
             id="rect37-9"
             height="103.029"
             width="34.9827"
             y="84"
             x="308"
             class="fil0 str0" />
          <line
             style="fill:none;stroke:#96989a;stroke-width:1.00323999"
             id="line39"
             y2="112"
             x2="343"
             y1="112"
             x1="308"
             class="fil1 str0" />
          <line
             style="fill:none;stroke:#96989a;stroke-width:1.00323999"
             id="line41"
             y2="149"
             x2="343"
             y1="149"
             x1="308"
             class="fil1 str0" />
          <rect
             style="fill:#373435"
             id="rect43-8"
             height="2.64679"
             width="2.6177199"
             y="89"
             x="315"
             class="fil2" />
          <rect
             style="fill:#373435"
             id="rect45"
             height="2.64679"
             width="2.6177199"
             y="95"
             x="315"
             class="fil2" />
          <rect
             style="fill:#373435"
             id="rect47"
             height="2.64679"
             width="2.6177199"
             y="89"
             x="320"
             class="fil2" />
          <rect
             style="fill:#373435"
             id="rect49"
             height="2.64679"
             width="2.6177199"
             y="95"
             x="320"
             class="fil2" />
          <rect
             style="fill:#373435"
             id="rect51-2"
             height="2.64679"
             width="2.6177199"
             y="89"
             x="327"
             class="fil2" />
          <rect
             style="fill:#373435"
             id="rect53"
             height="2.64679"
             width="2.6177199"
             y="95"
             x="327"
             class="fil2" />
          <rect
             style="fill:#373435"
             id="rect55"
             height="2.64679"
             width="2.6177199"
             y="89"
             x="333"
             class="fil2" />
          <rect
             style="fill:#373435"
             id="rect57"
             height="14.5071"
             width="19.253"
             y="121"
             x="316"
             class="fil2" />
          <rect
             style="fill:#373435"
             id="rect59"
             height="4.14393"
             width="8.7491198"
             y="103"
             x="322"
             class="fil2" />
          <rect
             style="fill:#373435"
             id="rect61"
             height="2.7690401"
             width="5.8463001"
             y="154"
             x="323"
             class="fil2" />
          <rect
             style="fill:#bdbfc1;stroke:#96989a;stroke-width:1.00323999"
             id="rect63"
             height="103.029"
             width="34.9827"
             y="84"
             x="343"
             class="fil0 str0" />
          <line
             style="fill:none;stroke:#96989a;stroke-width:1.00323999"
             id="line65"
             y2="112"
             x2="378"
             y1="112"
             x1="343"
             class="fil1 str0" />
          <line
             style="fill:none;stroke:#96989a;stroke-width:1.00323999"
             id="line67"
             y2="149"
             x2="378"
             y1="149"
             x1="343"
             class="fil1 str0" />
          <rect
             style="fill:#373435"
             id="rect69"
             height="2.64679"
             width="2.6177199"
             y="89"
             x="350"
             class="fil2" />
          <rect
             style="fill:#373435"
             id="rect71"
             height="2.64679"
             width="2.6177199"
             y="95"
             x="350"
             class="fil2" />
          <rect
             style="fill:#373435"
             id="rect73"
             height="2.64679"
             width="2.6177199"
             y="89"
             x="355"
             class="fil2" />
          <rect
             style="fill:#373435"
             id="rect75"
             height="2.64679"
             width="2.6177199"
             y="95"
             x="355"
             class="fil2" />
          <rect
             style="fill:#373435"
             id="rect77"
             height="2.64679"
             width="2.6177199"
             y="89"
             x="362"
             class="fil2" />
          <rect
             style="fill:#373435"
             id="rect79"
             height="2.64679"
             width="2.6177199"
             y="95"
             x="362"
             class="fil2" />
          <rect
             style="fill:#373435"
             id="rect81"
             height="2.64679"
             width="2.6177199"
             y="89"
             x="368"
             class="fil2" />
          <rect
             style="fill:#373435"
             id="rect83"
             height="14.5071"
             width="19.253"
             y="121"
             x="351"
             class="fil2" />
          <rect
             style="fill:#373435"
             id="rect85"
             height="4.14393"
             width="8.7491198"
             y="103"
             x="357"
             class="fil2" />
          <rect
             style="fill:#373435"
             id="rect87"
             height="2.7690401"
             width="5.8463001"
             y="154"
             x="358"
             class="fil2" />
          <rect
             style="fill:#bdbfc1;stroke:#96989a;stroke-width:1.00323999"
             id="rect89"
             height="103.029"
             width="34.9827"
             y="84"
             x="378"
             class="fil0 str0" />
          <line
             style="fill:none;stroke:#96989a;stroke-width:1.00323999"
             id="line91"
             y2="112"
             x2="413"
             y1="112"
             x1="378"
             class="fil1 str0" />
          <line
             style="fill:none;stroke:#96989a;stroke-width:1.00323999"
             id="line93"
             y2="149"
             x2="413"
             y1="149"
             x1="378"
             class="fil1 str0" />
          <rect
             style="fill:#373435"
             id="rect95"
             height="2.64679"
             width="2.6177199"
             y="89"
             x="385"
             class="fil2" />
          <rect
             style="fill:#373435"
             id="rect97"
             height="2.64679"
             width="2.6177199"
             y="95"
             x="385"
             class="fil2" />
          <rect
             style="fill:#373435"
             id="rect99"
             height="2.64679"
             width="2.6177199"
             y="89"
             x="390"
             class="fil2" />
          <rect
             style="fill:#373435"
             id="rect101"
             height="2.64679"
             width="2.6177199"
             y="95"
             x="390"
             class="fil2" />
          <rect
             style="fill:#373435"
             id="rect103"
             height="2.64679"
             width="2.6177199"
             y="89"
             x="397"
             class="fil2" />
          <rect
             style="fill:#373435"
             id="rect105"
             height="2.64679"
             width="2.6177199"
             y="95"
             x="397"
             class="fil2" />
          <rect
             style="fill:#373435"
             id="rect107"
             height="2.64679"
             width="2.6177199"
             y="89"
             x="403"
             class="fil2" />
          <rect
             style="fill:#373435"
             id="rect109"
             height="14.5071"
             width="19.253"
             y="121"
             x="386"
             class="fil2" />
          <rect
             style="fill:#373435"
             id="rect111"
             height="4.14393"
             width="8.7491198"
             y="103"
             x="392"
             class="fil2" />
          <rect
             style="fill:#373435"
             id="rect113"
             height="2.7690401"
             width="5.8463001"
             y="154"
             x="393"
             class="fil2" />
          <rect
             style="fill:#bdbfc1;stroke:#96989a;stroke-width:1.00323999"
             id="rect115"
             height="103.029"
             width="34.9827"
             y="84"
             x="413"
             class="fil0 str0" />
          <line
             style="fill:none;stroke:#96989a;stroke-width:1.00323999"
             id="line117"
             y2="112"
             x2="448"
             y1="112"
             x1="413"
             class="fil1 str0" />
          <line
             style="fill:none;stroke:#96989a;stroke-width:1.00323999"
             id="line119"
             y2="149"
             x2="448"
             y1="149"
             x1="413"
             class="fil1 str0" />
          <rect
             style="fill:#373435"
             id="rect121"
             height="2.64679"
             width="2.6177199"
             y="89"
             x="420"
             class="fil2" />
          <rect
             style="fill:#373435"
             id="rect123"
             height="2.64679"
             width="2.6177199"
             y="95"
             x="420"
             class="fil2" />
          <rect
             style="fill:#373435"
             id="rect125"
             height="2.64679"
             width="2.6177199"
             y="89"
             x="425"
             class="fil2" />
          <rect
             style="fill:#373435"
             id="rect127"
             height="2.64679"
             width="2.6177199"
             y="95"
             x="425"
             class="fil2" />
          <rect
             style="fill:#373435"
             id="rect129"
             height="2.64679"
             width="2.6177199"
             y="89"
             x="432"
             class="fil2" />
          <rect
             style="fill:#373435"
             id="rect131"
             height="2.64679"
             width="2.6177199"
             y="95"
             x="432"
             class="fil2" />
          <rect
             style="fill:#373435"
             id="rect133"
             height="2.64679"
             width="2.6177199"
             y="89"
             x="438"
             class="fil2" />
          <rect
             style="fill:#373435"
             id="rect135"
             height="14.5071"
             width="19.253"
             y="121"
             x="421"
             class="fil2" />
          <rect
             style="fill:#373435"
             id="rect137"
             height="4.14393"
             width="8.7491198"
             y="103"
             x="426"
             class="fil2" />
          <rect
             style="fill:#373435"
             id="rect139"
             height="2.7690401"
             width="5.8463001"
             y="154"
             x="428"
             class="fil2" />
          <rect
             style="fill:#606062;stroke:#96989a;stroke-width:0.43336999"
             id="rect141"
             height="6.1581202"
             width="174.91299"
             y="188"
             x="273"
             class="fil3 str1" />
        </g>
        <path
           style="fill:#5f94cd"
           inkscape:connector-curvature="0"
           id="path143"
           d="m 77.785988,48.663375 -9.481975,0 0,-2.404848 1.693209,0 0,-3.779047 -13.884321,0 0,3.779047 2.031852,0 0,2.404848 -35.218764,0 0,24.392032 54.859999,0 0,-24.392032 z m -10.15926,0 -8.804691,0 0,-2.404848 8.804691,0 0,2.404848 z m -37.589258,2.404849 -3.047778,0 0,2.404848 3.047778,0 0,-2.404848 z m -1.354568,0.6871 c -0.677283,0 -1.015926,0.6871 -1.015926,1.030649 l 1.693211,0 c 0,-0.343549 -0.338644,-1.030649 -0.677285,-1.030649 z m 4.740988,-0.6871 -2.709136,0 0,2.404848 2.709136,0 0,-2.404848 z m -1.354568,0.6871 c -0.677284,0 -1.015927,0.6871 -1.015927,1.030649 l 2.031853,0 c 0,-0.343549 -0.677285,-1.030649 -1.015926,-1.030649 z m 5.079631,-0.6871 -3.047779,0 0,2.404848 3.047779,0 0,-2.404848 z m -1.693212,0.6871 c -0.338641,0 -1.015925,0.6871 -1.015925,1.030649 l 2.031853,0 c 0,-0.343549 -0.338643,-1.030649 -1.015928,-1.030649 z m -2.031851,10.306492 -2.709136,0 0,1.030649 2.709136,0 0,-1.030649 z m -8.46605,-0.343551 13.884322,0 0,7.558095 -13.884322,0 0,-7.558095 z m 14.222965,-0.6871 -14.561607,0 0,8.932293 14.900249,0 0,-8.932293 -0.338642,0 z m -13.54568,-10.99359 12.868394,0 0,9.275842 -12.868394,0 0,-9.275842 z m 12.868394,-0.34355 -13.545679,0 0,9.962943 13.884322,0 0,-9.962943 -0.338643,0 z m 36.234692,5.153245 -0.677284,0 0,-2.061297 -20.657161,0 0,16.490387 20.657161,0 0,-2.0613 0.677284,0 0,-1.717747 -0.677284,0 0,-8.932294 0.677284,0 0,-1.717749 z m -1.354568,-1.030649 -18.963952,0 0,14.429089 18.963952,0 0,-14.429089 z m -1.693211,6.527445 -7.111482,0 0,0.687099 7.111482,0 0,-0.687099 z m 0,1.374199 -7.111482,0 0,0.343551 7.111482,0 0,-0.343551 z m 0,1.3742 -7.111482,0 0,0.343548 7.111482,0 0,-0.343548 z m 0,1.030649 -7.111482,0 0,0.687099 7.111482,0 0,-0.687099 z m 0,1.374199 -7.111482,0 0,0.687098 7.111482,0 0,-0.687098 z m 0,1.3742 -7.111482,0 0,0.343547 7.111482,0 0,-0.343547 z m -16.254814,-6.870997 -0.677284,0 0,2.0613 0.677284,0 0,-2.0613 z m -31.832345,16.833938 53.505432,0 0,-3.091948 -53.505432,0 0,3.091948 z m -0.677284,-31.263025 7.788765,0 c 0,-4.122599 -3.386419,-7.901646 -7.788765,-7.901646 l 0,7.901646 z m 7.788765,1.030648 -7.788765,0 0,1.030649 7.788765,0 0,-1.030649 z m -8.466049,-1.030648 0,-7.901646 -3.725062,0 1.693211,7.901646 2.031851,0 z m 55.537283,-2.404849 -7.450124,0 0,2.404849 7.450124,0 0,-2.404849 z m -26.075433,5.153246 0,-1.717749 3.725063,0 0,1.717749 -3.725063,0 z m 3.725063,-2.061299 -3.725063,0 c 0,-2.061298 1.693211,-3.779047 3.725063,-3.779047 l 0,3.779047 z m -10.4979,6.870995 3.386418,-0.687098 -2.031852,4.809695 5.07963,0 -9.143332,10.993591 3.72506,-7.901644 -4.063702,0 3.047778,-7.214544 z"
           class="fil4" />
      </g>
      <rect
         class="fil1 str2"
         x="0.54347992"
         y="0.57530481"
         width="169.48248"
         height="114.53284"
         id="rect145"
         style="color:#000000;fill:none;stroke:#3e4095;stroke-width:0.90377927;stroke-linecap:butt;stroke-linejoin:miter;stroke-miterlimit:4;stroke-opacity:1;stroke-dasharray:none;stroke-dashoffset:0;visibility:visible;display:inline;overflow:visible;enable-background:accumulate" />
    </g>
  </g>
</svg>
