<?xml version="1.0" encoding="UTF-8" standalone="no"?>
<!-- Created with Inkscape (http://www.inkscape.org/) -->

<svg
   xmlns:dc="http://purl.org/dc/elements/1.1/"
   xmlns:cc="http://creativecommons.org/ns#"
   xmlns:rdf="http://www.w3.org/1999/02/22-rdf-syntax-ns#"
   xmlns:svg="http://www.w3.org/2000/svg"
   xmlns="http://www.w3.org/2000/svg"
   xmlns:sodipodi="http://sodipodi.sourceforge.net/DTD/sodipodi-0.dtd"
   xmlns:inkscape="http://www.inkscape.org/namespaces/inkscape"
   width="97.959854"
   height="99.250664"
   id="svg3166"
   version="1.1"
   inkscape:version="0.48.2 r9819"
   sodipodi:docname="New document 2">
  <defs
     id="defs3168" />
  <sodipodi:namedview
     id="base"
     pagecolor="#ffffff"
     bordercolor="#666666"
     borderopacity="1.0"
     inkscape:pageopacity="0.0"
     inkscape:pageshadow="2"
     inkscape:zoom="2.8"
     inkscape:cx="43.706132"
     inkscape:cy="53.367733"
     inkscape:document-units="px"
     inkscape:current-layer="layer1"
     showgrid="false"
     fit-margin-top="0"
     fit-margin-left="0"
     fit-margin-right="0"
     fit-margin-bottom="0"
     inkscape:window-width="1536"
     inkscape:window-height="801"
     inkscape:window-x="-8"
     inkscape:window-y="-8"
     inkscape:window-maximized="1" />
  <metadata
     id="metadata3171">
    <rdf:RDF>
      <cc:Work
         rdf:about="">
        <dc:format>image/svg+xml</dc:format>
        <dc:type
           rdf:resource="http://purl.org/dc/dcmitype/StillImage" />
        <dc:title></dc:title>
      </cc:Work>
    </rdf:RDF>
  </metadata>
  <g
     inkscape:label="Layer 1"
     inkscape:groupmode="layer"
     id="layer1"
     transform="translate(-265.75068,-312.02257)">
    <g
       id="g4294-3-1"
       transform="matrix(1.2715755,0,0,1.2715755,263.99191,310.2638)"
       inkscape:export-filename="C:\10 Ivan_Cloudforge_svn\40 PSEC_microgrid\trunk\PSEC Microgrid Digital Twin\Design\single-line microgrid diagram.png"
       inkscape:export-xdpi="400"
       inkscape:export-ydpi="400"
       style="stroke-width:2.69977427;stroke-miterlimit:4;stroke-dasharray:none">
      <path
         id="path4296-1-2"
         d="m 77.07143,40.448835 c 0,-20.84911 -16.632436,-37.7158056 -37.1692,-37.7158056 -20.536764,0 -37.1692006,16.8666956 -37.1692006,37.7158056 0,20.771024 16.6324366,37.63772 37.1692006,37.63772 20.536764,0 37.1692,-16.866696 37.1692,-37.63772"
         style="fill:#ffffff;fill-opacity:1;fill-rule:evenodd;stroke:none"
         inkscape:connector-curvature="0" />
      <path
         id="path4298-2-3"
         d="m 77.07143,40.448835 c 0,-20.84911 -16.632436,-37.7158056 -37.1692,-37.7158056 -20.536764,0 -37.1692006,16.8666956 -37.1692006,37.7158056 0,20.771024 16.6324366,37.63772 37.1692006,37.63772 20.536764,0 37.1692,-16.866696 37.1692,-37.63772"
         style="fill:none;stroke:#000000;stroke-width:2.69977427;stroke-linecap:round;stroke-linejoin:round;stroke-miterlimit:4;stroke-opacity:1;stroke-dasharray:none"
         inkscape:connector-curvature="0" />
      <path
         id="path4300-3-3"
         d="m 15.304965,40.448835 c 0,-6.949703 5.622232,-12.571935 12.571935,-12.571935 6.949704,0 12.571935,5.622232 12.571935,12.571935 0,6.949704 5.622232,12.571936 12.571936,12.571936 6.871617,0 12.493849,-5.622232 12.493849,-12.571936 0,0 0,0 0,0"
         style="fill:none;stroke:#000000;stroke-width:2.69977427;stroke-linecap:round;stroke-linejoin:round;stroke-miterlimit:4;stroke-opacity:1;stroke-dasharray:none"
         inkscape:connector-curvature="0" />
    </g>
  </g>
</svg>
