<?xml version="1.0" encoding="UTF-8" standalone="no"?>
<!-- Created with Inkscape (http://www.inkscape.org/) -->

<svg
   xmlns:dc="http://purl.org/dc/elements/1.1/"
   xmlns:cc="http://creativecommons.org/ns#"
   xmlns:rdf="http://www.w3.org/1999/02/22-rdf-syntax-ns#"
   xmlns:svg="http://www.w3.org/2000/svg"
   xmlns="http://www.w3.org/2000/svg"
   xmlns:sodipodi="http://sodipodi.sourceforge.net/DTD/sodipodi-0.dtd"
   xmlns:inkscape="http://www.inkscape.org/namespaces/inkscape"
   width="1036.8279"
   height="724.16058"
   id="svg2"
   version="1.1"
   inkscape:version="0.48.2 r9819"
   sodipodi:docname="online_inkscape_v2.svg">
  <defs
     id="defs4">
    <marker
       inkscape:stockid="Arrow2Lend"
       orient="auto"
       refY="0"
       refX="0"
       id="Arrow2Lend"
       style="overflow:visible">
      <path
         id="path4334"
         style="font-size:12px;fill-rule:evenodd;stroke-width:0.625;stroke-linejoin:round"
         d="M 8.7185878,4.0337352 -2.2072895,0.01601326 8.7185884,-4.0017078 c -1.7454984,2.3720609 -1.7354408,5.6174519 -6e-7,8.035443 z"
         transform="matrix(-1.1,0,0,-1.1,-1.1,0)"
         inkscape:connector-curvature="0" />
    </marker>
    <marker
       inkscape:stockid="Arrow2Lstart"
       orient="auto"
       refY="0"
       refX="0"
       id="Arrow2Lstart-1-4-9"
       style="overflow:visible"
       inkscape:isstock="true">
      <path
         inkscape:connector-curvature="0"
         id="path4614-1-8-7"
         style="fill:#000000;fill-opacity:1;fill-rule:evenodd;stroke:#000000;stroke-width:0.625;stroke-linejoin:round;stroke-opacity:1"
         d="M 8.7185878,4.0337352 -2.2072895,0.01601326 8.7185884,-4.0017078 c -1.7454984,2.3720609 -1.7354408,5.6174519 -6e-7,8.035443 z"
         transform="matrix(1.1,0,0,1.1,1.1,0)" />
    </marker>
    <marker
       inkscape:stockid="Arrow2Lstart"
       orient="auto"
       refY="0"
       refX="0"
       id="Arrow2Lstart-1-4-9-2"
       style="overflow:visible"
       inkscape:isstock="true">
      <path
         inkscape:connector-curvature="0"
         id="path4614-1-8-7-8"
         style="fill:#000000;fill-opacity:1;fill-rule:evenodd;stroke:#000000;stroke-width:0.625;stroke-linejoin:round;stroke-opacity:1"
         d="M 8.7185878,4.0337352 -2.2072895,0.01601326 8.7185884,-4.0017078 c -1.7454984,2.3720609 -1.7354408,5.6174519 -6e-7,8.035443 z"
         transform="matrix(1.1,0,0,1.1,1.1,0)" />
    </marker>
    <marker
       inkscape:stockid="Arrow2Lstart"
       orient="auto"
       refY="0"
       refX="0"
       id="Arrow2Lstart-1-4-9-9"
       style="overflow:visible"
       inkscape:isstock="true">
      <path
         inkscape:connector-curvature="0"
         id="path4614-1-8-7-0"
         style="fill:#000000;fill-opacity:1;fill-rule:evenodd;stroke:#000000;stroke-width:0.625;stroke-linejoin:round;stroke-opacity:1"
         d="M 8.7185878,4.0337352 -2.2072895,0.01601326 8.7185884,-4.0017078 c -1.7454984,2.3720609 -1.7354408,5.6174519 -6e-7,8.035443 z"
         transform="matrix(1.1,0,0,1.1,1.1,0)" />
    </marker>
    <marker
       inkscape:stockid="Arrow2Lstart"
       orient="auto"
       refY="0"
       refX="0"
       id="Arrow2Lstart-1-4-9-3"
       style="overflow:visible"
       inkscape:isstock="true">
      <path
         inkscape:connector-curvature="0"
         id="path4614-1-8-7-4"
         style="fill:#000000;fill-opacity:1;fill-rule:evenodd;stroke:#000000;stroke-width:0.625;stroke-linejoin:round;stroke-opacity:1"
         d="M 8.7185878,4.0337352 -2.2072895,0.01601326 8.7185884,-4.0017078 c -1.7454984,2.3720609 -1.7354408,5.6174519 -6e-7,8.035443 z"
         transform="matrix(1.1,0,0,1.1,1.1,0)" />
    </marker>
    <marker
       inkscape:stockid="Arrow2Lstart"
       orient="auto"
       refY="0"
       refX="0"
       id="Arrow2Lstart-1-4-9-4"
       style="overflow:visible"
       inkscape:isstock="true">
      <path
         inkscape:connector-curvature="0"
         id="path4614-1-8-7-9"
         style="fill:#000000;fill-opacity:1;fill-rule:evenodd;stroke:#000000;stroke-width:0.625;stroke-linejoin:round;stroke-opacity:1"
         d="M 8.7185878,4.0337352 -2.2072895,0.01601326 8.7185884,-4.0017078 c -1.7454984,2.3720609 -1.7354408,5.6174519 -6e-7,8.035443 z"
         transform="matrix(1.1,0,0,1.1,1.1,0)" />
    </marker>
    <marker
       inkscape:stockid="Arrow2Lstart"
       orient="auto"
       refY="0"
       refX="0"
       id="Arrow2Lstart-1-4-9-91"
       style="overflow:visible"
       inkscape:isstock="true">
      <path
         inkscape:connector-curvature="0"
         id="path4614-1-8-7-3"
         style="fill:#000000;fill-opacity:1;fill-rule:evenodd;stroke:#000000;stroke-width:0.625;stroke-linejoin:round;stroke-opacity:1"
         d="M 8.7185878,4.0337352 -2.2072895,0.01601326 8.7185884,-4.0017078 c -1.7454984,2.3720609 -1.7354408,5.6174519 -6e-7,8.035443 z"
         transform="matrix(1.1,0,0,1.1,1.1,0)" />
    </marker>
  </defs>
  <sodipodi:namedview
     id="base"
     pagecolor="#ffffff"
     bordercolor="#666666"
     borderopacity="1.0"
     inkscape:pageopacity="0.0"
     inkscape:pageshadow="2"
     inkscape:zoom="1.0048324"
     inkscape:cx="538.28043"
     inkscape:cy="277.81963"
     inkscape:document-units="px"
     inkscape:current-layer="layer1"
     showgrid="false"
     inkscape:window-width="1536"
     inkscape:window-height="801"
     inkscape:window-x="-8"
     inkscape:window-y="-8"
     inkscape:window-maximized="1"
     fit-margin-top="0"
     fit-margin-left="0"
     fit-margin-right="0"
     fit-margin-bottom="0" />
  <metadata
     id="metadata7">
    <rdf:RDF>
      <cc:Work
         rdf:about="">
        <dc:format>image/svg+xml</dc:format>
        <dc:type
           rdf:resource="http://purl.org/dc/dcmitype/StillImage" />
        <dc:title />
      </cc:Work>
    </rdf:RDF>
  </metadata>
  <g
     inkscape:label="Layer 1"
     inkscape:groupmode="layer"
     id="layer1"
     transform="translate(-740.03587,109.38221)">
    <path
       style="fill:none;stroke:#000000;stroke-width:7.92354727;stroke-linecap:butt;stroke-linejoin:miter;stroke-miterlimit:4;stroke-opacity:1;stroke-dasharray:none"
       d="m 743.99764,143.52922 914.69166,0.5964"
       id="path3429-6-8-8-6"
       inkscape:connector-curvature="0"
       sodipodi:nodetypes="cc"
       inkscape:export-filename="C:\10 Ivan_Cloudforge_svn\40 PSEC_microgrid\trunk\PSEC Microgrid Digital Twin\Design\single-line microgrid diagram.png"
       inkscape:export-xdpi="400"
       inkscape:export-ydpi="400" />
    <g
       id="g4294-3-1"
       transform="matrix(0.74080266,0,0,0.74080266,1153.4472,-110.40685)"
       inkscape:export-filename="C:\10 Ivan_Cloudforge_svn\40 PSEC_microgrid\trunk\PSEC Microgrid Digital Twin\Design\single-line microgrid diagram.png"
       inkscape:export-xdpi="400"
       inkscape:export-ydpi="400"
       style="stroke-width:2.69977427;stroke-miterlimit:4;stroke-dasharray:none">
      <path
         id="path4296-1-2"
         d="m 77.07143,40.448835 c 0,-20.84911 -16.632436,-37.7158056 -37.1692,-37.7158056 -20.536764,0 -37.1692006,16.8666956 -37.1692006,37.7158056 0,20.771024 16.6324366,37.63772 37.1692006,37.63772 20.536764,0 37.1692,-16.866696 37.1692,-37.63772"
         style="fill:#ffffff;fill-opacity:1;fill-rule:evenodd;stroke:none"
         inkscape:connector-curvature="0" />
      <path
         id="path4298-2-3"
         d="m 77.07143,40.448835 c 0,-20.84911 -16.632436,-37.7158056 -37.1692,-37.7158056 -20.536764,0 -37.1692006,16.8666956 -37.1692006,37.7158056 0,20.771024 16.6324366,37.63772 37.1692006,37.63772 20.536764,0 37.1692,-16.866696 37.1692,-37.63772"
         style="fill:none;stroke:#000000;stroke-width:2.69977427;stroke-linecap:round;stroke-linejoin:round;stroke-miterlimit:4;stroke-opacity:1;stroke-dasharray:none"
         inkscape:connector-curvature="0" />
      <path
         id="path4300-3-3"
         d="m 15.304965,40.448835 c 0,-6.949703 5.622232,-12.571935 12.571935,-12.571935 6.949704,0 12.571935,5.622232 12.571935,12.571935 0,6.949704 5.622232,12.571936 12.571936,12.571936 6.871617,0 12.493849,-5.622232 12.493849,-12.571936 0,0 0,0 0,0"
         style="fill:none;stroke:#000000;stroke-width:2.69977427;stroke-linecap:round;stroke-linejoin:round;stroke-miterlimit:4;stroke-opacity:1;stroke-dasharray:none"
         inkscape:connector-curvature="0" />
    </g>
    <flowRoot
       xml:space="preserve"
       id="flowRoot4182"
       style="font-size:40px;font-style:normal;font-weight:normal;line-height:125%;letter-spacing:0px;word-spacing:0px;fill:#000000;fill-opacity:1;stroke:none;font-family:Sans"><flowRegion
         id="flowRegion4184"><rect
           id="rect4186"
           width="92.14286"
           height="64.285713"
           x="174.28572"
           y="-190.49496" /></flowRegion><flowPara
         id="flowPara4188" /></flowRoot>    <flowRoot
       xml:space="preserve"
       id="flowRoot4190"
       style="font-size:40px;font-style:normal;font-weight:normal;line-height:125%;letter-spacing:0px;word-spacing:0px;fill:#000000;fill-opacity:1;stroke:none;font-family:Sans"><flowRegion
         id="flowRegion4192"><rect
           id="rect4194"
           width="110.71429"
           height="88.571426"
           x="172.14285"
           y="-196.92354" /></flowRegion><flowPara
         id="flowPara4196" /></flowRoot>    <path
       style="fill:#000000;fill-opacity:1;stroke:#000000;stroke-width:2;stroke-linecap:butt;stroke-linejoin:miter;stroke-miterlimit:4;stroke-opacity:1;stroke-dasharray:none"
       d="m 1182.6013,145.88117 0,-198.005234"
       id="path4198"
       inkscape:connector-curvature="0" />
    <rect
       style="color:#000000;fill:#ffffff;fill-opacity:1;fill-rule:nonzero;stroke:#280b0b;stroke-width:2;stroke-linecap:butt;stroke-linejoin:miter;stroke-miterlimit:4;stroke-opacity:1;stroke-dasharray:none;stroke-dashoffset:0;visibility:visible;display:inline;overflow:visible;enable-background:accumulate"
       id="rect4651-3"
       width="38.068291"
       height="27.673849"
       x="1164.7146"
       y="10.762012" />
    <path
       style="color:#000000;fill:none;stroke:#000000;stroke-width:2;stroke-linecap:butt;stroke-linejoin:miter;stroke-miterlimit:4;stroke-opacity:1;stroke-dasharray:none;stroke-dashoffset:0;marker-end:url(#Arrow2Lend);visibility:visible;display:inline;overflow:visible;enable-background:accumulate"
       d="m 1073.8336,145.71121 c 0,460.89349 0,460.89349 0,460.89349"
       id="path4465-0-8-24-0"
       inkscape:connector-curvature="0" />
    <rect
       style="fill:#ffffff;fill-opacity:1;stroke:#280b0b;stroke-width:2;stroke-miterlimit:4;stroke-dasharray:none"
       id="rect4651-3-9-8-7-7-8-6"
       width="38.068298"
       height="27.673853"
       x="1054.3397"
       y="184.57715" />
    <text
       xml:space="preserve"
       style="font-size:27.50000381px;font-style:normal;font-variant:normal;font-weight:normal;font-stretch:normal;text-align:start;line-height:125%;letter-spacing:0px;word-spacing:0px;writing-mode:lr-tb;text-anchor:start;fill:#000000;fill-opacity:1;stroke:none;font-family:sans-serif;-inkscape-font-specification:'sans-serif, Normal'"
       x="1126.7167"
       y="606.20056"
       id="text3562-6-01-5-8-3-1-2-9-6-3"
       sodipodi:linespacing="125%"><tspan
         sodipodi:role="line"
         x="1126.7167"
         y="606.20056"
         style="text-align:center;text-anchor:middle"
         id="tspan4856-1-0-9">Load</tspan></text>
    <path
       style="color:#000000;fill:none;stroke:#000000;stroke-width:2;stroke-linecap:butt;stroke-linejoin:miter;stroke-miterlimit:4;stroke-opacity:1;stroke-dasharray:none;stroke-dashoffset:0;marker-end:url(#Arrow2Lend);visibility:visible;display:inline;overflow:visible;enable-background:accumulate"
       d="m 1285.8736,146.51448 c 0,461.67893 0,461.67893 0,461.67893"
       id="path4465-0-8-24-4"
       inkscape:connector-curvature="0" />
    <rect
       style="fill:#ffffff;fill-opacity:1;stroke:#280b0b;stroke-width:2;stroke-miterlimit:4;stroke-dasharray:none"
       id="rect4651-3-9-8-7-7-8-60"
       width="38.068298"
       height="27.673853"
       x="1266.3798"
       y="184.91148" />
    <text
       xml:space="preserve"
       style="font-size:27.50000381px;font-style:normal;font-variant:normal;font-weight:normal;font-stretch:normal;text-align:start;line-height:125%;letter-spacing:0px;word-spacing:0px;writing-mode:lr-tb;text-anchor:start;fill:#000000;fill-opacity:1;stroke:none;font-family:sans-serif;-inkscape-font-specification:'sans-serif, Normal'"
       x="1347.2721"
       y="606.72485"
       id="text3562-6-01-5-8-3-1-2-9-6-6"
       sodipodi:linespacing="125%"><tspan
         sodipodi:role="line"
         x="1347.2721"
         y="606.72485"
         style="text-align:center;text-anchor:middle"
         id="tspan3217">EV Port</tspan></text>
    <g
       transform="matrix(0,-1.4227387,-1.3995433,0,1646.2308,612.03343)"
       style="fill-rule:evenodd"
       id="g4774">
      <g
         transform="translate(-0.87999792,-0.16187715)"
         id="g4552">
        <g
           id="_3275945118544"
           transform="matrix(0.33864196,0,0,0.34354973,1.9301863,11.560006)">
          <rect
             style="fill:#bdbfc1;stroke:#96989a;stroke-width:1.00323999"
             id="rect11-58"
             height="103.029"
             width="34.9827"
             y="84"
             x="273"
             class="fil0 str0" />
          <line
             style="fill:none;stroke:#96989a;stroke-width:1.00323999"
             id="line13"
             y2="112"
             x2="308"
             y1="112"
             x1="273"
             class="fil1 str0" />
          <line
             style="fill:none;stroke:#96989a;stroke-width:1.00323999"
             id="line15"
             y2="149"
             x2="308"
             y1="149"
             x1="273"
             class="fil1 str0" />
          <rect
             style="fill:#373435"
             id="rect17-6"
             height="2.64679"
             width="2.6177199"
             y="89"
             x="280"
             class="fil2" />
          <rect
             style="fill:#373435"
             id="rect19-7"
             height="2.64679"
             width="2.6177199"
             y="95"
             x="280"
             class="fil2" />
          <rect
             style="fill:#373435"
             id="rect21-7"
             height="2.64679"
             width="2.6177199"
             y="89"
             x="285"
             class="fil2" />
          <rect
             style="fill:#373435"
             id="rect23-2"
             height="2.64679"
             width="2.6177199"
             y="95"
             x="285"
             class="fil2" />
          <rect
             style="fill:#373435"
             id="rect25-2"
             height="2.64679"
             width="2.6177199"
             y="89"
             x="292"
             class="fil2" />
          <rect
             style="fill:#373435"
             id="rect27-9"
             height="2.64679"
             width="2.6177199"
             y="95"
             x="292"
             class="fil2" />
          <rect
             style="fill:#373435"
             id="rect29-4"
             height="2.64679"
             width="2.6177199"
             y="89"
             x="298"
             class="fil2" />
          <rect
             style="fill:#373435"
             id="rect31-1"
             height="14.5071"
             width="19.253"
             y="121"
             x="281"
             class="fil2" />
          <rect
             style="fill:#373435"
             id="rect33-9"
             height="4.14393"
             width="8.7491198"
             y="103"
             x="287"
             class="fil2" />
          <rect
             style="fill:#373435"
             id="rect35-6"
             height="2.7690401"
             width="5.8463001"
             y="154"
             x="288"
             class="fil2" />
          <rect
             style="fill:#bdbfc1;stroke:#96989a;stroke-width:1.00323999"
             id="rect37-9"
             height="103.029"
             width="34.9827"
             y="84"
             x="308"
             class="fil0 str0" />
          <line
             style="fill:none;stroke:#96989a;stroke-width:1.00323999"
             id="line39"
             y2="112"
             x2="343"
             y1="112"
             x1="308"
             class="fil1 str0" />
          <line
             style="fill:none;stroke:#96989a;stroke-width:1.00323999"
             id="line41"
             y2="149"
             x2="343"
             y1="149"
             x1="308"
             class="fil1 str0" />
          <rect
             style="fill:#373435"
             id="rect43-8"
             height="2.64679"
             width="2.6177199"
             y="89"
             x="315"
             class="fil2" />
          <rect
             style="fill:#373435"
             id="rect45"
             height="2.64679"
             width="2.6177199"
             y="95"
             x="315"
             class="fil2" />
          <rect
             style="fill:#373435"
             id="rect47"
             height="2.64679"
             width="2.6177199"
             y="89"
             x="320"
             class="fil2" />
          <rect
             style="fill:#373435"
             id="rect49"
             height="2.64679"
             width="2.6177199"
             y="95"
             x="320"
             class="fil2" />
          <rect
             style="fill:#373435"
             id="rect51-2"
             height="2.64679"
             width="2.6177199"
             y="89"
             x="327"
             class="fil2" />
          <rect
             style="fill:#373435"
             id="rect53"
             height="2.64679"
             width="2.6177199"
             y="95"
             x="327"
             class="fil2" />
          <rect
             style="fill:#373435"
             id="rect55"
             height="2.64679"
             width="2.6177199"
             y="89"
             x="333"
             class="fil2" />
          <rect
             style="fill:#373435"
             id="rect57"
             height="14.5071"
             width="19.253"
             y="121"
             x="316"
             class="fil2" />
          <rect
             style="fill:#373435"
             id="rect59"
             height="4.14393"
             width="8.7491198"
             y="103"
             x="322"
             class="fil2" />
          <rect
             style="fill:#373435"
             id="rect61"
             height="2.7690401"
             width="5.8463001"
             y="154"
             x="323"
             class="fil2" />
          <rect
             style="fill:#bdbfc1;stroke:#96989a;stroke-width:1.00323999"
             id="rect63"
             height="103.029"
             width="34.9827"
             y="84"
             x="343"
             class="fil0 str0" />
          <line
             style="fill:none;stroke:#96989a;stroke-width:1.00323999"
             id="line65"
             y2="112"
             x2="378"
             y1="112"
             x1="343"
             class="fil1 str0" />
          <line
             style="fill:none;stroke:#96989a;stroke-width:1.00323999"
             id="line67"
             y2="149"
             x2="378"
             y1="149"
             x1="343"
             class="fil1 str0" />
          <rect
             style="fill:#373435"
             id="rect69"
             height="2.64679"
             width="2.6177199"
             y="89"
             x="350"
             class="fil2" />
          <rect
             style="fill:#373435"
             id="rect71"
             height="2.64679"
             width="2.6177199"
             y="95"
             x="350"
             class="fil2" />
          <rect
             style="fill:#373435"
             id="rect73"
             height="2.64679"
             width="2.6177199"
             y="89"
             x="355"
             class="fil2" />
          <rect
             style="fill:#373435"
             id="rect75"
             height="2.64679"
             width="2.6177199"
             y="95"
             x="355"
             class="fil2" />
          <rect
             style="fill:#373435"
             id="rect77"
             height="2.64679"
             width="2.6177199"
             y="89"
             x="362"
             class="fil2" />
          <rect
             style="fill:#373435"
             id="rect79"
             height="2.64679"
             width="2.6177199"
             y="95"
             x="362"
             class="fil2" />
          <rect
             style="fill:#373435"
             id="rect81"
             height="2.64679"
             width="2.6177199"
             y="89"
             x="368"
             class="fil2" />
          <rect
             style="fill:#373435"
             id="rect83"
             height="14.5071"
             width="19.253"
             y="121"
             x="351"
             class="fil2" />
          <rect
             style="fill:#373435"
             id="rect85"
             height="4.14393"
             width="8.7491198"
             y="103"
             x="357"
             class="fil2" />
          <rect
             style="fill:#373435"
             id="rect87"
             height="2.7690401"
             width="5.8463001"
             y="154"
             x="358"
             class="fil2" />
          <rect
             style="fill:#bdbfc1;stroke:#96989a;stroke-width:1.00323999"
             id="rect89"
             height="103.029"
             width="34.9827"
             y="84"
             x="378"
             class="fil0 str0" />
          <line
             style="fill:none;stroke:#96989a;stroke-width:1.00323999"
             id="line91"
             y2="112"
             x2="413"
             y1="112"
             x1="378"
             class="fil1 str0" />
          <line
             style="fill:none;stroke:#96989a;stroke-width:1.00323999"
             id="line93"
             y2="149"
             x2="413"
             y1="149"
             x1="378"
             class="fil1 str0" />
          <rect
             style="fill:#373435"
             id="rect95"
             height="2.64679"
             width="2.6177199"
             y="89"
             x="385"
             class="fil2" />
          <rect
             style="fill:#373435"
             id="rect97"
             height="2.64679"
             width="2.6177199"
             y="95"
             x="385"
             class="fil2" />
          <rect
             style="fill:#373435"
             id="rect99"
             height="2.64679"
             width="2.6177199"
             y="89"
             x="390"
             class="fil2" />
          <rect
             style="fill:#373435"
             id="rect101"
             height="2.64679"
             width="2.6177199"
             y="95"
             x="390"
             class="fil2" />
          <rect
             style="fill:#373435"
             id="rect103"
             height="2.64679"
             width="2.6177199"
             y="89"
             x="397"
             class="fil2" />
          <rect
             style="fill:#373435"
             id="rect105"
             height="2.64679"
             width="2.6177199"
             y="95"
             x="397"
             class="fil2" />
          <rect
             style="fill:#373435"
             id="rect107"
             height="2.64679"
             width="2.6177199"
             y="89"
             x="403"
             class="fil2" />
          <rect
             style="fill:#373435"
             id="rect109"
             height="14.5071"
             width="19.253"
             y="121"
             x="386"
             class="fil2" />
          <rect
             style="fill:#373435"
             id="rect111"
             height="4.14393"
             width="8.7491198"
             y="103"
             x="392"
             class="fil2" />
          <rect
             style="fill:#373435"
             id="rect113"
             height="2.7690401"
             width="5.8463001"
             y="154"
             x="393"
             class="fil2" />
          <rect
             style="fill:#bdbfc1;stroke:#96989a;stroke-width:1.00323999"
             id="rect115"
             height="103.029"
             width="34.9827"
             y="84"
             x="413"
             class="fil0 str0" />
          <line
             style="fill:none;stroke:#96989a;stroke-width:1.00323999"
             id="line117"
             y2="112"
             x2="448"
             y1="112"
             x1="413"
             class="fil1 str0" />
          <line
             style="fill:none;stroke:#96989a;stroke-width:1.00323999"
             id="line119"
             y2="149"
             x2="448"
             y1="149"
             x1="413"
             class="fil1 str0" />
          <rect
             style="fill:#373435"
             id="rect121"
             height="2.64679"
             width="2.6177199"
             y="89"
             x="420"
             class="fil2" />
          <rect
             style="fill:#373435"
             id="rect123"
             height="2.64679"
             width="2.6177199"
             y="95"
             x="420"
             class="fil2" />
          <rect
             style="fill:#373435"
             id="rect125"
             height="2.64679"
             width="2.6177199"
             y="89"
             x="425"
             class="fil2" />
          <rect
             style="fill:#373435"
             id="rect127"
             height="2.64679"
             width="2.6177199"
             y="95"
             x="425"
             class="fil2" />
          <rect
             style="fill:#373435"
             id="rect129"
             height="2.64679"
             width="2.6177199"
             y="89"
             x="432"
             class="fil2" />
          <rect
             style="fill:#373435"
             id="rect131"
             height="2.64679"
             width="2.6177199"
             y="95"
             x="432"
             class="fil2" />
          <rect
             style="fill:#373435"
             id="rect133"
             height="2.64679"
             width="2.6177199"
             y="89"
             x="438"
             class="fil2" />
          <rect
             style="fill:#373435"
             id="rect135"
             height="14.5071"
             width="19.253"
             y="121"
             x="421"
             class="fil2" />
          <rect
             style="fill:#373435"
             id="rect137"
             height="4.14393"
             width="8.7491198"
             y="103"
             x="426"
             class="fil2" />
          <rect
             style="fill:#373435"
             id="rect139"
             height="2.7690401"
             width="5.8463001"
             y="154"
             x="428"
             class="fil2" />
          <rect
             style="fill:#606062;stroke:#96989a;stroke-width:0.43336999"
             id="rect141"
             height="6.1581202"
             width="174.91299"
             y="188"
             x="273"
             class="fil3 str1" />
        </g>
        <path
           style="fill:#5f94cd"
           inkscape:connector-curvature="0"
           id="path143"
           d="m 77.785988,48.663375 -9.481975,0 0,-2.404848 1.693209,0 0,-3.779047 -13.884321,0 0,3.779047 2.031852,0 0,2.404848 -35.218764,0 0,24.392032 54.859999,0 0,-24.392032 z m -10.15926,0 -8.804691,0 0,-2.404848 8.804691,0 0,2.404848 z m -37.589258,2.404849 -3.047778,0 0,2.404848 3.047778,0 0,-2.404848 z m -1.354568,0.6871 c -0.677283,0 -1.015926,0.6871 -1.015926,1.030649 l 1.693211,0 c 0,-0.343549 -0.338644,-1.030649 -0.677285,-1.030649 z m 4.740988,-0.6871 -2.709136,0 0,2.404848 2.709136,0 0,-2.404848 z m -1.354568,0.6871 c -0.677284,0 -1.015927,0.6871 -1.015927,1.030649 l 2.031853,0 c 0,-0.343549 -0.677285,-1.030649 -1.015926,-1.030649 z m 5.079631,-0.6871 -3.047779,0 0,2.404848 3.047779,0 0,-2.404848 z m -1.693212,0.6871 c -0.338641,0 -1.015925,0.6871 -1.015925,1.030649 l 2.031853,0 c 0,-0.343549 -0.338643,-1.030649 -1.015928,-1.030649 z m -2.031851,10.306492 -2.709136,0 0,1.030649 2.709136,0 0,-1.030649 z m -8.46605,-0.343551 13.884322,0 0,7.558095 -13.884322,0 0,-7.558095 z m 14.222965,-0.6871 -14.561607,0 0,8.932293 14.900249,0 0,-8.932293 -0.338642,0 z m -13.54568,-10.99359 12.868394,0 0,9.275842 -12.868394,0 0,-9.275842 z m 12.868394,-0.34355 -13.545679,0 0,9.962943 13.884322,0 0,-9.962943 -0.338643,0 z m 36.234692,5.153245 -0.677284,0 0,-2.061297 -20.657161,0 0,16.490387 20.657161,0 0,-2.0613 0.677284,0 0,-1.717747 -0.677284,0 0,-8.932294 0.677284,0 0,-1.717749 z m -1.354568,-1.030649 -18.963952,0 0,14.429089 18.963952,0 0,-14.429089 z m -1.693211,6.527445 -7.111482,0 0,0.687099 7.111482,0 0,-0.687099 z m 0,1.374199 -7.111482,0 0,0.343551 7.111482,0 0,-0.343551 z m 0,1.3742 -7.111482,0 0,0.343548 7.111482,0 0,-0.343548 z m 0,1.030649 -7.111482,0 0,0.687099 7.111482,0 0,-0.687099 z m 0,1.374199 -7.111482,0 0,0.687098 7.111482,0 0,-0.687098 z m 0,1.3742 -7.111482,0 0,0.343547 7.111482,0 0,-0.343547 z m -16.254814,-6.870997 -0.677284,0 0,2.0613 0.677284,0 0,-2.0613 z m -31.832345,16.833938 53.505432,0 0,-3.091948 -53.505432,0 0,3.091948 z m -0.677284,-31.263025 7.788765,0 c 0,-4.122599 -3.386419,-7.901646 -7.788765,-7.901646 l 0,7.901646 z m 7.788765,1.030648 -7.788765,0 0,1.030649 7.788765,0 0,-1.030649 z m -8.466049,-1.030648 0,-7.901646 -3.725062,0 1.693211,7.901646 2.031851,0 z m 55.537283,-2.404849 -7.450124,0 0,2.404849 7.450124,0 0,-2.404849 z m -26.075433,5.153246 0,-1.717749 3.725063,0 0,1.717749 -3.725063,0 z m 3.725063,-2.061299 -3.725063,0 c 0,-2.061298 1.693211,-3.779047 3.725063,-3.779047 l 0,3.779047 z m -10.4979,6.870995 3.386418,-0.687098 -2.031852,4.809695 5.07963,0 -9.143332,10.993591 3.72506,-7.901644 -4.063702,0 3.047778,-7.214544 z"
           class="fil4" />
      </g>
      <rect
         class="fil1 str2"
         x="0.54347992"
         y="0.57530481"
         width="169.48248"
         height="114.53284"
         id="rect145"
         style="color:#000000;fill:none;stroke:#3e4095;stroke-width:0.90377927;stroke-linecap:butt;stroke-linejoin:miter;stroke-miterlimit:4;stroke-opacity:1;stroke-dasharray:none;stroke-dashoffset:0;visibility:visible;display:inline;overflow:visible;enable-background:accumulate" />
    </g>
    <path
       style="fill:none;stroke:#000000;stroke-width:2;stroke-linecap:butt;stroke-linejoin:miter;stroke-miterlimit:4;stroke-opacity:1;stroke-dasharray:none"
       d="m 1564.8357,143.33028 0,226.92045"
       id="path4284-7-9"
       inkscape:connector-curvature="0" />
    <text
       xml:space="preserve"
       style="font-size:27.50000381px;font-style:normal;font-variant:normal;font-weight:normal;font-stretch:normal;text-align:start;line-height:125%;letter-spacing:0px;word-spacing:0px;writing-mode:lr-tb;text-anchor:start;fill:#000000;fill-opacity:1;stroke:none;font-family:sans-serif;-inkscape-font-specification:'sans-serif, Normal'"
       x="1711.3096"
       y="608.99103"
       id="text3562-6-01-5-8-3-1-2-9-9-9-4"
       sodipodi:linespacing="125%"><tspan
         sodipodi:role="line"
         x="1711.3096"
         y="608.99103"
         style="text-align:center;text-anchor:middle"
         id="tspan4856-1-6-5-8">NG genset</tspan><tspan
         sodipodi:role="line"
         x="1711.3096"
         y="643.36603"
         style="text-align:center;text-anchor:middle"
         id="tspan4896" /></text>
    <flowRoot
       xml:space="preserve"
       id="flowRoot3615"
       style="font-size:40px;font-style:normal;font-weight:normal;line-height:125%;letter-spacing:0px;word-spacing:0px;fill:#000000;fill-opacity:1;stroke:none;font-family:Sans"
       transform="translate(-203.89726,-404.39529)"><flowRegion
         id="flowRegion3617"><rect
           id="rect3619"
           width="394.09558"
           height="380.1629"
           x="2296.9004"
           y="113.45175" /></flowRegion><flowPara
         id="flowPara3621" /></flowRoot>    <text
       xml:space="preserve"
       style="font-size:40px;font-style:normal;font-weight:normal;line-height:125%;letter-spacing:0px;word-spacing:0px;fill:#000000;fill-opacity:1;stroke:none;font-family:Sans"
       x="2263.064"
       y="1062.8638"
       id="text4529"
       sodipodi:linespacing="125%"
       transform="translate(-203.89726,-404.39529)"><tspan
         sodipodi:role="line"
         id="tspan4531"
         x="2263.064"
         y="1062.8638" /></text>
    <text
       xml:space="preserve"
       style="font-size:27.5px;font-style:normal;font-variant:normal;font-weight:normal;font-stretch:normal;text-align:start;line-height:125%;letter-spacing:0px;word-spacing:0px;writing-mode:lr-tb;text-anchor:start;fill:#000000;fill-opacity:1;stroke:none;font-family:sans-serif;-inkscape-font-specification:'sans-serif, Normal'"
       x="2056.2227"
       y="694.18604"
       id="text3581-9-2-11-7-1-2"
       sodipodi:linespacing="125%"
       inkscape:transform-center-y="-10.48218"><tspan
         sodipodi:role="line"
         id="tspan3583-9-4-52-6-4-3"
         x="2056.2227"
         y="694.18604" /></text>
    <rect
       style="fill:#ffffff;fill-opacity:1;stroke:#280b0b;stroke-width:2;stroke-miterlimit:4;stroke-dasharray:none"
       id="rect4651-3-9-8-7-7-1-0-2-2"
       width="38.068298"
       height="27.673853"
       x="1545.8346"
       y="186.06697" />
    <flowRoot
       xml:space="preserve"
       id="flowRoot5129"
       style="font-size:40px;font-style:normal;font-weight:normal;line-height:125%;letter-spacing:0px;word-spacing:0px;fill:#000000;fill-opacity:1;stroke:none;font-family:Sans"><flowRegion
         id="flowRegion5131"><rect
           id="rect5133"
           width="1775.4204"
           height="993.20044"
           x="-9.9519081"
           y="-73.123085" /></flowRegion><flowPara
         id="flowPara5135" /></flowRoot>    <path
       style="color:#000000;fill:none;stroke:#000000;stroke-width:2;stroke-linecap:butt;stroke-linejoin:miter;stroke-miterlimit:4;stroke-opacity:1;stroke-dasharray:none;stroke-dashoffset:0;visibility:visible;display:inline;overflow:visible;enable-background:accumulate"
       d="m 829.66376,148.23449 c 0,223.4474 0,223.4474 0,223.4474"
       id="path4465-0-8-6"
       inkscape:connector-curvature="0" />
    <rect
       style="fill:#ffffff;fill-opacity:1;stroke:#280b0b;stroke-width:2;stroke-miterlimit:4;stroke-dasharray:none"
       id="rect4651-3-9-8-7-7-1"
       width="38.068298"
       height="27.673853"
       x="810.16998"
       y="185.13283" />
    <g
       transform="matrix(0,0.12849054,-0.12849054,0,909.36189,370.8332)"
       style="fill-rule:evenodd;stroke-width:14.56656837;stroke-miterlimit:4;stroke-dasharray:none"
       id="g4610">
      <rect
         class="fil6 str3"
         x="6.3468857"
         y="6.3415298"
         width="1866.8689"
         height="1263.4244"
         id="rect51-1"
         style="color:#000000;fill:none;stroke:#3e4095;stroke-width:14.56656837;stroke-linecap:butt;stroke-linejoin:miter;stroke-miterlimit:4;stroke-opacity:1;stroke-dasharray:none;stroke-dashoffset:0;visibility:visible;display:inline;overflow:visible;enable-background:accumulate" />
      <g
         transform="matrix(1.13267,0,0,1.13267,-139.22248,368.40672)"
         id="g4458"
         style="stroke-width:12.86038113;stroke-miterlimit:4;stroke-dasharray:none">
        <g
           id="_2986496686528"
           transform="translate(120.4433,-223.68041)"
           style="stroke-width:12.86038113;stroke-miterlimit:4;stroke-dasharray:none">
          <rect
             style="fill:#bdbfc1;stroke:#96989a;stroke-width:12.86038113;stroke-miterlimit:4;stroke-dasharray:none"
             id="rect11-8"
             height="364"
             width="130"
             y="282"
             x="975"
             class="fil0 str0" />
          <rect
             style="fill:#4b4b4d;stroke:#96989a;stroke-width:12.86038113;stroke-miterlimit:4;stroke-dasharray:none"
             id="rect13-9"
             height="36.807499"
             width="130.423"
             y="245"
             x="975"
             class="fil1 str0" />
          <polygon
             style="fill:#3f3d3e;stroke:#606062;stroke-width:12.86038113;stroke-miterlimit:4;stroke-dasharray:none"
             id="polygon15-8"
             points="985,255 985,272 1096,272 1096,255 "
             class="fil2 str1" />
          <rect
             style="fill:#373435;stroke-width:12.86038113;stroke-miterlimit:4;stroke-dasharray:none"
             id="rect17-4"
             height="47.1161"
             width="7.2434602"
             y="434"
             x="1211"
             class="fil3" />
          <rect
             style="fill:#373435;stroke-width:12.86038113;stroke-miterlimit:4;stroke-dasharray:none"
             id="rect19-1"
             height="47.1161"
             width="7.2434602"
             y="434"
             x="1086"
             class="fil3" />
          <rect
             style="fill:#bdbfc1;stroke:#96989a;stroke-width:12.86038113;stroke-miterlimit:4;stroke-dasharray:none"
             id="rect21-4"
             height="364"
             width="130"
             y="282"
             x="1105"
             class="fil0 str0" />
          <rect
             style="fill:#4b4b4d;stroke:#96989a;stroke-width:12.86038113;stroke-miterlimit:4;stroke-dasharray:none"
             id="rect23-39"
             height="36.807499"
             width="130.423"
             y="245"
             x="1105"
             class="fil1 str0" />
          <rect
             style="fill:#373435;stroke-width:12.86038113;stroke-miterlimit:4;stroke-dasharray:none"
             id="rect25-8"
             height="47.1161"
             width="7.2434602"
             y="434"
             x="1216"
             class="fil3" />
          <rect
             style="fill:#bdbfc1;stroke:#96989a;stroke-width:12.86038113;stroke-miterlimit:4;stroke-dasharray:none"
             id="rect27-8"
             height="364"
             width="130"
             y="282"
             x="1236"
             class="fil0 str0" />
          <rect
             style="fill:#4b4b4d;stroke:#96989a;stroke-width:12.86038113;stroke-miterlimit:4;stroke-dasharray:none"
             id="rect29-0"
             height="36.807499"
             width="130.423"
             y="245"
             x="1236"
             class="fil1 str0" />
          <rect
             style="fill:#373435;stroke-width:12.86038113;stroke-miterlimit:4;stroke-dasharray:none"
             id="rect31-8"
             height="47.1161"
             width="7.2434602"
             y="434"
             x="1347"
             class="fil3" />
          <rect
             style="fill:#bdbfc1;stroke:#96989a;stroke-width:12.86038113;stroke-miterlimit:4;stroke-dasharray:none"
             id="rect33-7"
             height="364"
             width="130"
             y="282"
             x="1366"
             class="fil0 str0" />
          <rect
             style="fill:#4b4b4d;stroke:#96989a;stroke-width:12.86038113;stroke-miterlimit:4;stroke-dasharray:none"
             id="rect35-78"
             height="36.807499"
             width="130.423"
             y="245"
             x="1366"
             class="fil1 str0" />
          <rect
             style="fill:#373435;stroke-width:12.86038113;stroke-miterlimit:4;stroke-dasharray:none"
             id="rect37-3"
             height="47.1161"
             width="7.2434602"
             y="434"
             x="1378"
             class="fil3" />
          <rect
             style="fill:#4b4b4d;stroke:#96989a;stroke-width:12.86038113;stroke-miterlimit:4;stroke-dasharray:none"
             id="rect39-8"
             height="22.4872"
             width="521.69098"
             y="667"
             x="975"
             class="fil1 str0" />
          <rect
             style="fill:#96989a;stroke:#848688;stroke-width:12.86038113;stroke-miterlimit:4;stroke-dasharray:none"
             id="rect41-3"
             height="21.3013"
             width="521.69098"
             y="646"
             x="975"
             class="fil4 str2" />
          <rect
             style="fill:#d2d3d5;stroke:#96989a;stroke-width:12.86038113;stroke-miterlimit:4;stroke-dasharray:none"
             id="rect43-71"
             height="10.6507"
             width="521.69098"
             y="234"
             x="975"
             class="fil5 str0" />
          <polygon
             style="fill:#3f3d3e;stroke:#606062;stroke-width:12.86038113;stroke-miterlimit:4;stroke-dasharray:none"
             id="polygon45-0"
             points="1115,255 1115,272 1226,272 1226,255 "
             class="fil2 str1" />
          <polygon
             style="fill:#3f3d3e;stroke:#606062;stroke-width:12.86038113;stroke-miterlimit:4;stroke-dasharray:none"
             id="polygon47-7"
             points="1246,255 1246,272 1356,272 1356,255 "
             class="fil2 str1" />
          <polygon
             style="fill:#3f3d3e;stroke:#606062;stroke-width:12.86038113;stroke-miterlimit:4;stroke-dasharray:none"
             id="polygon49-3"
             points="1376,255 1376,272 1487,272 1487,255 "
             class="fil2 str1" />
        </g>
        <g
           id="_2986496669824"
           transform="translate(120.4433,-223.68041)"
           style="stroke-width:12.86038113;stroke-miterlimit:4;stroke-dasharray:none">
          <path
             style="fill:#5f94cd;fill-rule:nonzero;stroke-width:12.86038113;stroke-miterlimit:4;stroke-dasharray:none"
             inkscape:connector-curvature="0"
             id="path54"
             d="m 819,626 0,-328 -567,0 0,328 567,0 z m -5,21 0,0 -558,0 c -16,0 -29,-11 -29,-25 l 0,-68 -44,0 c -9,0 -17,-7 -17,-15 l 0,-154 c 0,-8 8,-15 17,-15 l 44,0 0,-68 c 0,-14 13,-26 29,-26 l 558,0 c 16,0 29,12 29,26 l 0,320 c 0,14 -13,25 -29,25 z"
             class="fil7" />
          <g
             id="g56"
             style="stroke-width:12.86038113;stroke-miterlimit:4;stroke-dasharray:none">
            <polygon
               style="fill:#5f94cd;fill-opacity:0.30196102;fill-rule:nonzero;stroke-width:12.86038113;stroke-miterlimit:4;stroke-dasharray:none"
               id="polygon58-4"
               points="410,345 479,345 479,579 410,579 "
               class="fil8" />
          </g>
          <g
             id="g60"
             style="stroke-width:12.86038113;stroke-miterlimit:4;stroke-dasharray:none">
            <polygon
               style="fill:#5f94cd;fill-opacity:0.50196078;fill-rule:nonzero;stroke-width:12.86038113;stroke-miterlimit:4;stroke-dasharray:none"
               id="polygon62"
               points="506,345 575,345 575,579 506,579 "
               class="fil9" />
          </g>
          <g
             id="g64"
             style="stroke-width:12.86038113;stroke-miterlimit:4;stroke-dasharray:none">
            <polygon
               style="fill:#5f94cd;fill-opacity:0.69803898;fill-rule:nonzero;stroke-width:12.86038113;stroke-miterlimit:4;stroke-dasharray:none"
               id="polygon66"
               points="601,345 670,345 670,579 601,579 "
               class="fil10" />
          </g>
          <g
             id="g68"
             style="stroke-width:12.86038113;stroke-miterlimit:4;stroke-dasharray:none">
            <polygon
               style="fill:#5f94cd;fill-opacity:0.89803898;fill-rule:nonzero;stroke-width:12.86038113;stroke-miterlimit:4;stroke-dasharray:none"
               id="polygon70"
               points="697,345 766,345 766,579 697,579 "
               class="fil11" />
          </g>
          <polygon
             style="fill:#e1ebf7;fill-rule:nonzero;stroke-width:12.86038113;stroke-miterlimit:4;stroke-dasharray:none"
             id="polygon72"
             points="383,345 314,345 314,579 383,579 "
             class="fil12" />
        </g>
      </g>
    </g>
    <text
       xml:space="preserve"
       style="font-size:27.50000381px;font-style:normal;font-variant:normal;font-weight:normal;font-stretch:normal;text-align:start;line-height:125%;letter-spacing:0px;word-spacing:0px;writing-mode:lr-tb;text-anchor:start;fill:#000000;fill-opacity:1;stroke:none;font-family:sans-serif;-inkscape-font-specification:'sans-serif, Normal'"
       x="938.10944"
       y="609.44604"
       id="text3562-6-01-5-8-3-1-2-9-9-9"
       sodipodi:linespacing="125%"><tspan
         sodipodi:role="line"
         x="938.10944"
         y="609.44604"
         style="text-align:center;text-anchor:middle"
         id="tspan4892">ESS</tspan></text>
    <flowRoot
       xml:space="preserve"
       id="flowRoot3219"
       style="font-size:40px;font-style:normal;font-weight:normal;line-height:125%;letter-spacing:0px;word-spacing:0px;fill:#000000;fill-opacity:1;stroke:none;font-family:Sans"
       transform="translate(402.26379,-354.27197)"><flowRegion
         id="flowRegion3221"><rect
           id="rect3223"
           width="301.18625"
           height="564.37238"
           x="-71.77803"
           y="453.04025" /></flowRegion><flowPara
         id="flowPara3225" /></flowRoot>  </g>
</svg>
