<?xml version="1.0" encoding="UTF-8" standalone="no"?>
<!-- Created with Inkscape (http://www.inkscape.org/) -->

<svg
   xmlns:dc="http://purl.org/dc/elements/1.1/"
   xmlns:cc="http://creativecommons.org/ns#"
   xmlns:rdf="http://www.w3.org/1999/02/22-rdf-syntax-ns#"
   xmlns:svg="http://www.w3.org/2000/svg"
   xmlns="http://www.w3.org/2000/svg"
   xmlns:sodipodi="http://sodipodi.sourceforge.net/DTD/sodipodi-0.dtd"
   xmlns:inkscape="http://www.inkscape.org/namespaces/inkscape"
   width="159.87335"
   height="242.02733"
   id="svg3398"
   version="1.1"
   inkscape:version="0.48.2 r9819"
   sodipodi:docname="New document 10">
  <defs
     id="defs3400" />
  <sodipodi:namedview
     id="base"
     pagecolor="#ffffff"
     bordercolor="#666666"
     borderopacity="1.0"
     inkscape:pageopacity="0.0"
     inkscape:pageshadow="2"
     inkscape:zoom="0.35"
     inkscape:cx="203.5086"
     inkscape:cy="386.72747"
     inkscape:document-units="px"
     inkscape:current-layer="layer1"
     showgrid="false"
     fit-margin-top="0"
     fit-margin-left="0"
     fit-margin-right="0"
     fit-margin-bottom="0"
     inkscape:window-width="1920"
     inkscape:window-height="1017"
     inkscape:window-x="1912"
     inkscape:window-y="-8"
     inkscape:window-maximized="1" />
  <metadata
     id="metadata3403">
    <rdf:RDF>
      <cc:Work
         rdf:about="">
        <dc:format>image/svg+xml</dc:format>
        <dc:type
           rdf:resource="http://purl.org/dc/dcmitype/StillImage" />
        <dc:title></dc:title>
      </cc:Work>
    </rdf:RDF>
  </metadata>
  <g
     inkscape:label="Layer 1"
     inkscape:groupmode="layer"
     id="layer1"
     transform="translate(-171.49141,-677.06231)">
    <g
       style="fill-rule:evenodd"
       id="g4411"
       transform="matrix(0,-0.12876791,0.1255478,0,220.17649,919.2667)">
      <g
         transform="matrix(1.0647449,0,0,1.0647449,100.34846,-249.37489)"
         id="g4231">
        <g
           id="_2879402995760">
          <rect
             style="fill:#bdbfc1;stroke:#96989a;stroke-width:3.32385993"
             id="rect11"
             height="364"
             width="130"
             y="282"
             x="975"
             class="fil0 str0" />
          <rect
             style="fill:#4b4b4d;stroke:#96989a;stroke-width:3.32385993"
             id="rect13"
             height="36.807499"
             width="130.423"
             y="245"
             x="975"
             class="fil1 str0" />
          <polygon
             style="fill:#3f3d3e;stroke:#606062;stroke-width:3.32385993"
             id="polygon15"
             points="1096,272 1096,255 985,255 985,272 "
             class="fil2 str1" />
          <rect
             style="fill:#373435"
             id="rect17"
             height="47.1161"
             width="7.2434602"
             y="434"
             x="1211"
             class="fil3" />
          <rect
             style="fill:#373435"
             id="rect19"
             height="47.1161"
             width="7.2434602"
             y="434"
             x="1086"
             class="fil3" />
          <rect
             style="fill:#bdbfc1;stroke:#96989a;stroke-width:3.32385993"
             id="rect21"
             height="364"
             width="130"
             y="282"
             x="1105"
             class="fil0 str0" />
          <rect
             style="fill:#4b4b4d;stroke:#96989a;stroke-width:3.32385993"
             id="rect23"
             height="36.807499"
             width="130.423"
             y="245"
             x="1105"
             class="fil1 str0" />
          <rect
             style="fill:#373435"
             id="rect25"
             height="47.1161"
             width="7.2434602"
             y="434"
             x="1216"
             class="fil3" />
          <rect
             style="fill:#bdbfc1;stroke:#96989a;stroke-width:3.32385993"
             id="rect27"
             height="364"
             width="130"
             y="282"
             x="1236"
             class="fil0 str0" />
          <rect
             style="fill:#4b4b4d;stroke:#96989a;stroke-width:3.32385993"
             id="rect29"
             height="36.807499"
             width="130.423"
             y="245"
             x="1236"
             class="fil1 str0" />
          <rect
             style="fill:#373435"
             id="rect31"
             height="47.1161"
             width="7.2434602"
             y="434"
             x="1347"
             class="fil3" />
          <rect
             style="fill:#bdbfc1;stroke:#96989a;stroke-width:3.32385993"
             id="rect33"
             height="364"
             width="130"
             y="282"
             x="1366"
             class="fil0 str0" />
          <rect
             style="fill:#4b4b4d;stroke:#96989a;stroke-width:3.32385993"
             id="rect35"
             height="36.807499"
             width="130.423"
             y="245"
             x="1366"
             class="fil1 str0" />
          <rect
             style="fill:#373435"
             id="rect37"
             height="47.1161"
             width="7.2434602"
             y="434"
             x="1378"
             class="fil3" />
          <rect
             style="fill:#4b4b4d;stroke:#96989a;stroke-width:3.32385993"
             id="rect39"
             height="22.4872"
             width="521.69098"
             y="667"
             x="975"
             class="fil1 str0" />
          <rect
             style="fill:#96989a;stroke:#848688;stroke-width:3.32385993"
             id="rect41"
             height="21.3013"
             width="521.69098"
             y="646"
             x="975"
             class="fil4 str2" />
          <rect
             style="fill:#d2d3d5;stroke:#96989a;stroke-width:3.32385993"
             id="rect43"
             height="10.6507"
             width="521.69098"
             y="234"
             x="975"
             class="fil5 str0" />
          <polygon
             style="fill:#3f3d3e;stroke:#606062;stroke-width:3.32385993"
             id="polygon45"
             points="1226,272 1226,255 1115,255 1115,272 "
             class="fil2 str1" />
          <polygon
             style="fill:#3f3d3e;stroke:#606062;stroke-width:3.32385993"
             id="polygon47"
             points="1356,272 1356,255 1246,255 1246,272 "
             class="fil2 str1" />
          <polygon
             style="fill:#3f3d3e;stroke:#606062;stroke-width:3.32385993"
             id="polygon49"
             points="1487,272 1487,255 1376,255 1376,272 "
             class="fil2 str1" />
        </g>
        <g
           id="_2879403002576">
          <path
             style="fill:#5f94cd"
             inkscape:connector-curvature="0"
             id="path52"
             d="m 404,197 39,0 -23,33 -39,0 23,-33 z m -45,0 39,0 -23,33 -38,0 22,-33 z m -45,0 39,0 -23,33 -38,0 22,-33 z m -45,0 39,0 -22,33 -39,0 22,-33 z m -45,0 39,0 -22,33 -39,0 22,-33 z m -45,0 39,0 -22,33 -39,0 22,-33 z m 199,37 39,0 -22,33 -39,0 22,-33 z m -44,0 38,0 -22,33 -39,0 23,-33 z m -45,0 39,0 -23,33 -39,0 23,-33 z m -45,0 39,0 -23,33 -39,0 23,-33 z m -45,0 39,0 -23,33 -39,0 23,-33 z m -45,0 39,0 -23,33 -38,0 22,-33 z m 199,38 39,0 -23,33 -38,0 22,-33 z m -45,0 39,0 -23,33 -38,0 22,-33 z m -45,0 39,0 -22,33 -39,0 22,-33 z m -45,0 39,0 -22,33 -39,0 22,-33 z m -45,0 39,0 -22,33 -39,0 22,-33 z m -44,0 38,0 -22,33 -39,0 23,-33 z m 199,37 38,0 -22,33 -39,0 23,-33 z m -45,0 39,0 -23,33 -39,0 23,-33 z m -45,0 39,0 -23,33 -39,0 23,-33 z m -45,0 39,0 -23,33 -39,0 23,-33 z m -45,0 39,0 -23,33 -38,0 22,-33 z m -45,0 39,0 -23,33 -38,0 22,-33 z"
             class="fil6" />
          <polygon
             style="fill:#a9abae"
             id="polygon54"
             points="286,424 286,431 199,431 199,424 226,424 226,362 258,362 258,424 "
             class="fil7" />
          <path
             style="fill:#5f94cd"
             inkscape:connector-curvature="0"
             id="path56"
             d="m 847,505 39,0 -22,33 -39,0 22,-33 z m -44,0 38,0 -22,33 -39,0 23,-33 z m -45,0 38,0 -22,33 -39,0 23,-33 z m -45,0 39,0 -23,33 -39,0 23,-33 z m -45,0 39,0 -23,33 -39,0 23,-33 z m -45,0 39,0 -23,33 -39,0 23,-33 z m 199,37 39,0 -23,33 -39,0 23,-33 z m -45,0 39,0 -23,33 -38,0 22,-33 z m -45,0 39,0 -22,33 -39,0 22,-33 z m -45,0 39,0 -22,33 -39,0 22,-33 z m -45,0 39,0 -22,33 -39,0 22,-33 z m -44,0 38,0 -22,33 -39,0 23,-33 z m 199,37 38,0 -22,33 -39,0 23,-33 z m -45,0 38,0 -22,33 -39,0 23,-33 z m -45,0 39,0 -23,33 -39,0 23,-33 z m -45,0 39,0 -23,33 -39,0 23,-33 z m -45,0 39,0 -23,33 -39,0 23,-33 z m -45,0 39,0 -23,33 -38,0 22,-33 z m 199,38 39,0 -23,33 -38,0 22,-33 z m -45,0 39,0 -22,33 -39,0 22,-33 z m -45,0 39,0 -22,33 -39,0 22,-33 z m -45,0 39,0 -22,33 -39,0 22,-33 z m -44,0 38,0 -22,33 -39,0 23,-33 z m -45,0 38,0 -22,33 -39,0 23,-33 z"
             class="fil6" />
          <polygon
             style="fill:#a9abae"
             id="polygon58"
             points="729,731 729,739 642,739 642,731 670,731 670,670 702,670 702,731 "
             class="fil7" />
          <polygon
             style="fill:#5f94cd"
             id="polygon60"
             points="486,417 572,417 410,609 478,468 406,468 462,343 522,330 "
             class="fil6" />
        </g>
      </g>
      <rect
         class="fil8 str3"
         x="6.3666053"
         y="-382.78198"
         width="1869.5717"
         height="1263.4154"
         id="rect62"
         style="color:#000000;fill:none;stroke:#3e4095;stroke-width:9.96969986;stroke-linecap:butt;stroke-linejoin:miter;stroke-miterlimit:4;stroke-opacity:1;stroke-dasharray:none;stroke-dashoffset:0;visibility:visible;display:inline;overflow:visible;enable-background:accumulate" />
    </g>
  </g>
</svg>
